<svg xmlns="http://www.w3.org/2000/svg" viewBox="0 0 512 512" xmlns:v="https://vecta.io/nano"><path d="M144.696 486.598C178.352 502.872 216.11 512 256 512s77.648-9.128 111.304-25.402L389.565 256l-22.26-230.598C333.648 9.128 295.89 0 256 0s-77.648 9.128-111.304 25.402L122.435 256l22.26 230.598z" fill="#ffda44"/><path d="M367.304 486.59C452.935 445.183 512 357.493 512 256S452.935 66.817 367.304 25.41V486.59z" fill="#d80027"/><path d="M144.696 486.59V25.41C59.065 66.817 0 154.506 0 256s59.065 189.183 144.696 230.59z" fill="#0052b4"/><g fill="#d80027"><path d="M256 345.043V256h66.783v33.39c0 5.8-11.13 27.057-38.603 44.522-10.405 6.616-21.176 8.744-28.18 11.13z"/><path d="M189.217 189.217H256V256h-66.783z"/></g><path d="M289.39 166.957c0-12.295-9.967-22.26-22.26-22.26-4.06 0-7.854 1.104-11.13 3.002-3.277-1.898-7.07-3.002-11.13-3.002-12.294 0-22.26 9.966-22.26 22.26h-55.652V278.26c0 41.436 32.906 65.4 58.71 77.82-1.93 3.298-3.06 7.125-3.06 11.224 0 12.295 9.967 22.26 22.26 22.26 4.06 0 7.854-1.104 11.13-3.002 3.277 1.898 7.07 3.002 11.13 3.002 12.294 0 22.26-9.966 22.26-22.26 0-4.1-1.128-7.926-3.06-11.224 25.805-12.422 58.712-36.384 58.712-77.82V166.957H289.39zm22.26 111.303c0 5.8 0 23.452-27.472 40.918-10.406 6.616-21.176 10.906-28.18 13.29-7.004-2.385-17.774-6.675-28.18-13.29-27.472-17.466-27.472-35.117-27.472-40.918v-77.912h111.304v77.912z" fill="#ff9811"/></svg>