<svg xmlns="http://www.w3.org/2000/svg" viewBox="0 0 512 512" xmlns:v="https://vecta.io/nano"><path d="M367.304 25.402C333.648 9.128 295.9 0 256 0s-77.648 9.128-111.304 25.402L122.435 256l22.26 230.598C178.352 502.872 216.1 512 256 512s77.648-9.128 111.304-25.402L389.565 256l-22.26-230.598z" fill="#d80027"/><path d="M144.696 25.41C59.066 66.818 0 154.507 0 256s59.066 189.182 144.696 230.59V25.41z"/><path d="M367.304 25.41V486.59C452.934 445.182 512 357.493 512 256S452.934 66.818 367.304 25.41z" fill="#496e2d"/><path d="M256 166.957c-49.178 0-89.043 39.866-89.043 89.043s39.866 89.043 89.043 89.043 89.043-39.866 89.043-89.043-39.865-89.043-89.043-89.043zm0 144.695c-30.736 0-55.652-24.917-55.652-55.652s24.917-55.652 55.652-55.652 55.652 24.917 55.652 55.652-24.916 55.652-55.652 55.652zm0-89.042c-12.295 0-22.26 9.966-22.26 22.26v33.4h44.522v-33.4c0-12.295-9.966-22.26-22.26-22.26z" fill="#ffda44"/></svg>