<svg xmlns="http://www.w3.org/2000/svg" viewBox="0 0 512 512" xmlns:v="https://vecta.io/nano"><path d="M512 256c0 141.384-114.616 256-256 256S0 397.384 0 256C0 256.06 256 .028 256 0c141.384 0 256 114.616 256 256z" fill="#0052b4"/><g fill="#f0f0f0"><path d="M256 0h-.043.043zm-.685 256H256v-.685l-.685.685z"/><path d="M256 133.565L255.957 0C114.59.024 0 114.63 0 256h133.565v-75.21l75.21 75.21h46.54l.685-.685v-46.537l-75.213-75.213H256z"/></g><path d="M129.515 33.4C89.476 56.2 56.2 89.476 33.4 129.515V256h66.783V100.174H256V33.4H129.515zM256 224.52l-90.955-90.953-31.48.002L256 256v-31.48z" fill="#d80027"/><path d="M445.217 256h0zM289.4 256h0z" fill="#496e2d"/><path d="M432.94 293.474c7.36-10.128 12.278-22.496 12.278-37.474V144.696c-9.302 6.988-20.862 11.13-33.39 11.13-18.206 0-34.37-8.743-44.522-22.26-10.154 13.516-26.317 22.26-44.522 22.26a55.41 55.41 0 0 1-33.391-11.128V256c0 14.978 4.917 27.346 12.278 37.474h131.27z" fill="#f3f3f3"/><path d="M409.785 235.35c3.544-8.646 6.3-21.283 6.3-27.572 0-10.105-13.174-18.296-13.174-18.296s-13.174 8.2-13.174 18.296c0 6.3 2.757 18.927 6.3 27.572l-7.605 17.17c4.47 1.818 9.356 2.828 14.48 2.828a38.37 38.37 0 0 0 14.481-2.828l-7.608-17.17zm-51.49-55.598c-9.256 1.254-21.58 5.2-27.025 8.333-8.75 5.053-9.26 20.556-9.26 20.556s13.682 7.313 22.432 2.26c5.448-3.145 15.012-11.85 20.725-19.24l18.676-2a38.41 38.41 0 0 0-4.792-13.952 38.39 38.39 0 0 0-9.689-11.128l-11.068 15.17zm-22.402 72.394c5.713 7.388 15.28 16.1 20.728 19.237 8.75 5.052 22.432-2.26 22.432-2.26s-.5-15.505-9.26-20.558c-5.45-3.145-17.77-7.076-27.028-8.328l-11.067-15.173a38.4 38.4 0 0 0-9.688 11.125 38.44 38.44 0 0 0-4.793 13.955l18.675 2z" fill="#ff9811"/><path d="M298.916 289.394c20.788 33.355 68.39 44.52 68.39 44.52s47.6-11.165 68.39-44.52H298.916z" fill="#338af3"/></svg>