<svg xmlns="http://www.w3.org/2000/svg" viewBox="0 0 512 512" xmlns:v="https://vecta.io/nano"><circle cx="256" cy="256" r="256" fill="#d80027"/><path d="M400.696 190.01H307.97c5.724-5.994 9.247-14.11 9.247-23.052 0-18.44-14.95-33.39-33.39-33.39-11.618 0-21.845 5.936-27.826 14.937-5.98-9-16.21-14.937-27.826-14.937-18.44 0-33.39 14.95-33.39 33.39 0 8.943 3.523 17.06 9.247 23.052h-92.725c0 24.59 21.417 44.52 46.004 44.52h-1.484c0 24.6 19.933 44.523 44.523 44.523a44.25 44.25 0 0 0 5.763 21.894l-36.93 36.93 28.334 28.332 40.192-40.19a30.5 30.5 0 0 0 4.885 1.355l-24.287 54.835L256 422.957l37.695-40.75-24.287-54.835a30.37 30.37 0 0 0 4.885-1.355l40.192 40.19 28.334-28.333-36.93-36.93c3.665-6.463 5.764-13.93 5.764-21.894 24.59 0 44.522-19.932 44.522-44.523h-1.483c24.587.002 46.005-19.93 46.005-44.518z"/></svg>