<svg xmlns="http://www.w3.org/2000/svg" viewBox="0 0 512 512" xmlns:v="https://vecta.io/nano"><path d="M0 256C0 114.616 114.616 0 256 0s256 114.616 256 256c-11.13 0-256 33.39-256 33.39L0 256z" fill="#d80027"/><path d="M512,256c0,141.384-114.616,256-256,256S0,397.384,0,256"/><g fill="#ffda44"><path d="M220.898 203.612l21.702 15.75-8.27 25.508 21.686-15.776 21.704 15.75-8.302-25.5 21.684-15.774-26.815.016-8.303-25.5-8.27 25.508zM320 145.15c-20.173-11.647-42.23-17.144-64-17.106v33.384c16.1-.03 32.393 4.03 47.304 12.64 45.178 26.084 60.713 84.06 34.628 129.238s-84.058 60.713-129.237 34.63a93.98 93.98 0 0 1-31.619-29.824L149.2 326.515c10.597 16.1 24.993 30.056 42.8 40.336 61.124 35.3 139.56 14.273 174.85-46.85S381.124 180.44 320 145.15z"/><path d="M182.2 233.74c-8.85 16.18-2.908 36.47 13.27 45.32l108.45 59.26c-7.375 13.48-3.458 29.9 10.023 37.265l29.295 16.025c13.48 7.376 30.392 2.424 37.767-11.058l16.025-29.294L182.2 233.74z"/></g></svg>