<svg xmlns="http://www.w3.org/2000/svg" viewBox="0 0 512 512" xmlns:v="https://vecta.io/nano"><circle cx="256" cy="256" r="256" fill="#f0f0f0"/><path d="M256 0C154.506 0 66.8 59.065 25.402 144.696h461.195C445.2 59.065 357.493 0 256 0zm0 512c101.493 0 189.2-59.065 230.598-144.696H25.402C66.8 452.935 154.506 512 256 512z" fill="#338af3"/><path d="M332.515 256l-31.265 14.707 16.65 30.28-33.95-6.495-4.302 34.296L256 303.563l-23.648 25.224-4.3-34.296-33.95 6.494 16.648-30.28L179.485 256l31.265-14.707-16.65-30.278 33.95 6.494 4.303-34.296L256 208.437l23.648-25.224 4.3 34.296 33.95-6.494-16.65 30.28z" fill="#ffda44"/></svg>