<svg xmlns="http://www.w3.org/2000/svg" viewBox="0 0 512 512" xmlns:v="https://vecta.io/nano"><circle cx="256" cy="256" r="256" fill="#f0f0f0"/><path d="M380.196 32.112C343.412 11.664 301.07 0 256 0 114.626 0 .018 114.598 0 255.97l178.087-89.013 202.1-134.845zM0 256.03C.018 397.402 114.626 512 256 512c45.07 0 87.412-11.662 124.196-32.112l-202.1-134.845L0 256.03z" fill="#0052b4"/><path d="M401.53 45.382c-6.876-4.76-14-9.185-21.343-13.266L0 256.03l380.188 223.853c7.342-4.082 14.466-8.507 21.343-13.266L43.822 256 401.53 45.382z" fill="#d80027"/><path d="M445.217 246.453h-30.494c7.93-9.52 7.44-23.683-1.493-32.614 9.462-9.46 9.462-24.802 0-34.265l-.57.572c9.46-9.46 10.032-25.374.57-34.835L276.174 282.367c9.462 9.463 24.534 9.35 33.995-.112l2.638-2.41 65.628-5.966v28.226h22.26v-30.25l33.39-3.035 11.13-22.366z" fill="#a2001d"/><path d="M278.27 311.652L256 300.522l22.27-11.13h144.695v22.26z" fill="#ffda44"/></svg>