<svg xmlns="http://www.w3.org/2000/svg" viewBox="0 0 512 512" xmlns:v="https://vecta.io/nano"><path d="M512 256c0 141.384-114.616 256-256 256S0 397.384 0 256C0 256.06 256 .03 256 0c141.384 0 256 114.616 256 256z" fill="#0052b4"/><g fill="#f0f0f0"><path d="M256 0l-.043.001L256 0zm-.685 256H256v-.685l-.685.685z"/><path d="M256 133.566L255.957.001C114.592.024 0 114.63 0 256h133.565v-75.212L208.777 256h46.54l.685-.685V208.78l-75.213-75.213H256z"/></g><path d="M129.515 33.4a257.39 257.39 0 0 0-96.125 96.125V256h66.783V100.174H256V33.4H129.515zM256 224.52l-90.953-90.952h-31.48L256 256v-31.48z" fill="#d80027"/><path d="M154.395 300.522l14.05 29.378 31.727-7.333-14.208 29.302 25.514 20.233-31.767 7.16.1 32.564-25.405-20.373-25.404 20.373.1-32.564-31.768-7.16 25.515-20.233-14.2-29.302 31.73 7.333zm228.89 55.652l7.025 14.7 15.864-3.667-7.105 14.65 12.758 10.117-15.884 3.58.044 16.282-12.702-10.187-12.702 10.187.044-16.282-15.883-3.58 12.757-10.117-7.104-14.65 15.863 3.667zm-65.35-155.826l7.024 14.7 15.864-3.668-7.104 14.65 12.757 10.117-15.883 3.58.043 16.282-12.7-10.187L305.23 256l.043-16.282-15.883-3.58 12.757-10.117-7.104-14.65 15.864 3.668zm65.35-89.044l7.025 14.7 15.864-3.667-7.104 14.65 12.756 10.116-15.883 3.58.044 16.282-12.702-10.187-12.702 10.187.044-16.282-15.883-3.58 12.756-10.116-7.103-14.65 15.863 3.667zm57.084 66.783l7.024 14.7 15.864-3.668-7.104 14.65 12.757 10.117-15.884 3.58.044 16.28-12.7-10.186-12.702 10.186.043-16.28-15.883-3.58 12.757-10.117-7.104-14.65 15.863 3.668zM399.55 256l5.525 17.006h17.882l-14.467 10.5 5.527 17.005-14.467-10.5-14.466 10.5 5.525-17.005-14.466-10.5h17.88z" fill="#f0f0f0"/></svg>