<svg xmlns="http://www.w3.org/2000/svg" viewBox="0 0 512 512" xmlns:v="https://vecta.io/nano"><circle cx="256" cy="256" r="256" fill="#ffda44"/><path d="M256 512c77.6 0 147.114-34.524 194.06-89.043H61.94C108.886 477.476 178.4 512 256 512zm256-256C512 114.616 397.384 0 256 0S0 114.616 0 256a256.28 256.28 0 0 0 8.819 66.783h494.363C508.92 301.5 512 279.107 512 256zM20.35 356.174c4.935 11.596 10.704 22.748 17.225 33.4h436.852c6.52-10.644 12.3-21.796 17.227-33.4H20.35z" fill="#338af3"/><path d="M117.317 161.463L67.3 139.39l50.016-22.074L139.4 67.3l22.073 50.015 50.015 22.074-50.015 22.074-22.073 50.015z" fill="#f0f0f0"/><path d="M139.4 94.867l13.63 30.89 30.9 13.633-30.9 13.632-13.63 30.89-13.633-30.89-30.89-13.632 30.89-13.633z" fill="#d80027"/></svg>