<svg xmlns="http://www.w3.org/2000/svg" viewBox="0 0 512 512" xmlns:v="https://vecta.io/nano"><circle cx="256" cy="256" r="256" fill="#f0f0f0"/><path d="M256 0C165.23 0 85.5 47.243 40.044 118.48l347.16 357.37C461.946 431.147 512 349.423 512 256 512 114.616 397.384 0 256 0z" fill="#ffda44"/><path d="M512 256c0-66.422-25.298-126.93-66.783-172.428V428.43C486.702 382.93 512 322.422 512 256zM319.8 481.873l26.815-.017 8.272-25.5 8.302 25.5 13.45-.008a255.55 255.55 0 0 0 23.9-14.53L44.7 111.47a256.06 256.06 0 0 0-16.021 26.75l3.162 9.712 26.815-.017L36.96 163.7l8.302 25.5-21.704-15.748-12.945 9.416C3.713 206.034 0 230.583 0 256c0 141.384 114.616 256 256 256 29.892 0 58.583-5.132 85.25-14.552l-21.46-15.575zM57.1 244.87l8.27-25.508-21.702-15.75 26.815-.017 8.27-25.5 8.302 25.5 26.815-.017-21.685 15.775 8.302 25.5-21.704-15.748L57.1 244.87zm55.225 55.652l8.27-25.508-21.702-15.75 26.815-.017 8.27-25.5 8.302 25.5 26.815-.017-21.684 15.775 8.302 25.5-21.704-15.748-21.685 15.776zm55.224 55.652l8.27-25.508-21.702-15.75 26.815-.017 8.27-25.5 8.302 25.5 26.815-.017-21.684 15.775 8.302 25.5-21.704-15.75-21.685 15.778zm76.9 39.877l-21.685 15.775 8.27-25.508-21.702-15.75 26.815-.017 8.272-25.5 8.302 25.5 26.815-.017L257.86 386.3l8.302 25.5-21.705-15.747zM278 467.478l8.27-25.508-21.702-15.75 26.815-.017 8.27-25.5 8.302 25.5 26.815-.017-21.684 15.775 8.302 25.5-21.704-15.75-21.685 15.778z" fill="#0052b4"/></svg>