<svg xmlns="http://www.w3.org/2000/svg" viewBox="0 0 512 512" xmlns:v="https://vecta.io/nano"><path d="M367.304 25.402C333.648 9.128 295.9 0 256 0s-77.648 9.128-111.304 25.402L122.435 256l22.26 230.598C178.352 502.872 216.1 512 256 512s77.648-9.128 111.304-25.402L389.565 256l-22.26-230.598z" fill="#ffda44"/><path d="M144.696 25.4C59.066 66.817 0 154.506 0 256s59.066 189.183 144.696 230.6V25.4zm222.608 0V486.6C452.934 445.183 512 357.493 512 256S452.934 66.817 367.304 25.4z" fill="#0052b4"/><path d="M333.913 155.826l14.933 7.466-29.867-14.932c-.9 1.8-20.4 41.474-23.584 102.075h-22.7v-94.61L256 133.565l-16.696 22.26v94.61h-22.7c-3.186-60.6-22.684-100.274-23.585-102.075l-29.866 14.933c.206.4 20.5 41.715 20.5 103.838v16.696h55.652v94.61h33.39v-94.61h55.652V267.13c0-32.118 5.557-58.602 10.22-75.164 5.083-18.06 10.246-28.607 10.297-28.712l-14.952-7.428z"/></svg>