<svg xmlns="http://www.w3.org/2000/svg" viewBox="0 0 512 512" xmlns:v="https://vecta.io/nano"><path d="M512 256c0 141.384-114.616 256-256 256S0 397.384 0 256C0 256.06 256 .028 256 0c141.384 0 256 114.616 256 256z" fill="#d80027"/><path d="M256 122.435v86.343l-89.043-86.343zM133.565 256h75.2l-75.2-100.174-11.13 77.913z" fill="#0052b4"/><g fill="#f0f0f0"><path d="M256 0h-.043.043zm-.685 256H256v-.685l-.685.685z"/><path d="M256 133.565L255.957 0C114.59.024 0 114.63 0 256h133.565v-75.21l75.21 75.21h46.54l.685-.685v-46.537l-75.213-75.213H256z"/></g><path d="M129.515 33.4C89.476 56.2 56.2 89.476 33.4 129.515V267.13h66.783V100.174H267.13V33.4H129.515zm136.662 201.304l-101.132-101.13-31.48.002 132.6 132.6c.001.001.001-21.706.001-31.482z" fill="#d80027"/><path d="M289.39 133.565V256c0 59.64 155.826 59.64 155.826 0V133.565H289.39z" fill="#f3f3f3"/><path d="M289.39 256h0c0 59.64 77.913 77.914 77.913 77.914S445.217 315.64 445.217 256h0H289.39z" fill="#6da544"/><path d="M367.304 207.026L331.13 222.61V256l36.174 22.26L403.478 256v-33.39z" fill="#a2001d"/><path d="M331.13 189.217h72.348v33.39H331.13z" fill="#338af3"/></svg>