<svg xmlns="http://www.w3.org/2000/svg" viewBox="0 0 512 512" xmlns:v="https://vecta.io/nano"><circle cx="256" cy="256" r="256" fill="#f0f0f0"/><path d="M74.98 74.98C20.115 129.845-4.632 203.42.72 275.165L275.164.722C203.418-4.632 129.845 20.115 74.98 74.98z" fill="#ffda44"/><path d="M91.4 452.07c100.58 84.622 250.94 79.617 345.6-15.052S536.695 192 452.072 91.4L91.4 452.07z" fill="#0052b4"/><path d="M255.087 245.69l22.06-11.95-22.06-11.95c-5.15-33.46-31.59-59.9-65.05-65.05l-11.95-22.062-11.95 22.06c-33.46 5.15-59.898 31.59-65.05 65.05l-22.062 11.95 22.06 11.95c5.15 33.46 31.59 59.9 65.05 65.05l11.95 22.062 11.95-22.06c33.462-5.15 59.9-31.6 65.05-65.05zm-77 32.572c-24.59 0-44.522-19.932-44.522-44.522s19.932-44.522 44.522-44.522 44.522 19.932 44.522 44.522-19.933 44.522-44.522 44.522z"/><path d="M178.087 200.348l9.64 16.695h19.28l-9.64 16.696 9.64 16.696h-19.28l-9.64 16.695-9.64-16.695H149.17l9.64-16.696-9.64-16.696h19.278z" fill="#d80027"/></svg>