<svg xmlns="http://www.w3.org/2000/svg" viewBox="0 0 512 512" xmlns:v="https://vecta.io/nano"><path d="M437.02 437.02c-99.974 99.974-262.064 99.974-362.04 0s-99.974-262.065 0-362.04c.036 0 230.058-67.967 330.033 32.007S437.088 436.95 437.02 437.02z" fill="#ffda44"/><path d="M437.02 437.02c99.974-99.974 99.974-262.065 0-362.04s-262.064-99.974-362.04 0l362.04 362.04z" fill="#d80027"/><path d="M322.916 322.94c-10.516 4.13-22.735 3.692-33.336-2.257-18.73-10.512-25.416-34.306-14.9-53.04l-3.192-1.8c32.07-7.733 55.798-36.843 55.382-71.195-.258-21.357-9.8-40.464-24.728-53.538l-23.373 23.946c8.836 7.042 14.565 17.844 14.712 29.997.26 21.48-17.002 39.167-38.48 39.426l.045 3.657c-22.733-23.906-59.805-29.9-89.346-12.363-18.366 10.904-30.14 28.72-34 48.185l32.424 8.27c1.68-11.174 8.17-21.536 18.62-27.74 18.47-10.965 42.42-4.857 53.384 13.613l3.148-1.867c-9.338 31.638 4.007 66.74 33.966 83.557 18.626 10.454 39.942 11.743 58.73 5.354l-9.054-32.215zm-67.648-66.194h0l-.002.001.002-.001z" fill="#ff9811"/><path d="M350.786 173.38l-18.094 64.57-54.3-10.025-34.946-72.035-94.407 33.5-7.445-20.98-24.7-3.043 18.61 52.45 64.97-16.616 18.463 52.03-44.912 66.28 76.217 65.006-14.447 16.937 9.715 22.915 36.118-42.344-46.874-47.957 35.827-42.003 79.858 5.754 18.19-98.5 21.89 4.043 14.99-19.87-54.732-10.103zm-94.805 84.36v.002-.002z" fill="#ffeacf"/></svg>