<svg xmlns="http://www.w3.org/2000/svg" viewBox="0 0 512 512" xmlns:v="https://vecta.io/nano"><path d="M12.09 178.086C4.247 202.655 0 228.828.001 256s4.246 53.343 12.09 77.913L256 345.044l243.9-11.132C507.752 309.342 512 283.167 512 256s-4.247-53.345-12.09-77.914L256 166.956l-243.91 11.13z" fill="#f0f0f0"/><path d="M512 256c0-15.187-1.33-30.063-3.867-44.523H3.868C1.33 225.937 0 240.81 0 256s1.33 30.062 3.868 44.522h504.265C510.67 286.06 512 271.186 512 256z"/><path d="M256 512c114.216 0 210.946-74.803 243.9-178.088H12.1C45.055 437.195 141.786 511.997 256 512zm0-512C141.786.001 45.056 74.804 12.1 178.086l487.82.001C466.946 74.804 370.215-.001 256 .001z" fill="#338af3"/></svg>