<svg xmlns="http://www.w3.org/2000/svg" viewBox="0 0 512 512" xmlns:v="https://vecta.io/nano"><circle cx="256" cy="256" r="256" fill="#fcfcfc"/><g fill="#a2001d"><path d="M105.74 237.45l-27.826-50.483 27.826-49.69 27.826 49.69z"/><path d="M50.087 237.45L22.26 186.966l27.826-49.7 27.826 49.7zm55.653 137.275l-27.826-50.483 27.826-49.7 27.826 49.7z"/><path d="M50.087 374.725L22.26 324.242l27.826-49.7 27.826 49.7zm83.478-325.033l-7.878-14.068a256.7 256.7 0 0 0-39.594 28.909l19.646 35.64 27.826-50.482zM105.74 411.826l-19.854 35.456a256.71 256.71 0 0 0 39.568 28.955l8.113-14.72-27.827-49.692z"/></g><path d="M155.826 322.783v168.863C186.595 504.743 220.448 512 256 512c110.07 0 203.906-69.472 240.077-166.957l-340.25-22.26z" fill="#6da544"/><path d="M496.077 345.043C506.368 317.3 512 287.314 512 256 512 114.616 397.384 0 256 0c-35.55 0-69.405 7.253-100.174 20.348v324.696h340.25z" fill="#a2001d"/></svg>