<svg xmlns="http://www.w3.org/2000/svg" viewBox="0 0 512 512" xmlns:v="https://vecta.io/nano"><path d="M512 256c0-87.86-44.27-165.374-111.713-211.478L256 33.39 111.713 44.52C44.27 90.626 0 168.14 0 256s44.27 165.374 111.713 211.478L256 478.61l144.287-11.13C467.73 421.374 512 343.863 512 256z" fill="#0052b4"/><path d="M400.287 44.522C359.202 16.436 309.524 0 256 0S152.798 16.436 111.713 44.522h288.574zM111.713 467.478C152.797 495.564 202.477 512 256 512s103.202-16.436 144.287-44.522H111.713z" fill="#a2001d"/><circle cx="256" cy="256" r="122.435" fill="#f0f0f0"/><circle cx="256" cy="256" r="100.174" fill="#6da544"/><circle cx="256" cy="256" r="66.783" fill="#f0f0f0"/><path d="M256 239.304L219.826 256v27.826L256 306.087l36.174-22.26V256z" fill="#0052b4"/><path d="M219.826 222.61h72.348V256h-72.348z" fill="#ffda44"/></svg>