<svg xmlns="http://www.w3.org/2000/svg" viewBox="0 0 512 512" xmlns:v="https://vecta.io/nano"><circle cx="256" cy="256" r="256" fill="#f0f0f0"/><path d="M512 256c0-101.494-59.065-189.2-144.696-230.598v461.195C452.935 445.2 512 357.494 512 256zM0 256c0 101.494 59.065 189.2 144.696 230.598V25.402C59.065 66.8 0 154.506 0 256zm300.522 33.4l44.52-22.26-22.26-11.13v-22.26L278.26 256l22.26-44.522h-22.26L256 178.087l-22.26 33.4h-22.26L233.74 256l-44.522-22.26V256l-22.26 11.13 44.52 22.26-11.13 22.26h44.522v33.4h22.26v-33.4h44.522z" fill="#d80027"/></svg>