<svg xmlns="http://www.w3.org/2000/svg" viewBox="0 0 512 512" xmlns:v="https://vecta.io/nano"><circle cx="256" cy="256" r="256" fill="#f0f0f0"/><path d="M480.873 133.565c-33.08-60.63-89.963-106.398-158.1-124.76l-11.13 124.76h169.22zm-449.746 0h169.22l-11.13-124.76c-68.127 18.362-125 64.132-158.1 124.76z" fill="#0052b4"/><path d="M311.652 256v122.435h169.22C500.717 342.064 512 300.35 512 256H311.652zm-111.304 0H0c0 44.35 11.283 86.064 31.127 122.435h169.22V256z" fill="#6da544"/><g fill="#ffda44"><path d="M31.127 378.435c33.08 60.63 89.963 106.398 158.1 124.76l11.13-109.1-169.22-15.65zm291.656 124.76c68.127-18.362 125-64.13 158.1-124.76l-169.22 15.65 11.13 109.1z"/><path d="M311.652 394.084l169.22-15.65h-169.22zm-111.304-15.65H31.127l169.22 15.65z"/></g><path d="M256 0a256.28 256.28 0 0 0-66.783 8.819v494.363C210.51 508.92 232.893 512 256 512a256.28 256.28 0 0 0 66.783-8.819V8.82A256.28 256.28 0 0 0 256 0z" fill="#d80027"/><path d="M137.698 55.652l6.906 21.257h22.353l-18.082 13.138 6.907 21.257-18.084-13.137-18.083 13.137 6.91-21.257-18.082-13.138h22.35z" fill="#ffda44"/></svg>