<svg xmlns="http://www.w3.org/2000/svg" viewBox="0 0 512 512" xmlns:v="https://vecta.io/nano"><path d="M367.304 25.402C333.648 9.128 295.9 0 256 0s-77.648 9.128-111.304 25.402L122.435 256l22.26 230.598C178.352 502.872 216.1 512 256 512s77.648-9.128 111.304-25.402L389.565 256l-22.26-230.598z" fill="#d80027"/><path d="M255.998 166.957l22.1 68.02h71.528l-57.864 42.044 22.1 68.023-57.865-42.04-57.865 42.04 22.105-68.023-57.864-42.044h71.523z" fill="#ffda44"/><path d="M144.696 25.41C59.066 66.817 0 154.506 0 256s59.066 189.183 144.696 230.59V25.41z" fill="#496e2d"/><path d="M367.304 25.41V486.59C452.934 445.183 512 357.493 512 256S452.934 66.817 367.304 25.41z" fill="#ffda44"/></svg>