<svg xmlns="http://www.w3.org/2000/svg" viewBox="0 0 512 512" xmlns:v="https://vecta.io/nano"><path d="M.001 44.522H0L.001 256z" fill="#ff9811"/><circle cx="255.999" cy="256" r="255.999" fill="#f0f0f0"/><path d="M256 .002c-83.752 0-158.106 40.223-204.8 102.4H460.8C414.107 40.224 339.752.002 256 .002zM256 512c83.752 0 158.106-40.223 204.8-102.4H51.2C97.894 471.777 172.25 512 256 512zm-256-256a257.1 257.1 0 0 0 5.127 51.2h501.747a257.1 257.1 0 0 0 5.126-51.2c0-17.535-1.768-34.657-5.126-51.2H5.128A257.1 257.1 0 0 0 .001 256z" fill="#0052b4"/><path d="M74.98 74.982c-99.973 99.973-99.973 262.064 0 362.04L256 256.002 74.98 74.982z" fill="#d80027"/><path d="M103.61 189.22l16.574 51.015h53.646l-43.397 31.532 16.574 51.016-43.397-31.53-43.4 31.53L76.8 271.766l-43.398-31.532h53.642z" fill="#f0f0f0"/></svg>