<svg xmlns="http://www.w3.org/2000/svg" viewBox="0 0 512.001 512.001" xmlns:v="https://vecta.io/nano"><path d="M437.02 437.02c-99.974 99.974-262.065 99.974-362.04 0s-99.974-262.065 0-362.04c7.87 7.87 204.63 157.408 204.63 157.408L437.02 437.02z" fill="#0052b4"/><path d="M74.98 74.98c99.974-99.974 262.065-99.974 362.04 0s99.974 262.065 0 362.04" fill="#6da544"/><circle cx="256" cy="256" r="66.783" fill="#ffda44"/><path d="M95.325 367.305l7.025 14.7 15.863-3.667-7.104 14.65 12.758 10.117-15.884 3.58.044 16.283-12.702-10.187-12.702 10.187.044-16.283-15.884-3.58 12.758-10.117-7.105-14.65 15.864 3.667zM49.372 244.87l7.025 14.7 15.863-3.668-7.103 14.652 12.756 10.117-15.883 3.58.044 16.283-12.702-10.186-12.7 10.186.043-16.283-15.883-3.58 12.757-10.117-7.104-14.652 15.863 3.668zm45.953-100.174l7.025 14.7 15.863-3.668-7.103 14.652 12.757 10.117-15.884 3.58.044 16.283-12.702-10.186-12.702 10.186.044-16.283-15.883-3.58L79.54 170.37l-7.104-14.652 15.864 3.668zm57.083 77.914l7.025 14.7 15.864-3.668-7.105 14.653L180.95 258.4l-15.883 3.58.043 16.282-12.7-10.186-12.702 10.186.044-16.282-15.883-3.58 12.756-10.116-7.103-14.653 15.863 3.668zM111.6 289.392l5.526 17.006h17.88l-14.466 10.5 5.526 17.005-14.466-10.5-14.466 10.5 5.526-17.005-14.466-10.5h17.88z" fill="#f0f0f0"/><path d="M256 300.522h22.26s9.646-17.065 0-33.39l22.26-22.26-11.13-22.26h-11.13s-5.565 16.696-27.826 16.696S222.6 222.61 222.6 222.61h-11.13l11.13 22.26-11.13 22.26 11.13 11.13S233.74 256 256 267.13c-.001 0 9.46 13.913-.001 33.39z" fill="#6da544"/><path d="M422.153 140.223c.525-2.735.804-5.556.804-8.444 0-19.8-12.928-36.57-30.8-42.357 5.46 11.1 8.54 23.584 8.54 36.792 0 4.454-.358 8.824-1.03 13.09-2.7-4.333-6.145-8.292-10.366-11.65-15.9-12.652-37.63-12.987-53.695-2.332 12.403 2.708 24.395 8.213 35.002 16.652 8.304 6.608 15.014 15.546 20.152 24.174l-67.975 21.285c66.783 11.13 122.435-33.39 122.435-33.39-6.167-12.332-15.743-14.412-23.065-13.817z" fill="#ffda44"/></svg>