<svg xmlns="http://www.w3.org/2000/svg" viewBox="0 0 512 512" xmlns:v="https://vecta.io/nano"><circle cx="256" cy="256" r="256" fill="#fcfcfc"/><path d="M400.696 222.61h-33.39c0 61.472-49.834 111.304-111.304 111.304S144.697 284.08 144.697 222.61h-33.39c0 66.215 44.476 122.042 105.186 139.235-6.656 12.644-5.642 28.563 3.866 40.428l36.385-29.158 36.385 29.158c9.602-11.983 10.547-28.104 3.67-40.81 60.045-17.615 103.898-73.1 103.898-138.854z" fill="#6da544"/><path d="M166.957 211.478s0 55.652 55.652 55.652l11.13 11.13H256s11.13-33.39 33.39-33.39c0 0 0-22.26 22.26-22.26h33.39s-11.13-44.522 44.522-77.913l-22.26-11.13s-77.913 55.652-133.565 44.522v22.26h-22.26l-11.13-11.13-33.39 22.26z" fill="#ffda44"/></svg>