<svg xmlns="http://www.w3.org/2000/svg" viewBox="0 0 512 512" xmlns:v="https://vecta.io/nano"><path d="M233.74 278.26L74.98 74.98C121.306 28.654 185.307 0 256 0c141.384 0 256 114.616 256 256l-278.26 22.26z" fill="#338af3"/><path d="M233.74 256L74.98 437.02C121.306 483.346 185.307 512 256 512c141.384 0 256-114.616 256-256H233.74z" fill="#6da544"/><path d="M74.98 74.98c-99.974 99.974-99.974 262.065 0 362.04L256 256 74.98 74.98z" fill="#f0f0f0"/><path d="M103.6 189.217l16.575 51.016h53.646l-43.398 31.532 16.574 51.018-43.397-31.53-43.4 31.53 16.578-51.018-43.398-31.532h53.642z" fill="#d80027"/></svg>