<svg xmlns="http://www.w3.org/2000/svg" viewBox="0 0 512 512" xmlns:v="https://vecta.io/nano"><circle cx="256" cy="256" r="256" fill="#f0f0f0"/><path d="M200.35 222.6h309.484C493.47 97.002 386.067 0 256 0a256.9 256.9 0 0 0-55.652 6.085l.001 216.524zm-66.785-.002V31.127C63.272 69.48 12.95 139.832 2.167 222.6l131.398-.001zm-.001 66.782H2.167c10.783 82.777 61.105 153.128 131.398 191.48l-.001-191.48zm66.784.002v216.523A256.9 256.9 0 0 0 256 512c130.067 0 237.47-97.002 253.833-222.6l-309.485.001z" fill="#d80027"/></svg>