<svg xmlns="http://www.w3.org/2000/svg" viewBox="0 0 512 512" xmlns:v="https://vecta.io/nano"><circle cx="256" cy="256" r="256" fill="#f0f0f0"/><path d="M306.087 507.087c101.203-20.076 180.924-99.798 201-201h-201v201zm-301.174-201c20.075 101.202 99.797 180.924 201 201v-201h-201zm502.174-100.174c-20.076-101.202-99.797-180.924-201-201v201h201zm-301.174-201c-101.203 20.076-180.925 99.798-201 201h201v-201z" fill="#496e2d"/><path d="M239.304 306.087h-33.4v201c10.897 2.16 22.044 3.625 33.4 4.356V306.087zm0-100.174V.557c-11.347.73-22.495 2.195-33.4 4.356v201h33.4z" fill="#ffda44"/><path d="M272.696.557A258.65 258.65 0 0 0 256 0a258.65 258.65 0 0 0-16.696.557v205.357h33.4V.557zm-33.392 510.886c5.522.357 11.085.557 16.696.557s11.174-.2 16.696-.557V306.087h-33.4v205.356z"/><path d="M205.913 239.304v-33.4h-201C2.75 216.8 1.287 227.957.557 239.304h205.356zm100.174 0h205.357a256.13 256.13 0 0 0-4.356-33.39h-201v33.4z" fill="#ffda44"/><path d="M306.087 272.696h205.357A259.3 259.3 0 0 0 512 256c0-5.61-.2-11.175-.557-16.696H306.087v33.392zM.557 239.304C.2 244.825 0 250.4 0 256s.2 11.175.557 16.696h205.357v-33.4H.557z"/><circle cx="256" cy="256" r="122.435" fill="#d80027"/><path d="M283.894 269.66c-9.107-18.213-20.944-36.673-20.944-36.673l.294-13.413c0-7.544-6.116-13.66-13.66-13.66-7.147 0-13.003 5.5-13.6 12.482a10.77 10.77 0 0 0-10.067 10.741c0 4.153 2.353 7.752 5.797 9.55a15.52 15.52 0 0 1 9.21-8.555c.676.553 1.402 1.047 2.177 1.466l1.75.838s-6.5 18.3-6.5 28.117c0 27.624 18.214 36.143 18.214 36.143v.285l-9.107 9.106h18.213v-18.214l9.107 9.107c.08-.17 17.25-11.03 9.105-27.32zM256 155.826l4.144 12.754h13.4l-10.85 7.883 4.145 12.754-10.85-7.882-10.85 7.882 4.145-12.754-10.85-7.883h13.4zm-58.88 19.132l10.848 7.883 10.85-7.884-4.144 12.756 10.85 7.88-13.4.001-4.144 12.754-4.145-12.754-13.4-.001 10.85-7.883zm-36.4 50.087h13.4l4.145-12.754 4.144 12.754 13.4-.001-10.85 7.884 4.145 12.754-10.85-7.883-10.85 7.882 4.143-12.754zm0 61.9l10.848-7.88-4.144-12.755 10.85 7.883 10.85-7.883L185 279.074l10.85 7.883-13.412.001-4.144 12.753-4.145-12.755zm36.4 50.087l4.143-12.752-10.85-7.883h13.4l4.145-12.755 4.144 12.754h13.4l-10.85 7.884 4.144 12.753-10.85-7.883zM256 356.174l-4.144-12.752h-13.4l10.85-7.884-4.145-12.754 10.85 7.88 10.85-7.882-4.144 12.755 10.85 7.883h-13.4zm58.88-19.132l-10.848-7.882-10.85 7.884 4.143-12.754-10.85-7.883 13.4-.001 4.143-12.754 4.146 12.755h13.4l-10.85 7.883zm36.4-50.087h-13.4l-4.145 12.755-4.144-12.753h-13.41l10.85-7.884-4.145-12.753 10.85 7.882 10.848-7.882-4.142 12.754zm0-61.9l-10.848 7.882 4.143 12.754-10.85-7.882-10.85 7.884 4.144-12.755-10.85-7.882 13.412-.002 4.143-12.752 4.146 12.753zm-36.4-50.087l-4.143 12.753 10.85 7.883h-13.4l-4.144 12.755-4.145-12.754-13.4.001 10.85-7.885-4.144-12.752 10.85 7.88z" fill="#496e2d"/></svg>