<svg xmlns="http://www.w3.org/2000/svg" viewBox="0 0 512 512" xmlns:v="https://vecta.io/nano"><circle cx="256" cy="256" r="256" fill="#f0f0f0"/><path d="M8.82 322.783c23.638 87.703 92.695 156.76 180.4 180.4v-180.4H8.82z" fill="#d80027"/><path d="M189.217 8.82C101.514 32.456 32.456 101.514 8.82 189.217h180.4V8.82z" fill="#0052b4"/><path d="M503.18 189.217C479.544 101.514 410.486 32.456 322.783 8.82v180.4H503.18z" fill="#d80027"/><path d="M322.783 503.18c87.703-23.638 156.76-92.695 180.4-180.4h-180.4v180.4z" fill="#0052b4"/><path d="M322.783 256c0 36.884-29.9 66.783-66.783 66.783s-66.783-29.9-66.783-66.783S256 189.217 256 189.217s66.783 29.9 66.783 66.783z" fill="#496e2d"/><path d="M189.217 256c0-36.884 29.9-66.783 66.783-66.783s66.783 29.9 66.783 66.783" fill="#0052b4"/><path d="M218.435 222.61v41.74c0 20.747 16.818 37.565 37.565 37.565s37.565-16.818 37.565-37.565v-41.74h-75.13z" fill="#d80027"/></svg>