<svg height="512" viewBox="0 0 58 58" width="512" xmlns="http://www.w3.org/2000/svg"><g id="Page-1" fill="none" fill-rule="evenodd"><g id="029---World-Marker"><g fill-rule="nonzero"><circle id="Oval" cx="29" cy="29" fill="#2fa8cc" r="29"/><path id="Shape" d="m55.05 41.74c-3.8549508 7.8758711-11.0664825 13.5845896-19.6168949 15.5289246-8.5504124 1.9443351-17.521443-.0845232-24.4031051-5.5189246 14.1808522 3.9935557 29.3089694-1.7195285 37.31-14.09.613.399 5.688 3.467 6.71 4.08z" fill="#2980ba"/><path id="Shape" d="m58 29c.005919 4.416616-1.0033984 8.7754982-2.95 12.74-1.8-1.08-3.5933333-2.1666667-5.38-3.26-1.0133933-.5499234-1.9512102-1.2289163-2.79-2.02-.841482-.8039722-1.3455791-1.8979702-1.41-3.06-.01-2.1 1.83-3.67 3.4-5.08 1.5152852-1.1773478 2.646502-2.7784547 3.25-4.6.46-1.85-.27-4.12-2.06-4.81-.85-.32-1.87-.28-2.55-.9-.95-.85-.65-2.38-.26-3.61-1.1856914-.1878235-2.3817777.2692795-3.14 1.2-.7427788.9177645-1.6394638 1.6994031-2.65 2.31-1.08.48-2.66.1-2.9-1.06-.18-.9.52-1.71 1.09-2.43 1.6894369-2.1766199 2.6044075-4.85466844 2.6-7.61-.1206567-1.16237972-.0360356-2.33692088.25-3.47v-.01c9.5361176 5.01078152 15.5059301 14.8975613 15.5 25.67z" fill="#285680"/><path id="Shape" d="m29.5 36.27c-.2389078 1.8434181-.8332235 3.6229693-1.75 5.24-.82 1.7-1.65 3.41-2.47 5.12-.9 1.86-1.99 3.91-3.97 4.58-.4007508.1404515-.8281073.1883155-1.25.14-.1511983-.0152883-.2993953-.0523375-.44-.11-.1451818-.0493571-.2805704-.1238208-.4-.22-.6045625-.5894971-.8843644-1.4363641-.75-2.27.1439022-.8216686.1942233-1.6569986.15-2.49-.28-1.67-1.89-2.77-3.48-3.36s-3.31-.88-4.69-1.85c-1.38-.99-2.23-3.03-1.23-4.39.68-.92 1.97-1.24 2.63-2.17.94-1.35.14-3.18-.67-4.61-1.29951438-2.525753-2.91222638-4.8776247-4.8-7-1.17-1.2-2.55-2.28-3.23-3.81-.30680612-.6969517-.47005394-1.4485719-.48-2.21 4.36732622-9.51198227 13.5363467-15.91920347 23.97-16.75-.66 2.8-1.22 5.86.11 8.41.73 1.4 2.03 2.6 2.18 4.19.23 2.45-2.32 4.18-3.31 6.44-.63 1.44-.8 3.37-2.25 3.97-1.47.61-3.01-.64-4.59-.85-1.8147083-.1262112-3.4800245 1.0060385-4.03 2.74-.4036281 1.3940957-.1496031 2.8961567.69 4.08.1848597.2731622.3958533.5276942.63.76 1.3140303 1.2143159 3.0633507 1.845514 4.85 1.75 2.11-.07 4.35-.96 6.25-.02 1.6201966.9794454 2.5282115 2.8071664 2.33 4.69z" fill="#285680"/><path id="Shape" d="m55.05 41.74c-1-.6-6.089-3.676-6.71-4.08 2.8083154-4.3153986 4.5748221-9.2246439 5.16-14.34v-.02c.4088187-3.480079.2704782-7.0026999-.41-10.44.226.226 1.383 2.26 1.44 2.36 4.4316538 8.2410498 4.6251932 18.1115611.52 26.52z" fill="#2c3e50"/></g><path id="Shape" d="m41.355 57.133c.1884804.2218509.464894.3497166.756.3497166s.5675196-.1278657.756-.3497166c3.158-3.687 15.133-18.325 15.133-28.294 0-8.19-7.12-14.839-15.889-14.839s-15.889 6.649-15.889 14.839c0 9.969 11.978 24.607 15.133 28.294z" fill="#e64c3c"/><path id="Shape" d="m35 21.158c-.4387288.0001448-.8263161-.2856962-.9557916-.7048847-.1294756-.4191886.0294016-.873817.3917916-1.1211153 2.2639303-1.5349842 4.9398035-2.3480312 7.675-2.332.5522847 0 1 .4477153 1 1s-.4477153 1-1 1c-2.3329129-.014913-4.6156924.6767539-6.548 1.984-.1655704.1139758-.3619936.174682-.563.174z" fill="#fb7b76" fill-rule="nonzero"/><path id="Shape" d="m30.223 29.839c-.5522847 0-1-.4477153-1-1-.0006646-1.4498234.2869092-2.8853133.846-4.223.1311453-.3386741.4356003-.5796221.7953462-.6294429.359746-.0498208.7182237.0993184.936473.3896053.2182494.2902868.2619573.6760826.1141808 1.0078376-.4572311 1.0944642-.6924515 2.2688668-.692 3.455 0 .5522847-.4477153 1-1 1z" fill="#fb7b76" fill-rule="nonzero"/><circle id="Oval" cx="42" cy="30" fill="#f5efca" fill-rule="nonzero" r="7"/><path id="Shape" d="m58 28.84c0 9.97-11.97 24.61-15.13 28.29-.1871521.2233588-.4635981.3523864-.755.3523864s-.5678479-.1290276-.755-.3523864c-2.5446055-2.9779937-4.9248107-6.092624-7.13-9.33.3796376-1.8385321 1.2113518-3.5535131 2.42-4.99 2.62-3.1 6.94-3.81 10.14-6.09 3.93-2.79 4.26-7.77 2.12-11.87-2.27-4.36-6.43-7.74-10.64-10.41 1.2586249-.2949744 2.5472743-.4426321 3.84-.44 8.77 0 15.89 6.65 15.89 14.84z" fill="#c03a2b"/></g></g></svg>