<svg xmlns="http://www.w3.org/2000/svg" height="512" viewBox="0 0 58 58" width="512" fill="none" fill-rule="evenodd" xmlns:v="https://vecta.io/nano"><g fill-rule="nonzero"><circle cx="29" cy="29" fill="#2fa8cc" r="29"/><path d="M55.05 41.74a29 29 0 0 1-44.02 10.01 33.59 33.59 0 0 0 37.31-14.09l6.7 4.08z" fill="#2980ba"/><path d="M58 29a28.82 28.82 0 0 1-2.95 12.74l-5.38-3.26a13.34 13.34 0 0 1-2.79-2.02c-.84-.804-1.346-1.898-1.4-3.06-.01-2.1 1.83-3.67 3.4-5.08a9.68 9.68 0 0 0 3.25-4.6c.46-1.85-.27-4.12-2.06-4.8-.85-.32-1.87-.28-2.55-.9-.95-.85-.65-2.38-.26-3.6a3.37 3.37 0 0 0-3.14 1.2c-.743.918-1.64 1.7-2.65 2.3-1.08.48-2.66.1-2.9-1.06-.18-.9.52-1.7 1.1-2.43a12.38 12.38 0 0 0 2.6-7.61 9.97 9.97 0 0 1 .25-3.47v-.01A28.98 28.98 0 0 1 58 29zm-28.5 7.27a14.37 14.37 0 0 1-1.75 5.24l-2.47 5.12c-.9 1.86-2 3.9-3.97 4.58a2.81 2.81 0 0 1-1.25.14 1.58 1.58 0 0 1-.44-.11 1.31 1.31 0 0 1-.4-.22c-.605-.6-.884-1.436-.75-2.27a11.04 11.04 0 0 0 .15-2.49c-.28-1.67-1.9-2.77-3.48-3.36s-3.3-.88-4.7-1.85c-1.38-1-2.23-3.03-1.23-4.4.68-.92 1.97-1.24 2.63-2.17.94-1.35.14-3.18-.67-4.6a33.8 33.8 0 0 0-4.8-7c-1.17-1.2-2.55-2.28-3.23-3.8a5.67 5.67 0 0 1-.48-2.21A28.9 28.9 0 0 1 26.64.11c-.66 2.8-1.22 5.86.1 8.4.73 1.4 2.03 2.6 2.18 4.2.23 2.45-2.32 4.18-3.3 6.44-.63 1.44-.8 3.37-2.25 3.97-1.47.6-3-.64-4.6-.85a3.94 3.94 0 0 0-4.03 2.74 4.73 4.73 0 0 0 .7 4.08c.185.273.396.528.63.76 1.314 1.214 3.063 1.846 4.85 1.75 2.1-.07 4.35-.96 6.25-.02a4.89 4.89 0 0 1 2.33 4.7z" fill="#285680"/><path d="M55.05 41.74l-6.7-4.08a33.21 33.21 0 0 0 5.16-14.34v-.02c.41-3.48.27-7.003-.4-10.44.226.226 1.383 2.26 1.44 2.36a29.07 29.07 0 0 1 .52 26.52z" fill="#2c3e50"/></g><path d="M41.355 57.133a.99.99 0 0 0 1.512 0C46.025 53.446 58 38.808 58 28.84 58 20.65 50.88 14 42.11 14s-15.89 6.65-15.89 14.84c0 9.97 11.978 24.607 15.133 28.294z" fill="#e64c3c"/><g fill-rule="nonzero"><path d="M35 21.158a1 1 0 0 1-.564-1.826c2.264-1.535 4.94-2.348 7.675-2.332a1 1 0 1 1 0 2c-2.333-.015-4.616.677-6.548 1.984-.166.114-.362.175-.563.174zm-4.777 8.682a1 1 0 0 1-1-1 10.94 10.94 0 0 1 .846-4.223 1 1 0 1 1 1.846.768 8.97 8.97 0 0 0-.692 3.455 1 1 0 0 1-1 1z" fill="#fb7b76"/><circle cx="42" cy="30" fill="#f5efca" r="7"/></g><path d="M58 28.84c0 9.97-11.97 24.6-15.13 28.3-.187.223-.464.352-.755.352s-.568-.13-.755-.352c-2.545-2.978-4.925-6.093-7.13-9.33a11.3 11.3 0 0 1 2.42-4.99c2.62-3.1 6.94-3.8 10.14-6.1 3.93-2.8 4.26-7.77 2.12-11.87-2.27-4.36-6.43-7.74-10.64-10.4a16.68 16.68 0 0 1 3.84-.44C50.88 14 58 20.65 58 28.84z" fill="#c03a2b"/></svg>