<svg xmlns="http://www.w3.org/2000/svg" viewBox="0 0 512 512" xmlns:v="https://vecta.io/nano"><path d="M0 256C0 114.616 114.616 0 256 0s256 114.616 256 256l-256 22.26L0 256z" fill="#ffda44"/><path d="M34.256 384C78.52 460.516 161.245 512 256 512s177.48-51.484 221.744-128L256 367.304 34.256 384z" fill="#d80027"/><path d="M477.744 384C499.526 346.346 512 302.63 512 256H0c0 46.63 12.474 90.346 34.256 128h443.488z" fill="#0052b4"/><circle cx="256" cy="256" r="89.043" fill="#ffda44"/><path d="M256 311.652c-30.687 0-55.652-24.966-55.652-55.652v-33.39c0-30.687 24.966-55.652 55.652-55.652s55.652 24.966 55.652 55.652V256c0 30.687-24.965 55.652-55.652 55.652z" fill="#338af3"/><path d="M345.043 122.435H278.26c0-12.294-9.967-22.26-22.26-22.26s-22.26 9.967-22.26 22.26h-66.783c0 12.295 10.71 22.26 23.002 22.26h-.74c0 12.295 9.966 22.26 22.26 22.26 0 12.295 9.966 22.26 22.26 22.26h44.522c12.295 0 22.26-9.966 22.26-22.26 12.295 0 22.26-9.966 22.26-22.26h-.74c12.294 0 23.002-9.967 23.002-22.26z"/></svg>