<svg xmlns="http://www.w3.org/2000/svg" viewBox="0 0 512 512" xmlns:v="https://vecta.io/nano"><path d="M233.74 233.74L74.98 437.02C121.306 483.346 185.307 512 256 512c141.384 0 256-114.616 256-256l-278.26-22.26z" fill="#338af3"/><path d="M233.74 256L74.98 74.98C121.306 28.654 185.307 0 256 0c141.384 0 256 114.616 256 256H233.74z" fill="#6da544"/><path d="M74.98 74.98c-99.974 99.974-99.974 262.065 0 362.04C74.973 437.06 512 256 512 256L74.98 74.98z" fill="#d80027"/><path d="M133.565 150.26c-49.1 0-89.043 39.945-89.043 89.043v33.39c0 49.1 39.945 89.043 89.043 89.043s89.043-39.945 89.043-89.043v-33.39c.001-49.098-39.944-89.043-89.043-89.043zm55.652 122.435c0 24.872-16.402 45.98-38.957 53.1v-36.394l23.624-23.624-23.61-23.61-.013-8.403V222.6h-33.4V256l-23.608 23.607 23.608 23.607v22.573c-22.555-7.11-38.957-28.218-38.957-53.1v-33.39c0-30.687 24.966-55.652 55.652-55.652s55.652 24.966 55.652 55.652v33.4z" fill="#ffda44"/></svg>