<svg xmlns="http://www.w3.org/2000/svg" viewBox="0 0 512 512" xmlns:v="https://vecta.io/nano"><path d="M512 256c0 141.384-114.616 256-256 256S0 397.384 0 256C0 256.06 256 .028 256 0c141.384 0 256 114.616 256 256z" fill="#338af3"/><path d="M256 122.435v86.343l-89.043-86.343zM133.565 256h75.212l-75.212-100.174-11.13 77.913z" fill="#0052b4"/><g fill="#f0f0f0"><path d="M256 0h-.043.043zm-.685 256H256v-.685l-.685.685z"/><path d="M256 133.565L255.957 0C114.592.024 0 114.63 0 256h133.565v-75.21L208.777 256h46.54l.685-.685v-46.537l-75.214-75.213H256z"/></g><path d="M129.515 33.4a257.39 257.39 0 0 0-96.125 96.125V256h66.783V100.174H256V33.4H129.515zM256 224.52l-90.953-90.953-31.48.002L256 256v-31.48z" fill="#d80027"/><path d="M289.39 166.957V256c0 59.64 77.913 77.914 77.913 77.914S445.217 315.64 445.217 256v-89.042l-77.913-22.26-77.913 22.26z" fill="#f3f3f3"/><path d="M445.217 166.957v-33.39H289.39v33.39h66.78v66.784h-66.78V256l66.78.003V330.5c6.718 2.376 11.132 3.414 11.132 3.414s4.412-1.036 11.13-3.414v-74.498l66.784-.002v-22.26h-66.784v-66.784h66.784z" fill="#d80027"/></svg>