<svg xmlns="http://www.w3.org/2000/svg" viewBox="0 0 512 512" xmlns:v="https://vecta.io/nano"><circle cx="256" cy="256" r="256" fill="#f0f0f0"/><path d="M52.92 100.142c-20.1 26.163-35.272 56.318-44.1 89.077h133.178L52.92 100.142zm450.26 89.078c-8.83-32.758-23.993-62.913-44.1-89.076l-89.075 89.076H503.18zM8.82 322.784c8.83 32.758 23.993 62.913 44.1 89.075l89.074-89.075H8.82zM411.858 52.92c-26.163-20.108-56.318-35.27-89.076-44.1v133.177l89.076-89.075zM100.142 459.08c26.163 20.1 56.318 35.272 89.076 44.102V370.005l-89.076 89.074zM189.217 8.82c-32.758 8.83-62.913 23.993-89.075 44.1l89.075 89.075V8.82zm133.566 494.36c32.758-8.83 62.913-23.993 89.075-44.1l-89.075-89.075V503.18zm47.222-180.396l89.075 89.076c20.108-26.162 35.272-56.318 44.1-89.076H370.005z" fill="#0052b4"/><path d="M509.833 222.6h-220.44V2.167C278.46.744 267.317 0 256 0s-22.46.744-33.4 2.167v220.44H2.167C.744 233.54 0 244.683 0 256s.744 22.46 2.167 33.4h220.44v220.442A258.38 258.38 0 0 0 256 512a258.35 258.35 0 0 0 33.391-2.167v-220.44h220.442A258.56 258.56 0 0 0 512 256a258.53 258.53 0 0 0-2.167-33.391zm-187.05 100.174h0L437.02 437.02c5.254-5.252 10.266-10.743 15.048-16.435l-97.802-97.802-31.482.001zm-133.566 0h-.002L74.98 437.02c5.252 5.254 10.743 10.266 16.435 15.048l97.802-97.804v-31.48zm0-133.564v-.002L74.98 74.98c-5.254 5.252-10.266 10.743-15.048 16.435l97.803 97.803h31.48zm133.566 0h0L437.02 74.98c-5.252-5.254-10.743-10.266-16.435-15.047l-97.802 97.803v31.482z" fill="#d80027"/></svg>