<svg xmlns="http://www.w3.org/2000/svg" viewBox="0 0 512 512" xmlns:v="https://vecta.io/nano"><circle cx="256" cy="256" r="256" fill="#ffda44"/><path d="M111.713 44.522C152.798 16.436 202.476 0 256 0s103.202 16.436 144.287 44.522L256 55.652l-144.287-11.13z" fill="#a2001d"/><path d="M256 256l-16.338-16.338-4.338 7.77z" fill="#0052b4"/><g fill="#496e2d"><path d="M74.98 74.98c-99.974 99.974-99.974 262.065 0 362.04L256 256 74.98 74.98z"/><path d="M437.02 74.98c99.974 99.974 99.974 262.065 0 362.04L256 256 437.02 74.98z"/></g><circle cx="256" cy="256" r="89.043" fill="#a2001d"/><path d="M256 166.957l19.96 61.43h64.598L288.3 266.36l19.96 61.432L256 289.825l-52.26 37.966 19.963-61.432-52.258-37.973h64.594zM256 0l-.086.002h.17C256.057.002 256.03 0 256 0z" fill="#ffda44"/><path d="M256.086 0h-.17C185.262.023 121.3 28.666 74.994 74.968h362.013C390.7 28.666 326.738.023 256.086 0zM74.995 437.033C121.32 483.352 185.315 512 256 512s134.68-28.648 181.005-74.967h-362z" fill="#a2001d"/><path d="M256 27.826l4.145 12.754h13.4l-10.85 7.883 4.145 12.754L256 53.335l-10.85 7.882 4.145-12.754-10.85-7.883h13.4zm-62.077 0l4.145 12.754h13.4l-10.85 7.883 4.145 12.754-10.85-7.882-10.848 7.882 4.144-12.754-10.85-7.883h13.4zm124.154 0l4.145 12.754h13.4l-10.85 7.883 4.145 12.754-10.85-7.882-10.85 7.882 4.145-12.754-10.85-7.883h13.4zM256 450.783l4.145 12.754h13.4l-10.85 7.883 4.145 12.754L256 476.3l-10.85 7.883 4.145-12.754-10.85-7.883h13.4zm-62.077 0l4.145 12.754h13.4l-10.85 7.883 4.145 12.754-10.85-7.883-10.848 7.883 4.144-12.754-10.85-7.883h13.4zm124.154 0l4.145 12.754h13.4l-10.85 7.883 4.145 12.754-10.85-7.883-10.85 7.883 4.145-12.754-10.85-7.883h13.4zM78.003 251.772c6.575 10.4 3.485 24.14-6.904 30.716s-24.14 3.486-30.716-6.903c-11.905-18.808-5.002-49.525-5.002-49.525s30.716 6.903 42.622 25.712z" fill="#ffda44"/><circle cx="65.146" cy="273.085" r="11.13" fill="#a2001d"/></svg>