<svg xmlns="http://www.w3.org/2000/svg" viewBox="0 0 512 512" xmlns:v="https://vecta.io/nano"><circle cx="256" cy="256" r="256" fill="#f0f0f0"/><path d="M509.833 222.6h-220.44V2.167C278.46.744 267.317 0 256 0a258.53 258.53 0 0 0-33.391 2.167v220.44H2.167C.744 233.54 0 244.683 0 256s.744 22.46 2.167 33.4h220.44v220.442C233.54 511.256 244.683 512 256 512a258.35 258.35 0 0 0 33.391-2.167v-220.44h220.442A258.56 258.56 0 0 0 512 256a258.53 258.53 0 0 0-2.167-33.391zM155.826 122.435V89.043h-33.4v33.392H89.043v33.4h33.392v33.4h33.4v-33.4h33.4v-33.4zm233.74 0V89.043h-33.4v33.392h-33.4v33.4h33.4v33.4h33.4v-33.4h33.392v-33.4zm-233.74 233.74v-33.4h-33.4v33.4H89.043v33.4h33.392v33.392h33.4v-33.392h33.4v-33.4zm233.74 0v-33.4h-33.4v33.4h-33.4v33.4h33.4v33.392h33.4v-33.392h33.392v-33.4z" fill="#d80027"/></svg>