<svg xmlns="http://www.w3.org/2000/svg" viewBox="0 0 512 512" xmlns:v="https://vecta.io/nano"><circle cx="256" cy="256" r="256" fill="#f0f0f0"/><path d="M509.833 222.61h-220.44V2.167C278.46.744 267.317 0 256 0a258.53 258.53 0 0 0-33.391 2.167V222.61H2.167A258.53 258.53 0 0 0 0 256a258.53 258.53 0 0 0 2.167 33.391h220.44v220.442C233.54 511.256 244.683 512 256 512a258.35 258.35 0 0 0 33.391-2.167v-220.44h220.442C511.256 278.46 512 267.317 512 256a258.53 258.53 0 0 0-2.167-33.391z" fill="#d80027"/><path d="M328.348 267.13l16.695 11.13V233.74l-16.695 11.13H267.13v-61.218l11.13-16.695H233.74l11.13 16.695v61.218h-61.218l-16.695-11.13v44.522l16.695-11.13h61.218v61.218l-11.13 16.695h44.522l-11.13-16.695V267.13z" fill="#ffda44"/></svg>