<svg xmlns="http://www.w3.org/2000/svg" viewBox="0 0 512 512" xmlns:v="https://vecta.io/nano"><circle cx="256" cy="256" r="256" fill="#f9f9f9"/><path d="M256 512c110.07 0 203.906-69.472 240.076-166.957H15.922C52.094 442.528 145.928 512 256 512zm100.174-300.522v-33.4h11.13v-22.26h-22.26v11.13h-22.26v-11.13h-22.26v22.26h11.13v33.4h-22.26v-77.9h11.13v-22.26h-22.26v11.128h-11.13v-11.128h-22.26v11.128h-11.13v-11.128h-22.26v22.26h11.13v77.9h-22.26v-33.4h11.13v-22.26h-22.26v11.13h-22.26v-11.13h-22.26v22.26h11.13v33.4h-22.26v89.044h244.87v-89.044z" fill="#d80027"/><path d="M256 289.39c-18.44 0-33.39 14.95-33.39 33.39 0 14.536 9.294 26.9 22.26 31.484v46.43h-33.39v44.522h55.652v-90.95c12.967-4.584 22.26-16.947 22.26-31.484-.001-18.44-14.95-33.392-33.392-33.392zm0 44.522c-6.147 0-11.13-4.984-11.13-11.13s4.983-11.13 11.13-11.13 11.13 4.983 11.13 11.13-4.983 11.13-11.13 11.13z" fill="#ffda44"/></svg>