<svg xmlns="http://www.w3.org/2000/svg" viewBox="0 0 512 512" xmlns:v="https://vecta.io/nano"><circle cx="256" cy="256" r="256" fill="#f0f0f0"/><g fill="#338af3"><path d="M256 189.217h247.18a254.56 254.56 0 0 0-28.755-66.783H256v66.783zM96.643 456.348h318.713c23.363-18.608 43.4-41.2 59.07-66.783H37.574c15.67 25.572 35.707 48.175 59.07 66.783z"/><path d="M89.043 61.94c-20.126 17.33-37.525 37.74-51.47 60.496h51.47V61.94zM256 256v-66.783H155.826V256H89.043v-66.783H8.82A256.28 256.28 0 0 0 0 256a256.28 256.28 0 0 0 8.819 66.783h494.363C508.92 301.5 512 279.107 512 256H256zm0-256c-35.55 0-69.404 7.253-100.174 20.348v102.087H256V55.652h159.357C371.626 20.824 316.25 0 256 0z"/></g></svg>