<svg xmlns="http://www.w3.org/2000/svg" viewBox="0 0 512 512" xmlns:v="https://vecta.io/nano"><circle cx="256" cy="256" r="256" fill="#f0f0f0"/><path d="M512 256c0-101.494-59.065-189.2-144.696-230.598v461.195C452.935 445.2 512 357.493 512 256zM0 256c0 101.493 59.065 189.2 144.696 230.598V25.402C59.065 66.8 0 154.506 0 256z" fill="#338af3"/><path d="M322.898 299.288l-43.286-43.286 41.203-41.205-1.867-21.762-11.796-11.798L256 232.39l-51.152-51.152-11.796 11.798-1.867 21.762 41.203 41.205-43.287 43.286 23.612 23.6L256 279.613l43.287 43.285z" fill="#acabb1"/><path d="M318.963 193.037l-23.61 23.61c10.07 10.07 16.3 23.984 16.3 39.352 0 30.736-24.917 55.652-55.652 55.652S200.348 286.736 200.348 256c0-15.368 6.23-29.28 16.3-39.352l-23.61-23.61c-16.115 16.112-26.08 38.373-26.08 62.963 0 49.178 39.866 89.043 89.043 89.043s89.043-39.866 89.043-89.043c0-24.59-9.966-46.85-26.08-62.963z" fill="#6da544"/></svg>