<svg xmlns="http://www.w3.org/2000/svg" viewBox="0 0 512 512" xmlns:v="https://vecta.io/nano"><path d="M256 0a256.28 256.28 0 0 0-66.783 8.819L166.957 256l22.26 247.18C210.5 508.92 232.894 512 256 512c141.384 0 256-114.616 256-256S397.384 0 256 0z" fill="#ffda44"/><path d="M166.957 256l22.26 247.18C210.5 508.92 232.894 512 256 512c141.384 0 256-114.616 256-256H166.957z" fill="#6da544"/><g fill="#d80027"><path d="M0 256c0 97.035 54 181.455 133.565 224.873V31.127C54 74.545 0 158.965 0 256z"/><path d="M0 256c0 118.28 80.22 217.805 189.217 247.18V8.82C80.22 38.195 0 137.72 0 256z"/></g><path d="M96.736 189.217l16.575 51.016h53.646l-43.398 31.532 16.574 51.018-43.397-31.53-43.4 31.53 16.578-51.018-43.398-31.532H80.16z"/></svg>