<svg xmlns="http://www.w3.org/2000/svg" viewBox="0 0 512 512" xmlns:v="https://vecta.io/nano"><circle cx="256" cy="256" r="256" fill="#d80027"/><path d="M282.43 193.668c-5.818 24.2-16.155 19.584-21.228 40.688-29.883-7.185-48.287-37.235-41.102-67.12s37.235-48.287 67.12-41.102c-10.147 42.207.416 45.9-4.8 67.534zM204.887 211.6c21.217 13 13.633 21.417 32.135 32.764-16.068 26.2-50.333 34.416-76.535 18.35s-34.418-50.334-18.35-76.535c37.006 22.692 43.77 13.785 62.75 25.422zm-6.91 79.292c18.93-16.158 24.58-6.348 41.1-20.438 19.955 23.377 17.18 58.505-6.197 78.46s-58.506 17.176-78.458-6.2c33.014-28.183 26.633-37.372 43.566-51.823zm73.276 31.073c-9.52-22.997 1.556-25.34-6.743-45.394 28.4-11.753 60.95 1.74 72.705 30.14s-1.743 60.95-30.142 72.704c-16.597-40.1-27.306-36.88-35.82-57.45zm52.196-60.09c-24.813 1.947-23.622-9.313-45.257-7.615-2.403-30.64 20.5-57.43 51.132-59.835s57.43 20.493 59.832 51.135c-43.277 3.393-43.516 14.576-65.707 16.315z" fill="#f0f0f0"/></svg>