<svg xmlns="http://www.w3.org/2000/svg" viewBox="0 0 512 512" xmlns:v="https://vecta.io/nano"><circle cx="256" cy="256" r="256" fill="#f0f0f0"/><path d="M256 512c101.493 0 189.2-59.065 230.598-144.696H25.402C66.8 452.935 154.506 512 256 512zm0-512C154.506 0 66.8 59.065 25.402 144.696h461.195C445.2 59.065 357.493 0 256 0zm-98.455 166.957l8.288 25.5h26.82l-21.698 15.764 8.3 25.5-21.7-15.765-21.7 15.765 8.3-25.5-21.7-15.764h26.82zm0 111.303l8.288 25.5h26.82l-21.698 15.764 8.3 25.508-21.7-15.765-21.7 15.765 8.3-25.508-21.7-15.764h26.82zm196.9-111.303l8.3 25.5h26.82l-21.7 15.764 8.3 25.5-21.7-15.765-21.7 15.765 8.3-25.5-21.7-15.764h26.822zm0 111.303l8.3 25.5h26.82l-21.7 15.764 8.3 25.508-21.7-15.765-21.7 15.765 8.3-25.508-21.7-15.764h26.822zM256 222.6l8.3 25.5h26.82l-21.7 15.764 8.3 25.508-21.7-15.765-21.7 15.765 8.3-25.508-21.7-15.764h26.82z" fill="#338af3"/></svg>