<svg xmlns="http://www.w3.org/2000/svg" viewBox="0 0 512 512" xmlns:v="https://vecta.io/nano"><path d="M512 256c0-31.314-5.633-61.31-15.923-89.043L256 155.826l-240.077 11.13C5.633 194.69 0 224.686 0 256s5.633 61.31 15.923 89.043L256 356.174l240.077-11.13C506.367 317.31 512 287.314 512 256z" fill="#f0f0f0"/><path d="M256 512c110.07 0 203.906-69.472 240.077-166.957H15.923C52.094 442.528 145.93 512 256 512z" fill="#0052b4"/><path d="M15.923 166.957h480.155C459.906 69.472 366.07 0 256 0S52.094 69.472 15.923 166.957z" fill="#d80027"/><path d="M322.783 178.088H278.26l7.42-55.653 29.68-22.26 29.68 22.26v44.522zm-133.566 0h44.522l-7.42-55.653-29.68-22.26-29.68 22.26v44.522z" fill="#338af3"/><path d="M285.682 178.088h-59.364v-55.653L256 100.174l29.682 22.26z" fill="#0052b4"/><path d="M166.957 166.958v122.434c0 29.153 14.082 55.08 35.802 71.332l15.583-3.9 19.664 19.782a89.1 89.1 0 0 0 17.995 1.829c6.13 0 12.117-.623 17.9-1.81l22.447-18.7 12.892 2.75c21.71-16.252 35.803-42.15 35.803-71.296V166.958H166.957z" fill="#f0f0f0"/><g fill="#d80027"><path d="M166.957 166.957h35.617v35.617h-35.617zm71.233 0h35.617v35.617H238.2z"/><path d="M309.426 166.957h35.617v35.617h-35.617zm-106.852 35.617h35.617v35.617h-35.617z"/><path d="M273.8 202.574h35.617v35.617H273.8zM166.957 238.18h35.617v35.617h-35.617z"/><path d="M202.574 273.798h35.617v35.617h-35.617z"/><path d="M238.2 238.18h35.617v35.617H238.2zm71.236 0h35.617v35.617h-35.617z"/><path d="M273.81 273.798h35.617v35.617H273.81z"/><path d="M238.2 309.415h35.617v35.617H238.2zm-35.616.003h-33.32c3.056 13.24 9.064 25.355 17.302 35.617h16.017v-35.617z"/><path d="M309.426 345.036h16.016a88.75 88.75 0 0 0 17.302-35.617h-33.318v35.617zm-106.852 0v15.54c10.36 7.795 22.465 13.384 35.617 16.066v-31.607h-35.617z"/><path d="M273.81 345.036v31.607c13.153-2.68 25.258-8.27 35.617-16.066v-15.54H273.81z"/></g></svg>