<svg xmlns="http://www.w3.org/2000/svg" viewBox="0 0 512 512" xmlns:v="https://vecta.io/nano"><path d="M512,256c0,141.384-114.616,256-256,256S0,397.384,0,256S256,0,256,0S512,114.616,512,256z" fill="#a2001d"/><path d="M0,256C0,114.616,114.616,0,256,0s256,114.616,256,256" fill="#0052b4"/><path d="M345.043 322.783L256 311.652l-89.043 11.13V189.217h178.086z" fill="#f0f0f0"/><circle cx="256" cy="267.13" r="44.522" fill="#0052b4"/><circle cx="256" cy="267.13" r="22.261" fill="#a2001d"/><path d="M222.61 211.478h66.782L256 244.87z" fill="#6da544"/><path d="M244.87 233.74h22.26v66.783h-22.26z" fill="#ffda44"/><path d="M291.617 293.843H220.38l-53.424 28.94h178.086z" fill="#6da544"/></svg>