<svg xmlns="http://www.w3.org/2000/svg" viewBox="0 0 512 512" xmlns:v="https://vecta.io/nano"><circle cx="256" cy="256" r="256" fill="#f0f0f0"/><path d="M352.393 200.348H288.13L256 144.696l-32.13 55.652h-64.264L191.74 256l-32.134 55.652h64.264L256 367.304l32.13-55.652h64.263L320.26 256l32.134-55.652zM295.475 256l-19.736 34.188h-39.475L216.525 256l19.738-34.188h39.475L295.475 256zM256 187.623l7.346 12.724h-14.7L256 187.623zm-59.214 34.2h14.692l-7.346 12.724-7.346-12.724zm0 68.376l7.347-12.724 7.346 12.724h-14.693zM256 324.376l-7.345-12.724h14.7L256 324.376zm59.214-34.188h-14.692l7.347-12.724 7.345 12.724zm-14.692-68.376h14.692l-7.346 12.724-7.346-12.724zm114.835-166.16H96.643c-23.363 18.608-43.4 41.2-59.07 66.783h436.852c-15.67-25.572-35.707-48.175-59.07-66.783zM96.643 456.348h318.713c23.363-18.608 43.4-41.2 59.07-66.783H37.574c15.67 25.572 35.707 48.175 59.07 66.783z" fill="#0052b4"/></svg>