<svg xmlns="http://www.w3.org/2000/svg" viewBox="0 0 512 512" xmlns:v="https://vecta.io/nano"><circle cx="256" cy="256" r="256" fill="#f0f0f0"/><g fill="#0052b4"><path d="M469.33 286.637c-21.333 0-21.333-19.506-42.667-19.506s-21.333 19.506-42.665 19.506-21.333-19.506-42.665-19.506-21.333 19.506-42.667 19.506-21.335-19.506-42.67-19.506-21.333 19.506-42.665 19.506S192 267.13 170.668 267.13s-21.335 19.506-42.67 19.506-21.335-19.506-42.67-19.506c-21.33 0-21.33 19.506-42.663 19.506-21.218 0-21.34-19.3-42.332-19.497a256.24 256.24 0 0 0 4.103 34.449c17.004 2.497 18.493 19.18 38.23 19.18C64 320.77 64 301.265 85.33 301.265S106.665 320.77 128 320.77s21.335-19.504 42.67-19.504 21.333 19.504 42.663 19.504 21.333-19.504 42.665-19.504 21.335 19.504 42.67 19.504 21.335-19.504 42.667-19.504S362.668 320.77 384 320.77s21.333-19.504 42.665-19.504S448 320.77 469.332 320.77c19.74 0 21.228-16.682 38.233-19.18a256.74 256.74 0 0 0 4.105-34.45c-20.996.207-21.12 19.497-42.34 19.497zm-42.667 47.276c-21.333 0-21.333 19.506-42.665 19.506s-21.333-19.506-42.665-19.506S320 353.42 298.666 353.42s-21.335-19.506-42.67-19.506-21.333 19.506-42.665 19.506-21.33-19.506-42.663-19.506-21.335 19.506-42.67 19.506-21.335-19.506-42.67-19.506c-21.33 0-21.33 19.506-42.663 19.506-15.715 0-19.864-10.578-29.487-16.15a254.72 254.72 0 0 0 22.728 49.522c2.002.483 4.228.76 6.758.76 21.333 0 21.333-19.504 42.663-19.504 21.335 0 21.335 19.504 42.67 19.504s21.335-19.504 42.67-19.504S192 387.552 213.33 387.552s21.333-19.504 42.665-19.504 21.335 19.504 42.67 19.504 21.335-19.504 42.667-19.504 21.333 19.504 42.665 19.504 21.333-19.504 42.665-19.504 21.335 19.504 42.667 19.504c2.532 0 4.76-.278 6.763-.762 9.246-15.523 16.9-32.102 22.727-49.52-9.623 5.572-13.773 16.15-29.5 16.15-21.33-.001-21.33-19.507-42.666-19.507zm79.38-132.973c-15.594 3.237-17.582 18.913-36.714 18.913-21.333 0-21.333-19.506-42.667-19.506s-21.333 19.506-42.665 19.506-21.333-19.506-42.665-19.506-21.333 19.506-42.667 19.506-21.335-19.506-42.67-19.506c-11.527 0-16.827 5.694-22.628 10.93V245.4c5.8-5.235 11.1-10.928 22.628-10.928 21.335 0 21.335 19.504 42.67 19.504s21.335-19.504 42.667-19.504 21.333 19.504 42.665 19.504 21.333-19.504 42.665-19.504 21.335 19.504 42.667 19.504c19.74 0 21.228-16.682 38.233-19.18l3.555-.026a255.51 255.51 0 0 0-5.074-33.84zm-18.7-54.666c-4.42 3.713-9.53 6.797-18.013 6.797-21.333 0-21.333-19.506-42.667-19.506S405.33 153.07 384 153.07s-21.333-19.506-42.665-19.506S320 153.07 298.667 153.07s-21.335-19.506-42.67-19.506c-11.527 0-16.827 5.694-22.628 10.93v34.133c5.8-5.235 11.1-10.928 22.628-10.928 21.335 0 21.335 19.504 42.67 19.504S320 167.7 341.333 167.7s21.333 19.504 42.665 19.504S405.33 167.7 426.663 167.7s21.335 19.504 42.667 19.504c15.137 0 19.546-9.805 28.446-15.507-3.033-8.697-6.516-17.182-10.432-25.423zm-58.86-79.44l-1.822-.052c-21.333 0-21.333 19.506-42.665 19.506s-21.333-19.506-42.665-19.506S320 86.3 298.665 86.3s-21.335-19.506-42.67-19.506c-11.527 0-16.827 5.694-22.628 10.93v34.133c5.8-5.235 11.1-10.928 22.628-10.928 21.335 0 21.335 19.504 42.67 19.504S320 100.92 341.332 100.92s21.333 19.504 42.665 19.504 21.333-19.504 42.665-19.504 21.335 19.504 42.667 19.504c1.314 0 2.54-.078 3.703-.217a257.21 257.21 0 0 0-44.547-53.37zM255.996 0h-.004.005z"/><path d="M321.432 8.454c-5.856 5.268-11.148 11.054-22.767 11.054-21.335 0-21.335-19.504-42.67-19.506h-.004C244.96.003 239.634 5.22 234.1 10.26v34.134c5.523-5.04 10.85-10.257 21.886-10.257 21.335 0 21.335 19.504 42.67 19.504S320 34.136 341.333 34.136s21.333 19.504 42.665 19.504c8.95 0 14.143-3.436 18.735-7.422-24.336-17.055-51.774-29.98-81.3-37.764zm-22.767 478.53c-21.335 0-21.335-19.506-42.67-19.506s-21.333 19.506-42.665 19.506-21.33-19.506-42.663-19.506c-16.34 0-20.174 11.434-30.654 16.792 28.9 14.714 60.967 24.093 94.907 26.86 5.25-4.796 10.58-9.518 21.075-9.518s15.83 4.722 21.08 9.52a254.44 254.44 0 0 0 94.91-26.86c-10.482-5.357-14.314-16.794-30.653-16.794-21.332.001-21.332 19.507-42.667 19.507zm85.333-66.782c-21.333 0-21.333-19.506-42.665-19.506S320 420.202 298.666 420.202s-21.335-19.506-42.67-19.506-21.333 19.506-42.665 19.506-21.33-19.506-42.663-19.506-21.335 19.506-42.67 19.506-21.335-19.506-42.67-19.506c-15.34 0-19.65 10.1-28.794 15.755 5.732 7.118 11.826 13.932 18.275 20.392 2.9-1.234 6.28-2.013 10.518-2.013 21.335 0 21.335 19.504 42.67 19.504s21.335-19.504 42.67-19.504S192 454.334 213.33 454.334s21.333-19.504 42.665-19.504 21.335 19.504 42.67 19.504S320 434.83 341.332 434.83s21.333 19.504 42.665 19.504 21.333-19.504 42.665-19.504c4.244 0 7.634.78 10.525 2.015 6.45-6.46 12.544-13.275 18.276-20.393-9.146-5.664-13.454-15.755-28.8-15.755-21.333-.001-21.333 19.505-42.665 19.505z"/></g><path d="M256 0h-.043.043zm-.685 256H256v-.685l-.685.685z" fill="#f0f0f0"/><path d="M289.39 256h0 0z" fill="#496e2d"/><path d="M256 133.565v75.213l-89.043-86.343zM133.566 256h75.2l-75.2-100.174-11.13 77.913z" fill="#0052b4"/><path d="M256 133.565L255.957 0C114.592.024 0 114.63 0 256h133.566v-75.21l75.2 75.21h46.54l.685-.685v-46.537l-75.213-75.213H256z" fill="#f0f0f0"/><path d="M129.515 33.4a257.39 257.39 0 0 0-96.125 96.125V256h66.783V100.174H256V33.4H129.515zM256 224.52l-90.955-90.953-31.48.002L256 256v-31.48z" fill="#d80027"/><path d="M333.913 133.565h100.174L384 183.652z" fill="#6da544"/><path d="M372.87 172.522h22.26v61.217h-22.26zm0 161.39h22.26v61.217h-22.26z" fill="#a2001d"/><path d="M450.783 300.522c0-18.44-14.95-33.39-33.39-33.39-8.554 0-16.352 3.22-22.26 8.51V256h11.13v-22.26h-11.13v-11.13h-22.26v11.13h-11.13V256h11.13v19.64c-5.91-5.29-13.707-8.51-22.26-8.51-18.44 0-33.39 14.95-33.39 33.39 0 9.887 4.3 18.767 11.13 24.882v19.64h111.304v-19.64c6.83-6.115 11.13-14.995 11.13-24.882z" fill="#ffda44"/><path d="M417.39 289.39c-3.51 0-5.97 1.542-7.414 2.834l-14.847 13.29h-22.26l-14.847-13.29c-1.445-1.292-3.903-2.834-7.414-2.834-6.137 0-11.13 4.993-11.13 11.13 0 4.323 2.33 7.054 3.72 8.3l7.41 6.636v7.326h66.783v-7.326l7.41-6.636c1.39-1.244 3.72-3.976 3.72-8.3a11.15 11.15 0 0 0-11.133-11.13z" fill="#d80027"/></svg>