<svg xmlns="http://www.w3.org/2000/svg" viewBox="0 0 512 512" xmlns:v="https://vecta.io/nano"><circle cx="256" cy="256" r="256" fill="#f0f0f0"/><path d="M256 0C145.93 0 52.094 69.472 15.923 166.957h480.155C459.906 69.472 366.07 0 256 0z" fill="#a2001d"/><path d="M256 512c110.07 0 203.906-69.472 240.077-166.957H15.923C52.094 442.528 145.93 512 256 512z"/><path d="M194.783 239.304l-.417.01v-.01H145.43c2.48-9.586 11.18-16.696 21.528-16.696v-33.4c-30.687 0-55.652 24.966-55.652 55.652v27.827h83.478c3.07 0 5.565 2.497 5.565 5.565v11.13H89.043v33.4H233.74V278.26c0-21.48-17.476-38.956-38.956-38.956zM278.26 289.4V189.217h-33.4v133.566h55.652V289.4zm111.305.002V189.217h-33.4v100.175h-11.13V256h-33.4v66.783H411.83V289.39z" fill="#496e2d"/></svg>