<svg xmlns="http://www.w3.org/2000/svg" viewBox="0 0 512 512" xmlns:v="https://vecta.io/nano"><circle cx="256" cy="256" r="256" fill="#f0f0f0"/><path d="M339.147 189.217h-33.494c.277 3.68.434 7.395.434 11.13 0 24.764-6.2 48.767-16.98 65.853-3.33 5.27-8.923 12.712-16.41 17.732v-94.716h-33.39v94.716c-7.487-5.02-13.082-12.46-16.41-17.732-10.792-17.086-16.98-41.09-16.98-65.853 0-3.735.158-7.45.434-11.13h-33.494c-.215 3.663-.332 7.373-.332 11.13 0 68.656 36.668 122.435 83.478 122.435s83.478-53.78 83.478-122.435c.002-3.757-.115-7.467-.33-11.13z" fill="#d80027"/><path d="M105.74 122.435h33.39v22.26h33.39v-22.26h33.39v22.26h33.39v-22.26h33.39v22.26h33.39v-22.26h33.39v22.26h33.39v-22.26h33.39v22.26h80.337C445.2 59.065 357.493 0 256 0S66.8 59.065 25.402 144.696h80.337v-22.26z" fill="#6da544"/><path d="M406.26 367.304v22.26h-33.39v-22.26h-33.39v22.26h-33.39v-22.26h-33.39v22.26h-33.39v-22.26h-33.39v22.26h-33.39v-22.26H139.13v22.26h-33.39v-22.26H25.402C66.8 452.935 154.506 512 256 512s189.2-59.065 230.598-144.696H406.26z" fill="#d80027"/></svg>