<svg xmlns="http://www.w3.org/2000/svg" viewBox="0 0 512 512" xmlns:v="https://vecta.io/nano"><circle cx="256" cy="256" r="256" fill="#f0f0f0"/><path d="M459.098 411.875L303.222 256l155.876-155.877c-6.723-8.736-14.077-17.14-22.078-25.144s-16.407-15.357-25.144-22.078L256 208.778 100.125 52.902A258.44 258.44 0 0 0 74.981 74.98a258.19 258.19 0 0 0-22.078 25.144L208.78 256 52.902 411.876c6.723 8.736 14.077 17.14 22.078 25.144s16.407 15.357 25.144 22.078L256 303.222l155.875 155.875c8.735-6.722 17.14-14.076 25.144-22.078s15.356-16.408 22.078-25.144z" fill="#d80027"/><path d="M211.478 77.913L256 89.043l44.522-11.13V40.07l-17.81 8.904L256 22.26l-26.713 26.713-17.81-8.904z" fill="#ffda44"/><path d="M211.478 77.913v27.828c0 34.08 44.522 44.522 44.522 44.522s44.522-10.443 44.522-44.522V77.913h-89.044z" fill="#d80027"/></svg>