<svg xmlns="http://www.w3.org/2000/svg" viewBox="0 0 512 512" xmlns:v="https://vecta.io/nano"><circle cx="256" cy="256" r="256" fill="#f0f0f0"/><path d="M155.826 166.957h340.25C459.906 69.472 366.07 0 256 0 185.306 0 121.313 28.66 74.99 74.99l80.837 91.968z"/><path d="M155.826 345.043h340.25C459.906 442.528 366.07 512 256 512c-70.694 0-134.687-28.66-181.01-74.99l80.837-91.968z" fill="#6da544"/><path d="M74.98 74.98c-99.974 99.974-99.974 262.065 0 362.04L256 256 74.98 74.98z" fill="#d80027"/><path d="M101.605 200.348l14.05 29.38 31.73-7.333-14.2 29.3 25.515 20.234-31.767 7.16.088 32.564-25.404-20.373L76.2 311.652l.09-32.564-31.767-7.16 25.514-20.234-14.208-29.3 31.727 7.333z" fill="#f0f0f0"/></svg>