<svg xmlns="http://www.w3.org/2000/svg" viewBox="0 0 512 512" xmlns:v="https://vecta.io/nano"><circle cx="256" cy="256" r="256" fill="#f0f0f0"/><path d="M256 0C154.506 0 66.8 59.065 25.402 144.696h461.195C445.2 59.065 357.493 0 256 0z"/><path d="M256 512c-101.494 0-189.2-59.065-230.598-144.696h461.195C445.2 452.935 357.493 512 256 512z" fill="#496e2d"/><path d="M499.91 178.087H12.09C4.247 202.656 0 228.83 0 256s4.247 53.344 12.09 77.913H499.9C507.753 309.344 512 283.17 512 256s-4.247-53.344-12.09-77.913z" fill="#a2001d"/><g fill="#f0f0f0"><path d="M335.715 118.3l-30.317-13.993L256 216.16l-49.398-111.85-30.317 13.993L237.613 256l-61.328 137.7 30.317 13.993L256 295.84l49.398 111.85 30.317-13.993L274.387 256z"/><path d="M276.59 131.49C264.855 118.672 256 111.304 256 111.304s-8.855 7.367-20.59 20.185v249.02c11.736 12.82 20.59 20.187 20.59 20.187s8.855-7.367 20.59-20.186V131.49z"/></g><path d="M200.348 179.243v153.512c12.402 21.975 27.58 39.987 38.957 51.93v-257.37c-11.376 11.94-26.556 29.954-38.957 51.928zm111.304 0c-12.403-21.975-27.58-39.987-38.957-51.928v257.37c11.375-11.942 26.554-29.954 38.957-51.93V179.243z" fill="#a2001d"/><path d="M311.652 179.243v153.512c12.555-22.25 22.26-48.558 22.26-76.755s-9.706-54.507-22.26-76.757zm-111.304 0v153.512c-12.555-22.25-22.26-48.558-22.26-76.755s9.706-54.507 22.26-76.757z"/></svg>