<svg xmlns="http://www.w3.org/2000/svg" viewBox="0 0 512 512" xmlns:v="https://vecta.io/nano"><circle cx="256" cy="256" r="256" fill="#d80027"/><path d="M381.197 256l-51.155 24.062 27.24 49.547-55.553-10.63-7.036 56.116L256 333.826l-38.692 41.27-7.04-56.116-55.548 10.627 27.24-49.547L130.803 256l51.157-24.06-27.24-49.548 55.546 10.63 7.043-56.117 38.7 41.27 38.697-41.27 7.034 56.117 55.555-10.63-27.242 49.55z" fill="#ffda44"/><circle cx="256" cy="256" r="77.913" fill="#d80027"/><path d="M217.043 256l-5.56.278a44.33 44.33 0 0 0 10.419 28.341c3.44-9.257 8.576-17.698 15.053-24.922-6.186-2.38-12.897-3.697-19.913-3.697zm23.982 41.933a44.42 44.42 0 0 0 29.95 0c-2.55-10.012-7.818-18.95-14.975-25.974-7.157 7.023-12.424 15.962-14.975 25.974zm53.53-64.187c-7.698-13.306-22.075-22.268-38.555-22.268s-30.857 8.96-38.555 22.268A77.4 77.4 0 0 1 256 244.222c11.36-6.6 24.52-10.405 38.555-10.476zm-19.513 25.952a78.06 78.06 0 0 1 15.053 24.922 44.33 44.33 0 0 0 10.419-28.341 55.83 55.83 0 0 0-5.559-.278 55.33 55.33 0 0 0-19.913 3.697z" fill="#ffda44"/></svg>