<svg xmlns="http://www.w3.org/2000/svg" viewBox="0 0 512 512" xmlns:v="https://vecta.io/nano"><path d="M0 256c0 44.35 11.283 86.064 31.127 122.435L256 400.696l224.873-22.26C500.717 342.064 512 300.35 512 256s-11.283-86.064-31.127-122.435L256 111.304l-224.873 22.26C11.283 169.936 0 211.65 0 256z" fill="#d80027"/><path d="M31.127 133.565h449.745C437.454 54 353.035 0 256 0S74.546 54 31.127 133.565zM256 512c97.035 0 181.454-54 224.873-133.565H31.127C74.546 458 158.965 512 256 512z" fill="#0052b4"/><path d="M345.043 306.087v-33.39h-22.26v-44.522l-22.26-22.26-22.26 22.26v-44.522L256 161.39l-22.26 22.26v44.522l-22.26-22.26-22.26 22.26v44.522h-22.26v33.39h-22.26v33.39h222.608v-33.39z" fill="#f0f0f0"/></svg>