<svg xmlns="http://www.w3.org/2000/svg" viewBox="0 0 512 512" xmlns:v="https://vecta.io/nano"><path d="M0,256C0,114.616,114.616,0,256,0s256,114.616,256,256" fill="#d80027"/><path d="M345.043 238.078l-36.385 17.113 19.376 35.24-39.5-7.56-5.006 39.912L256 293.428l-27.52 29.355-5.005-39.912-39.5 7.557 19.375-35.237-36.384-17.113 36.384-17.116-19.375-35.235 39.508 7.556 5.007-39.9L256 182.726l27.52-29.353 5.005 39.9 39.5-7.556-19.374 35.238zm-22.26-154.6h-50.087A16.7 16.7 0 0 0 256 66.782a16.7 16.7 0 0 0-16.696 16.696h-50.087c0 9.22 8.032 16.696 17.252 16.696h-.557a16.7 16.7 0 0 0 16.696 16.696 16.7 16.7 0 0 0 16.696 16.696h33.4a16.7 16.7 0 0 0 16.696-16.696 16.7 16.7 0 0 0 16.696-16.696h-.557c9.22 0 17.253-7.475 17.253-16.696z" fill="#ffda44"/><path d="M512 256c0 141.384-114.616 256-256 256S0 397.384 0 256h512z" fill="#f0f0f0"/><path d="M256 512c80.022 0 151.456-36.724 198.402-94.228-8.444-5.757-13.003-15.063-27.74-15.063-21.333 0-21.333 19.506-42.665 19.506s-21.333-19.506-42.665-19.506-21.333 19.506-42.667 19.506-21.335-19.506-42.67-19.506-21.333 19.506-42.665 19.506S192 402.7 170.668 402.7s-21.335 19.506-42.67 19.506-21.335-19.506-42.67-19.506c-14.734 0-19.293 9.304-27.733 15.06C104.54 475.276 175.977 512 256 512zm213.33-223.35c-21.333 0-21.333-19.506-42.667-19.506s-21.333 19.506-42.665 19.506-21.333-19.506-42.665-19.506S320 288.65 298.666 288.65s-21.335-19.506-42.67-19.506-21.333 19.506-42.665 19.506-21.33-19.506-42.663-19.506-21.335 19.506-42.67 19.506-21.335-19.506-42.67-19.506c-21.33 0-21.33 19.506-42.663 19.506-21.218 0-21.34-19.3-42.332-19.497a256.38 256.38 0 0 0 4.103 34.448c17.004 2.5 18.493 19.182 38.23 19.182C64 322.783 64 303.28 85.33 303.28s21.335 19.504 42.67 19.504 21.335-19.504 42.67-19.504 21.333 19.504 42.663 19.504 21.333-19.504 42.665-19.504 21.335 19.504 42.67 19.504 21.335-19.504 42.667-19.504 21.333 19.504 42.665 19.504 21.333-19.504 42.665-19.504S448 322.783 469.33 322.783c19.74 0 21.228-16.682 38.233-19.18a256.53 256.53 0 0 0 4.105-34.448c-20.995.207-21.12 19.496-42.34 19.496zm-42.667 47.277c-21.333 0-21.333 19.506-42.665 19.506s-21.333-19.506-42.665-19.506-21.333 19.506-42.667 19.506-21.335-19.506-42.67-19.506-21.333 19.506-42.665 19.506-21.33-19.506-42.663-19.506-21.335 19.506-42.67 19.506-21.335-19.506-42.67-19.506c-21.33 0-21.33 19.506-42.663 19.506-15.243 0-19.597-9.956-28.622-15.644a254.66 254.66 0 0 0 23.237 49.308c1.637.302 3.42.47 5.385.47 21.333 0 21.333-19.504 42.663-19.504 21.335 0 21.335 19.504 42.67 19.504s21.335-19.504 42.67-19.504S192 389.566 213.33 389.566s21.333-19.504 42.665-19.504 21.335 19.504 42.67 19.504 21.335-19.504 42.667-19.504 21.333 19.504 42.665 19.504 21.333-19.504 42.665-19.504 21.335 19.504 42.667 19.504c1.968 0 3.75-.167 5.387-.47 9.413-15.435 17.228-31.948 23.24-49.306-9.026 5.685-13.38 15.643-28.626 15.643-21.332 0-21.332-19.506-42.667-19.506z" fill="#0052b4"/><path d="M511.206 235.775c-20.53.485-20.813 19.484-41.876 19.484-21.333 0-21.333-19.506-42.667-19.506s-21.333 19.506-42.665 19.506-21.333-19.506-42.665-19.506S320 255.26 298.666 255.26s-21.335-19.506-42.67-19.506-21.333 19.506-42.665 19.506-21.33-19.506-42.663-19.506-21.335 19.506-42.67 19.506-21.335-19.506-42.67-19.506c-21.33 0-21.33 19.506-42.663 19.506-21.06 0-21.344-18.997-41.872-19.484C.272 242.45 0 249.193 0 256c0 4.663.132 9.296.38 13.897 20.943.235 21.082 19.494 42.285 19.494C64 289.39 64 269.887 85.33 269.887S106.664 289.39 128 289.39s21.335-19.504 42.67-19.504 21.333 19.504 42.663 19.504 21.333-19.504 42.665-19.504 21.335 19.504 42.67 19.504 21.335-19.504 42.667-19.504S362.667 289.39 384 289.39s21.333-19.504 42.665-19.504S448 289.39 469.33 289.39c21.205 0 21.344-19.26 42.29-19.494A260.27 260.27 0 0 0 512 256c0-6.807-.272-13.55-.794-20.225z" fill="#f0f0f0"/></svg>