<svg xmlns="http://www.w3.org/2000/svg" xmlns:xlink="http://www.w3.org/1999/xlink" viewBox="0 0 512 512" xmlns:v="https://vecta.io/nano"><circle cx="256" cy="256" r="256" fill="#f0f0f0"/><path d="M511.99 255.26h-277.5c-55.097 55.098-88.415 97.635-122.435 131.655l144.696 13.04 224.534-22.26C500.87 341.498 512 300.05 512 256l-.01-.74z" fill="#d80027"/><path d="M112.047 132.824H480.46C436.92 53.656 352.73 0 256 0 185.495 0 121.66 28.51 75.364 74.624l36.683 58.2z" fill="#ffda44"/><path d="M123.177 377.693c-23.014 23.014-31.908 42.296-48.56 58.946C120.973 483.186 185.118 512 256 512c97.336 0 181.98-54.325 225.277-134.307h-358.1z" fill="#0052b4"/><path d="M74.98 74.24c-99.974 99.974-99.974 262.065 0 362.04L256 255.26 74.98 74.24z" fill="#6da544"/><g fill="#f0f0f0"><path d="M67.525 255.26c0-37.298 26.213-68.457 61.217-76.1a78.15 78.15 0 0 0-16.696-1.812c-43.03 0-77.913 34.882-77.913 77.913s34.882 77.913 77.913 77.913c5.733 0 11.315-.637 16.696-1.812-35.004-7.645-61.217-38.803-61.217-76.1z"/><use xlink:href="#B"/><path d="M127.883 221.867l4.145 12.755h13.4l-10.85 7.882 4.145 12.755-10.85-7.883-10.85 7.883 4.145-12.755-10.85-7.882h13.4zm0 33.393l4.145 12.754h13.4l-10.85 7.883 4.145 12.754-10.85-7.883-10.85 7.883 4.145-12.754-10.85-7.883h13.4z"/><use xlink:href="#B" y="100.174"/></g><defs ><path id="B" d="M127.883 188.476l4.145 12.754h13.4l-10.85 7.883 4.145 12.754-10.85-7.882-10.85 7.882 4.145-12.754-10.85-7.883h13.4z"/></defs></svg>