<svg xmlns="http://www.w3.org/2000/svg" viewBox="0 0 473.677 473.677" xmlns:v="https://vecta.io/nano"><path d="M284.975 59.007l41.397-41.405A235.87 235.87 0 0 0 236.835 0c25.22 0 32.643 30.575 48.14 59.007zm51.64-36.962l-.797-.344.774.374.023-.03z" fill="#258f44"/><path d="M451.637 137.063l-.022.03.366.76c-.127-.254-.228-.524-.344-.8zm4.44 10.25L319.32 284.07c-5.44 106.67-23.073 189.608-82.484 189.608 130.807 0 236.842-106.036 236.842-236.835.001-31.7-6.297-61.908-17.6-89.53z" fill="#db2727"/><path d="M326.395 17.58l-.022.022c3.18 1.31 6.33 2.666 9.442 4.1-3.1-1.44-6.234-2.82-9.42-4.12z" fill="#f8d12e"/><path d="M336.592 22.07l-.774-.374a256.11 256.11 0 0 0-9.442-4.099l-36.584 36.584c1.702 3.126 7.487 2.236 9.072 5.617.987 2.105-2.19 8.392-1.25 10.6l45.297-45.297c-2.083-1.04-4.203-2.034-6.32-3.02z" fill="#fbd015"/><path d="M456.105 147.283c-1.31-3.186-2.696-6.316-4.128-9.427 1.432 3.12 2.8 6.275 4.1 9.457l.03-.03z" fill="#f8d12e"/><path d="M451.977 137.852l-.366-.76-3.033-6.324-122.576 122.58c-.037 3.186 2.883 3.373 2.797 6.552-.138 5.097-3.302 13.175-3.564 18.245l130.84-130.833c-1.308-3.186-2.666-6.342-4.098-9.46z" fill="#fbd015"/><path d="M324.177 123.62l4.46 2.27 28.974-28.982-6.413 40.477 36.52 18.612-40.477 6.413-6.413 40.477-7.83-15.373c1.477 18.735-9.89 49.87-10.116 68.96L448.58 130.768A237.7 237.7 0 0 0 342.908 25.095L290.752 77.25c7.663 17.86 28.777 23.725 33.425 46.368z" fill="#0b0b0b"/><path d="M340.83 202.887l6.413-40.477 40.477-6.413-36.52-18.612 6.413-40.477-28.974 28.982-4.46-2.27c4.132 20.153 7.08 41.71 8.822 63.894l7.83 15.373z" fill="#f3f2f2"/><path d="M0 236.842c0 31.7 6.297 61.91 17.602 89.53L297.888 46.087C282.39 17.662 262.055 0 236.835 0 106.036 0 0 106.032 0 236.842z" fill="#359846"/><path d="M22.045 336.62l.022-.03-.374-.8.352.82zm115.018 115.016l.737.322-.714-.344-.023.022z" fill="#fff"/><path d="M334.11 269.28L147.307 456.075c27.624 11.305 57.833 17.602 89.53 17.602 59.4 0 91.832-97.726 97.273-204.398z" fill="#dc3735"/><path d="M17.573 326.4c1.3 3.17 2.69 6.305 4.12 9.4-1.432-3.104-2.8-6.253-4.09-9.427l-.03.026z" fill="#fff"/><path d="M302.82 55.84c-1.586-3.373-3.227-6.623-4.93-9.75L17.603 326.37c1.3 3.18 2.66 6.324 4.09 9.427.116.27.247.527.374.79l3.025 6.324L305.715 62.3c-.946-2.195-1.904-4.35-2.895-6.45z" fill="#fcd73e"/><path d="M147.283 456.105l.022-.03c-3.197-1.31-6.376-2.674-9.502-4.12a228.74 228.74 0 0 0 9.48 4.151z" fill="#fff"/><path d="M130.77 448.588l7.03 3.37c3.126 1.447 6.305 2.812 9.502 4.12l186.803-186.795.576-15.265.19-9.532L130.77 448.588z" fill="#fcd73e"/><path d="M333 187.513l-10.774-21.144-40.485 6.413 28.982-28.982-18.604-36.52 32.056 16.338c-4.645-22.643-10.804-43.465-18.466-61.322L25.1 342.915c22.897 45.604 60.07 82.783 105.68 105.673l204.106-204.106c.224-19.1-.405-38.237-1.877-56.97z" fill="#151515"/><path d="M310.72 143.798l-28.98 28.982 40.485-6.413L333 187.51c-1.746-22.183-4.69-43.742-8.822-63.894L292.12 107.28l18.6 36.52z" fill="#fff"/><path d="M110.822 288.575l36.517 18.612 28.983-28.98-6.418 40.477 36.517 18.608-40.476 6.406-6.407 40.484-18.608-36.517-40.48 6.414 28.98-28.982z" fill="#f3f2f2"/></svg>