<?xml version="1.0" encoding="iso-8859-1"?>
<!-- Generator: Adobe Illustrator 19.0.0, SVG Export Plug-In . SVG Version: 6.00 Build 0)  -->
<svg version="1.1" id="Capa_1" xmlns="http://www.w3.org/2000/svg" xmlns:xlink="http://www.w3.org/1999/xlink" x="0px" y="0px"
	 viewBox="0 0 473.677 473.677" style="enable-background:new 0 0 473.677 473.677;" xml:space="preserve">
<g>
	<path style="fill:#258F44;" d="M284.975,59.007l41.397-41.405C298.741,6.297,268.532,0,236.835,0
		C262.055,0,269.478,30.575,284.975,59.007z"/>
	<path style="fill:#258F44;" d="M336.615,22.045c-0.262-0.116-0.535-0.228-0.797-0.344c0.254,0.116,0.512,0.247,0.774,0.374
		L336.615,22.045z"/>
</g>
<g>
	<path style="fill:#DB2727;" d="M451.637,137.063l-0.022,0.03c0.116,0.254,0.239,0.505,0.366,0.759
		C451.854,137.598,451.753,137.328,451.637,137.063z"/>
	<path style="fill:#DB2727;" d="M456.076,147.313L319.319,284.069c-5.441,106.671-23.073,189.608-82.484,189.608
		c130.807,0,236.842-106.036,236.842-236.835C473.678,205.142,467.38,174.934,456.076,147.313z"/>
</g>
<path style="fill:#F8D12E;" d="M326.395,17.58l-0.022,0.022c3.179,1.309,6.331,2.666,9.442,4.099
	C332.715,20.261,329.581,18.881,326.395,17.58z"/>
<path style="fill:#FBD015;" d="M336.592,22.071c-0.262-0.123-0.52-0.254-0.774-0.374c-3.111-1.432-6.268-2.79-9.442-4.099
	l-36.584,36.584c1.702,3.126,7.487,2.236,9.072,5.617c0.987,2.105-2.191,8.392-1.249,10.59l45.297-45.297
	C340.829,24.053,338.709,23.058,336.592,22.071z"/>
<path style="fill:#F8D12E;" d="M456.105,147.283c-1.309-3.186-2.696-6.316-4.128-9.427c1.432,3.119,2.79,6.275,4.099,9.457
	L456.105,147.283z"/>
<path style="fill:#FBD015;" d="M451.977,137.852c-0.123-0.254-0.247-0.505-0.366-0.759c-0.995-2.117-1.978-4.237-3.033-6.324
	l-122.576,122.58c-0.037,3.186,2.883,3.373,2.797,6.552c-0.138,5.097-3.302,13.175-3.564,18.245l130.84-130.833
	C454.767,144.127,453.409,140.971,451.977,137.852z"/>
<path style="fill:#0B0B0B;" d="M324.177,123.619l4.461,2.27l28.974-28.982l-6.413,40.477l36.521,18.612l-40.477,6.413l-6.413,40.477
	l-7.831-15.373c1.477,18.735-9.891,49.871-10.116,68.961l125.698-125.706c-22.89-45.612-60.061-82.783-105.673-105.673
	l-52.156,52.156C298.415,95.112,319.529,100.976,324.177,123.619z"/>
<path style="fill:#F3F2F2;" d="M340.829,202.887l6.413-40.477l40.477-6.413l-36.521-18.612l6.413-40.477l-28.974,28.982l-4.461-2.27
	c4.132,20.153,7.079,41.711,8.822,63.894L340.829,202.887z"/>
<path style="fill:#359846;" d="M0,236.842c0,31.7,6.297,61.909,17.602,89.529L297.888,46.087C282.391,17.662,262.055,0,236.835,0
	C106.036,0,0,106.032,0,236.842z"/>
<g>
	<path style="fill:#FFFFFF;" d="M22.045,336.621l0.022-0.03c-0.123-0.262-0.254-0.52-0.374-0.789
		C21.809,336.072,21.919,336.349,22.045,336.621z"/>
	<path style="fill:#FFFFFF;" d="M137.063,451.636c0.239,0.116,0.497,0.213,0.737,0.322c-0.239-0.108-0.475-0.228-0.714-0.344
		L137.063,451.636z"/>
</g>
<path style="fill:#DC3735;" d="M334.109,269.279L147.307,456.075c27.624,11.305,57.833,17.602,89.529,17.602
	C296.246,473.677,328.668,375.951,334.109,269.279z"/>
<path style="fill:#FFFFFF;" d="M17.573,326.401c1.301,3.171,2.689,6.305,4.121,9.401c-1.432-3.104-2.79-6.253-4.091-9.427
	L17.573,326.401z"/>
<path style="fill:#FCD73E;" d="M302.82,55.839c-1.586-3.373-3.227-6.623-4.929-9.749L17.603,326.371
	c1.301,3.179,2.659,6.324,4.091,9.427c0.116,0.269,0.247,0.527,0.374,0.789c0.987,2.124,1.978,4.237,3.025,6.324L305.715,62.29
	C304.769,60.095,303.811,57.941,302.82,55.839z"/>
<path style="fill:#FFFFFF;" d="M147.283,456.105l0.022-0.03c-3.197-1.309-6.376-2.674-9.502-4.121
	C140.93,453.401,144.082,454.796,147.283,456.105z"/>
<path style="fill:#FCD73E;" d="M130.77,448.588c2.083,1.043,4.2,2.038,6.316,3.025c0.239,0.116,0.475,0.236,0.714,0.344
	c3.126,1.447,6.305,2.812,9.502,4.121l186.803-186.795c0.262-5.067,0.438-10.16,0.576-15.265c0.086-3.171,0.146-6.346,0.191-9.532
	L130.77,448.588z"/>
<path style="fill:#151515;" d="M332.999,187.513l-10.774-21.144l-40.485,6.413l28.982-28.982l-18.604-36.521l32.056,16.338
	c-4.645-22.643-10.804-43.465-18.466-61.322L25.09,342.915c22.897,45.604,60.069,82.783,105.68,105.673l204.106-204.106
	C335.1,225.392,334.471,206.245,332.999,187.513z"/>
<path style="fill:#FFFFFF;" d="M310.721,143.798L281.74,172.78l40.485-6.413l10.774,21.144c-1.746-22.183-4.689-43.742-8.822-63.894
	l-32.056-16.338L310.721,143.798z"/>
<polygon style="fill:#F3F2F2;" points="110.822,288.575 147.339,307.187 176.322,278.206 169.904,318.683 206.421,337.291 
	165.945,343.697 159.538,384.181 140.93,347.664 100.449,354.078 129.43,325.096 "/>
<g>
</g>
<g>
</g>
<g>
</g>
<g>
</g>
<g>
</g>
<g>
</g>
<g>
</g>
<g>
</g>
<g>
</g>
<g>
</g>
<g>
</g>
<g>
</g>
<g>
</g>
<g>
</g>
<g>
</g>
</svg>
