<svg xmlns="http://www.w3.org/2000/svg" viewBox="0 0 512 512" xmlns:v="https://vecta.io/nano"><circle cx="256" cy="256" r="256" fill="#f0f0f0"/><path d="M256 0C178.4 0 108.886 34.524 61.94 89.043h388.12C403.114 34.524 333.6 0 256 0zm194.06 422.957H61.94C108.886 477.476 178.4 512 256 512s147.114-34.524 194.06-89.043z" fill="#0052b4"/><path d="M474.426 122.435H37.574C13.745 161.32 0 207.053 0 256s13.745 94.68 37.574 133.565h436.852C498.255 350.68 512 304.947 512 256s-13.745-94.68-37.574-133.565z" fill="#d80027"/><circle cx="157.496" cy="256" r="98.504" fill="#f0f0f0"/><path d="M157.496 157.496l22.1 68.02h71.638l-57.977 42.042 22.274 68.224-58.036-42.242-57.948 42.163 22.186-68.145-57.925-42.042h71.585z" fill="#d80027"/></svg>