<svg xmlns="http://www.w3.org/2000/svg" viewBox="0 0 512 512" xmlns:v="https://vecta.io/nano"><path d="M512 256c0 141.384-114.616 256-256 256S0 397.384 0 256C0 256.06 256 .028 256 0c141.384 0 256 114.616 256 256z" fill="#0052b4"/><g fill="#f0f0f0"><path d="M256 0h-.043.043zm-.685 256H256v-.685l-.685.685z"/><path d="M256 133.565L255.957 0C114.59.024 0 114.63 0 256h133.565v-75.21l75.21 75.21h46.54l.685-.685v-46.537l-75.213-75.213H256z"/></g><circle cx="367.304" cy="144.696" r="44.522" fill="#6da544"/><path d="M129.515 33.4C89.476 56.2 56.2 89.476 33.4 129.515V256h66.783V100.174H256V33.4H129.515zM256 224.52l-90.955-90.953-31.48.002L256 256v-31.48zm33.4-90.955h155.826v66.783H289.4z" fill="#d80027"/><path d="M445.217 256h0zM289.4 256h0z" fill="#496e2d"/><path d="M289.39 300.522v44.522h23.424c14.045 13.764 33.27 22.26 54.49 22.26s40.444-8.497 54.49-22.26h23.424v-44.522H289.39z" fill="#ffda44"/><path d="M289.39 189.217V256c0 59.64 77.913 77.913 77.913 77.913S445.217 315.64 445.217 256v-66.783H289.39z" fill="#338af3"/><path d="M367.3 224.9c-19.477 0-19.477 17.8-38.954 17.8s-19.477-17.8-38.954-17.8v31.165c19.477 0 19.477 17.8 38.954 17.8s19.477-17.8 38.954-17.8 19.48 17.8 38.96 17.8 19.48-17.8 38.96-17.8V224.9c-19.48 0-19.48 17.8-38.96 17.8s-19.48-17.8-38.96-17.8zm0-62.386c-19.477 0-19.477 17.8-38.954 17.8s-19.477-17.8-38.954-17.8v31.165c19.477 0 19.477 17.8 38.954 17.8s19.477-17.8 38.954-17.8 19.48 17.8 38.96 17.8 19.48-17.8 38.96-17.8v-31.165c-19.48 0-19.48 17.8-38.96 17.8s-19.48-17.8-38.96-17.8z" fill="#f3f3f3"/></svg>