<svg xmlns="http://www.w3.org/2000/svg" viewBox="0 0 512 512" xmlns:v="https://vecta.io/nano"><circle cx="256" cy="256" r="256" fill="#338af3"/><path d="M400.696 258.783H111.304c0 19.98 17.4 36.174 37.378 36.174h-1.204c0 19.98 16.195 36.174 36.174 36.174 0 19.98 16.195 36.174 36.174 36.174h72.348c19.98 0 36.174-16.195 36.174-36.174 19.98 0 36.174-16.195 36.174-36.174h-1.204c19.975 0 37.378-16.195 37.378-36.174z" fill="#ffda44"/><path d="M356.174 211.478c0 55.324-44.85 100.174-100.174 100.174s-100.174-44.85-100.174-100.174" fill="#338af3"/><path d="M332.515 211.478l-31.265 14.707 16.65 30.28-33.95-6.495-4.302 34.296L256 259.04l-23.648 25.225-4.3-34.296-33.95 6.493 16.648-30.28-31.264-14.706 31.265-14.706-16.65-30.28 33.95 6.494 4.303-34.296L256 163.916l23.648-25.225 4.3 34.296 33.95-6.494-16.65 30.28z" fill="#ffda44"/></svg>