<svg xmlns="http://www.w3.org/2000/svg" viewBox="0 0 473.68 473.68" xmlns:v="https://vecta.io/nano"><g fill="#5cb1e3"><path d="M290.842 430.776c-15.265 26.57-29.73 42.904-54.003 42.904 54.946 0 105.475-18.758 145.656-50.155-3.134 2.453-6.327 4.828-9.588 7.113l-82.065.138zM391.8 415.87a245.4 245.4 0 0 1-9.17 7.554c3.122-2.45 6.177-4.962 9.17-7.554zm75.443-124.254l-1.948 7.685 1.948-7.685zm6.435-54.77a237.09 237.09 0 0 1-.352 12.797 237.09 237.09 0 0 0 .352-12.797zm-17.56 89.522l-3.95 9.072 3.95-9.072zm4.278-11.298l-3.1 8.283 3.1-8.283zm12.624-61.396l-.722 8.612.722-8.612zm-21.72 83.718c-14.184 30.156-34.535 56.853-59.444 78.438 24.9-21.593 45.27-48.26 59.444-78.438zm20.415-70.5l-1.096 7.88 1.096-7.88zm-1.93 12.557l-1.503 7.655 1.503-7.655z"/><path d="M464.1 303.478l-2.46 7.88 2.46-7.88zm6.5-28.702l-.834 4.674.834-4.674z"/><path d="M461.648 311.36l-1.253 3.7 1.253-3.7zm3.647-12.06l-1.182 4.177 1.182-4.177zm2.987-12.198l-1.036 4.514 1.036-4.514zm-10.975 36.25l-1.185 3.018 1.185-3.018zm-5.135 12.087l-.88 1.948.88-1.948zm-60.345 80.408l.022-.022-.022.022zM472.3 262.286l-.583 4.607.583-4.607zm1.027-12.643l-.307 4.03.307-4.03z"/><path d="M451.3 337.392l.88-1.948 3.95-9.072 1.185-3.018 3.09-8.283 1.253-3.7 2.46-7.88 1.182-4.177 1.948-7.685 1.036-4.514 1.503-7.655.834-4.674 1.096-7.88.583-4.607.722-8.612.307-4.03a238.01 238.01 0 0 0 .352-12.797C473.67 106.04 367.633.01 236.83.01c70.274 0 89.47 133.192 84.23 259.725l70.778 156.098c24.916-21.587 45.266-48.284 59.45-78.44z"/></g><path d="M382.63 423.424l-.135.1.135-.1zm9.17-7.554l.026-.022z" fill="#f8fbfb"/><path d="M328.344 245.873c-.628 15.242-1.8 30.332-3.534 45.02l51.11 137.115h-5.235l2.225 2.63a223.11 223.11 0 0 0 9.588-7.113c.05-.037.1-.075.135-.1 3.12-2.446 6.178-4.96 9.17-7.554a.15.15 0 0 0 .026-.022l-63.483-169.975z" fill="#e4e4e4"/><path d="M370.683 428.01h5.235l-48.614-128.7c-2.068 17.602-4.772 38.544-8.414 54.538l51.793 74.163z" fill="#0b0b0b"/><path d="M291.467 430.776l81.437-.138-2.225-2.63-51.793-74.163c-6.33 27.834-16.32 57.612-27.42 76.93z" fill="#f8d12e"/><path d="M64.622 399.327c-17.067-18.077-31.326-38.835-42.066-61.58 10.732 22.752 24.995 43.503 42.066 61.58zm27.3 24.783a229.33 229.33 0 0 1-9.128-7.449 227.38 227.38 0 0 0 9.128 7.45zm-9.155-7.465c-3.126-2.68-6.178-5.45-9.162-8.283a242.19 242.19 0 0 0 9.162 8.283zM21.92 336.337c-1.477-3.18-2.887-6.4-4.226-9.64a234.03 234.03 0 0 0 4.226 9.64zm51.493 71.83a234.44 234.44 0 0 1-8.62-8.653 236.82 236.82 0 0 0 8.62 8.653zM5.447 287.3l-1.515-7.685 1.515 7.685zm-4.054-24.928l-.722-8.627.722 8.627zM.36 249.688c-.228-4.252-.36-8.53-.36-12.842.004 4.308.134 8.6.36 12.842zm16.22 74.182l-3.194-8.515 3.194 8.515z" fill="#fff"/><path d="M296.135 430.776l-194.682.344c38.38 26.798 85.027 42.56 135.384 42.56 24.277.001 44.033-16.33 59.298-42.904z" fill="#6cc4ee"/><g fill="#fff"><path d="M3.1 274.915l-1.107-7.894 1.107 7.894zm98.355 156.198a231.81 231.81 0 0 1-9.506-6.997c3.112 2.412 6.28 4.75 9.506 6.997zm-89.3-119.4l-2.5-7.984 2.5 7.984zM8.46 299.56l-1.97-7.733 1.97 7.733z"/><path d="M6.5 291.82l-1.043-4.52 1.043 4.52zm-4.516-24.803l-.6-4.645.6 4.645zm7.662 36.71l-1.182-4.17 1.182 4.17zm73.13 112.917l.012.007zm-69.39-101.29l-1.23-3.646 1.23 3.646zM.668 253.75L.36 249.7l.307 4.06zm3.26 25.87l-.84-4.704.84 4.704zm69.687 128.74l-.202-.198.202.198zm-55.92-81.663l-1.114-2.827 1.114 2.827zM64.797 399.5l-.176-.183c.057.067.117.123.176.183zm-42.242-61.753l-.636-1.4.636 1.4z"/></g><path d="M.006 236.846c0 4.308.13 8.6.36 12.842.075 1.357.213 2.704.307 4.06l.722 8.627c.168 1.563.393 3.096.59 4.645l1.107 7.894c.25 1.578.55 3.134.84 4.704l1.515 7.685 1.043 4.52a223.78 223.78 0 0 0 1.971 7.733l1.182 4.17c.79 2.68 1.63 5.348 2.51 7.984l1.23 3.646c1 2.865 2.083 5.703 3.194 8.515l1.114 2.827c1.335 3.25 2.75 6.466 4.226 9.64l.636 1.4c10.74 22.744 25 43.502 42.066 61.58.06.067.116.123.176.183 2.797 2.958 5.67 5.845 8.62 8.653l.202.198a242.8 242.8 0 0 0 9.162 8.283L236.843 4.196l97.532 259.052C339.61 136.715 307.114 0 236.84 0 106.04.004.006 106.036.006 236.846z" fill="#6cc4ee"/><g fill="#fff"><path d="M101.445 431.113l.008.007zm-9.505-6.997zm-9.15-7.464v.007-.007z"/><path d="M82.79 416.652c2.99 2.572 6.035 5.055 9.14 7.456a228.07 228.07 0 0 0 9.517 7.004l2.617-3.104h-4.87L237.005 59.04l93.833 249.228c1.724-14.69 2.906-29.778 3.534-45.02l-97.53-259.05L82.79 416.652z"/></g><path d="M99.198 428.01h4.87l132.777-191.163 85.434 122.026c3.642-15.994 6.496-32.998 8.564-50.6L237.005 59.04 99.198 428.01z" fill="#151515"/><path d="M101.453 431.12h0z" fill="#fff"/><path d="M236.843 236.846L104.067 428.01l-2.6 3.11 194.682-.344c11.1-19.32 19.805-44.07 26.14-71.908l-85.436-122.022z" fill="#f8d648"/></svg>