<?xml version="1.0" encoding="iso-8859-1"?>
<!-- Generator: Adobe Illustrator 19.0.0, SVG Export Plug-In . SVG Version: 6.00 Build 0)  -->
<svg version="1.1" id="Capa_1" xmlns="http://www.w3.org/2000/svg" xmlns:xlink="http://www.w3.org/1999/xlink" x="0px" y="0px"
	 viewBox="0 0 473.68 473.68" style="enable-background:new 0 0 473.68 473.68;" xml:space="preserve">
<g>
	<path style="fill:#5CB1E3;" d="M290.842,430.776c-15.265,26.57-29.73,42.904-54.003,42.904c54.946,0,105.475-18.758,145.656-50.155
		c-3.134,2.453-6.327,4.828-9.588,7.113L290.842,430.776z"/>
	<path style="fill:#5CB1E3;" d="M391.801,415.87c-2.992,2.592-6.051,5.105-9.169,7.554
		C385.754,420.975,388.809,418.462,391.801,415.87z"/>
	<path style="fill:#5CB1E3;" d="M467.243,291.616c-0.613,2.577-1.257,5.142-1.948,7.685
		C465.986,296.758,466.63,294.196,467.243,291.616z"/>
	<path style="fill:#5CB1E3;" d="M473.678,236.846c0,4.293-0.123,8.56-0.352,12.797C473.555,245.406,473.678,241.139,473.678,236.846
		z"/>
	<path style="fill:#5CB1E3;" d="M456.118,326.368c-1.253,3.059-2.573,6.077-3.949,9.072
		C453.545,332.444,454.868,329.43,456.118,326.368z"/>
	<path style="fill:#5CB1E3;" d="M460.396,315.07c-0.98,2.782-2.008,5.542-3.089,8.283C458.384,320.612,459.42,317.86,460.396,315.07
		z"/>
	<path style="fill:#5CB1E3;" d="M473.021,253.674c-0.206,2.883-0.415,5.763-0.722,8.612
		C472.605,259.437,472.819,256.557,473.021,253.674z"/>
	<path style="fill:#5CB1E3;" d="M451.29,337.392c-14.184,30.156-34.535,56.853-59.444,78.438
		C416.755,394.237,437.117,367.57,451.29,337.392z"/>
	<path style="fill:#5CB1E3;" d="M471.715,266.893c-0.337,2.636-0.673,5.273-1.096,7.879
		C471.042,272.166,471.385,269.53,471.715,266.893z"/>
	<path style="fill:#5CB1E3;" d="M469.786,279.451c-0.467,2.565-0.95,5.119-1.503,7.655
		C468.828,284.57,469.318,282.012,469.786,279.451z"/>
	<path style="fill:#5CB1E3;" d="M464.109,303.478c-0.774,2.644-1.601,5.273-2.461,7.879
		C462.512,308.754,463.335,306.129,464.109,303.478z"/>
	<path style="fill:#5CB1E3;" d="M470.62,274.776c-0.254,1.571-0.553,3.119-0.834,4.674
		C470.063,277.895,470.362,276.347,470.62,274.776z"/>
	<path style="fill:#5CB1E3;" d="M461.648,311.361c-0.408,1.242-0.823,2.476-1.253,3.71
		C460.826,313.836,461.237,312.602,461.648,311.361z"/>
	<path style="fill:#5CB1E3;" d="M465.295,299.3c-0.381,1.402-0.782,2.79-1.182,4.177C464.52,302.09,464.913,300.703,465.295,299.3z"
		/>
	<path style="fill:#5CB1E3;" d="M468.282,287.102c-0.322,1.511-0.688,3.018-1.036,4.514
		C467.602,290.12,467.961,288.617,468.282,287.102z"/>
	<path style="fill:#5CB1E3;" d="M457.307,323.353c-0.393,1.01-0.778,2.016-1.185,3.018
		C456.529,325.369,456.91,324.359,457.307,323.353z"/>
	<path style="fill:#5CB1E3;" d="M452.172,335.44c-0.295,0.651-0.576,1.309-0.879,1.948
		C451.592,336.749,451.872,336.09,452.172,335.44z"/>
	<path style="fill:#5CB1E3;" d="M391.827,415.848l0.022-0.022L391.827,415.848z"/>
	<path style="fill:#5CB1E3;" d="M472.299,262.286c-0.161,1.548-0.389,3.074-0.583,4.607
		C471.91,265.36,472.138,263.834,472.299,262.286z"/>
	<path style="fill:#5CB1E3;" d="M473.327,249.643c-0.075,1.35-0.213,2.689-0.307,4.031
		C473.118,252.331,473.256,250.993,473.327,249.643z"/>
	<path style="fill:#5CB1E3;" d="M451.29,337.392c0.303-0.643,0.583-1.301,0.879-1.948c1.372-2.995,2.696-6.009,3.949-9.072
		c0.408-1.002,0.793-2.008,1.185-3.018c1.081-2.737,2.109-5.501,3.089-8.283c0.43-1.234,0.849-2.468,1.253-3.71
		c0.86-2.606,1.687-5.235,2.461-7.879c0.4-1.387,0.804-2.775,1.182-4.177c0.696-2.543,1.335-5.104,1.948-7.685
		c0.352-1.496,0.714-3.003,1.036-4.514c0.553-2.535,1.036-5.09,1.503-7.655c0.277-1.556,0.576-3.104,0.834-4.674
		c0.423-2.606,0.759-5.243,1.096-7.879c0.198-1.533,0.423-3.059,0.583-4.607c0.307-2.85,0.52-5.725,0.722-8.612
		c0.093-1.343,0.236-2.681,0.307-4.031c0.228-4.237,0.352-8.5,0.352-12.797c0-130.81-106.036-236.842-236.838-236.842
		c70.274,0,89.469,133.192,84.23,259.725l70.756,156.12c0.007-0.007,0.015-0.015,0.022-0.022
		C416.755,394.245,437.105,367.548,451.29,337.392z"/>
</g>
<g>
	<path style="fill:#F8FBFB;" d="M382.631,423.424c-0.045,0.03-0.086,0.067-0.135,0.101
		C382.542,423.488,382.586,423.451,382.631,423.424z"/>
	<polygon style="fill:#F8FBFB;" points="391.801,415.87 391.827,415.848 391.827,415.848 	"/>
</g>
<path style="fill:#E4E4E4;" d="M328.344,245.873c-0.628,15.242-1.81,30.332-3.534,45.021l51.109,137.115h-5.235l2.225,2.629
	c3.261-2.285,6.458-4.66,9.588-7.113c0.049-0.037,0.09-0.075,0.135-0.101c3.119-2.446,6.178-4.959,9.169-7.554
	c0.011-0.007,0.019-0.015,0.026-0.022L328.344,245.873z"/>
<path style="fill:#0B0B0B;" d="M370.683,428.009h5.235l-48.614-128.701c-2.068,17.602-4.772,38.544-8.414,54.538L370.683,428.009z"
	/>
<path style="fill:#F8D12E;" d="M291.467,430.776l81.437-0.138l-2.225-2.629l-51.793-74.163
	C312.555,381.68,302.566,411.458,291.467,430.776z"/>
<g>
	<path style="fill:#FFFFFF;" d="M64.622,399.327c-17.067-18.077-31.326-38.835-42.066-61.58
		C33.288,360.499,47.551,381.25,64.622,399.327z"/>
	<path style="fill:#FFFFFF;" d="M91.932,424.109c-3.104-2.405-6.152-4.888-9.128-7.449C85.78,419.217,88.824,421.708,91.932,424.109
		z"/>
	<path style="fill:#FFFFFF;" d="M82.777,416.645c-3.126-2.681-6.178-5.449-9.162-8.283C76.6,411.196,79.647,413.963,82.777,416.645z
		"/>
	<path style="fill:#FFFFFF;" d="M21.92,336.337c-1.477-3.179-2.887-6.391-4.226-9.641C19.029,329.946,20.446,333.162,21.92,336.337z
		"/>
	<path style="fill:#FFFFFF;" d="M73.413,408.167c-2.951-2.812-5.823-5.695-8.62-8.653C67.595,402.475,70.463,405.355,73.413,408.167
		z"/>
	<path style="fill:#FFFFFF;" d="M5.447,287.3c-0.553-2.543-1.043-5.112-1.515-7.685C4.4,282.188,4.889,284.754,5.447,287.3z"/>
	<path style="fill:#FFFFFF;" d="M1.393,262.372c-0.307-2.857-0.52-5.74-0.722-8.627C0.873,256.632,1.086,259.519,1.393,262.372z"/>
	<path style="fill:#FFFFFF;" d="M0.361,249.688c-0.228-4.252-0.359-8.53-0.359-12.842C0.006,241.154,0.136,245.436,0.361,249.688z"
		/>
	<path style="fill:#FFFFFF;" d="M16.579,323.869c-1.114-2.812-2.188-5.654-3.194-8.515
		C14.392,318.219,15.465,321.061,16.579,323.869z"/>
</g>
<path style="fill:#6CC4EE;" d="M296.135,430.776l-194.682,0.344c38.379,26.798,85.027,42.56,135.384,42.56
	C261.114,473.681,280.87,457.35,296.135,430.776z"/>
<g>
	<path style="fill:#FFFFFF;" d="M3.091,274.915c-0.423-2.614-0.77-5.25-1.107-7.894C2.32,269.661,2.664,272.297,3.091,274.915z"/>
	<path style="fill:#FFFFFF;" d="M101.445,431.113c-3.231-2.251-6.398-4.588-9.506-6.997
		C95.051,426.528,98.218,428.866,101.445,431.113z"/>
	<path style="fill:#FFFFFF;" d="M12.155,311.712c-0.879-2.636-1.72-5.303-2.509-7.984C10.435,306.417,11.273,309.068,12.155,311.712
		z"/>
	<path style="fill:#FFFFFF;" d="M8.461,299.559c-0.703-2.565-1.357-5.142-1.971-7.733C7.103,294.417,7.761,296.993,8.461,299.559z"
		/>
	<path style="fill:#FFFFFF;" d="M6.49,291.821c-0.359-1.503-0.714-3.01-1.043-4.521C5.776,288.811,6.131,290.318,6.49,291.821z"/>
	<path style="fill:#FFFFFF;" d="M1.984,267.017c-0.198-1.548-0.423-3.081-0.591-4.645C1.561,263.935,1.786,265.469,1.984,267.017z"
		/>
	<path style="fill:#FFFFFF;" d="M9.646,303.728c-0.408-1.38-0.804-2.775-1.182-4.17C8.842,300.953,9.235,302.348,9.646,303.728z"/>
	<polygon style="fill:#FFFFFF;" points="82.777,416.645 82.789,416.652 82.789,416.652 	"/>
	<path style="fill:#FFFFFF;" d="M13.386,315.354c-0.423-1.212-0.826-2.423-1.23-3.646C12.559,312.931,12.959,314.143,13.386,315.354
		z"/>
	<path style="fill:#FFFFFF;" d="M0.668,253.749c-0.093-1.357-0.236-2.704-0.307-4.061C0.436,251.045,0.574,252.388,0.668,253.749z"
		/>
	<path style="fill:#FFFFFF;" d="M3.928,279.619c-0.288-1.571-0.587-3.126-0.841-4.704C3.345,276.493,3.64,278.048,3.928,279.619z"/>
	<path style="fill:#FFFFFF;" d="M73.615,408.361c-0.071-0.067-0.135-0.131-0.202-0.198
		C73.481,408.231,73.548,408.298,73.615,408.361z"/>
	<path style="fill:#FFFFFF;" d="M17.694,326.697c-0.385-0.935-0.74-1.885-1.114-2.827C16.953,324.812,17.305,325.762,17.694,326.697
		z"/>
	<path style="fill:#FFFFFF;" d="M64.797,399.51c-0.06-0.06-0.116-0.116-0.176-0.183C64.678,399.394,64.738,399.45,64.797,399.51z"/>
	<path style="fill:#FFFFFF;" d="M22.555,337.747c-0.221-0.467-0.419-0.942-0.636-1.41C22.136,336.805,22.335,337.28,22.555,337.747z
		"/>
</g>
<path style="fill:#6CC4EE;" d="M0.006,236.846c0,4.308,0.131,8.59,0.359,12.842c0.075,1.357,0.213,2.704,0.307,4.061
	c0.206,2.883,0.415,5.77,0.722,8.627c0.168,1.563,0.393,3.096,0.591,4.645c0.337,2.644,0.684,5.28,1.107,7.894
	c0.251,1.578,0.55,3.134,0.841,4.704c0.471,2.573,0.961,5.142,1.515,7.685c0.329,1.511,0.688,3.018,1.043,4.521
	c0.613,2.592,1.268,5.172,1.971,7.733c0.381,1.395,0.774,2.79,1.182,4.17c0.789,2.681,1.63,5.348,2.509,7.984
	c0.404,1.219,0.808,2.431,1.23,3.646c1.01,2.865,2.083,5.703,3.194,8.515c0.374,0.942,0.729,1.892,1.114,2.827
	c1.335,3.25,2.749,6.466,4.226,9.641c0.217,0.467,0.415,0.942,0.636,1.41c10.74,22.744,24.999,43.502,42.066,61.58
	c0.06,0.067,0.116,0.123,0.176,0.183c2.797,2.958,5.669,5.845,8.62,8.653c0.067,0.067,0.131,0.131,0.202,0.198
	c2.984,2.835,6.036,5.602,9.162,8.283c0,0,0.007,0.007,0.011,0.007L236.843,4.196l97.532,259.052
	C339.611,136.715,307.114,0,236.839,0C106.041,0.004,0.006,106.036,0.006,236.846z"/>
<g>
	<polygon style="fill:#FFFFFF;" points="101.445,431.113 101.453,431.12 101.453,431.12 	"/>
	<path style="fill:#FFFFFF;" d="M91.939,424.116c-0.004,0-0.007,0-0.011-0.007C91.936,424.116,91.939,424.116,91.939,424.116z"/>
	<path style="fill:#FFFFFF;" d="M82.789,416.652l0.011,0.007L82.789,416.652z"/>
	<path style="fill:#FFFFFF;" d="M82.789,416.652c0.004,0.007,0.007,0.007,0.011,0.007c2.98,2.565,6.024,5.048,9.128,7.449
		c0.004,0.007,0.007,0.007,0.011,0.007c3.108,2.412,6.275,4.749,9.506,6.997c0,0.007,0.004,0.007,0.007,0.007l2.61-3.111h-4.869
		L237.005,59.04l93.833,249.228c1.724-14.689,2.906-29.778,3.534-45.021L236.843,4.196L82.789,416.652z"/>
</g>
<path style="fill:#151515;" d="M99.198,428.009h4.869l132.777-191.163l85.434,122.026c3.642-15.994,6.496-32.998,8.564-50.6
	L237.005,59.04L99.198,428.009z"/>
<path style="fill:#FFFFFF;" d="M101.453,431.12L101.453,431.12L101.453,431.12z"/>
<path style="fill:#F8D648;" d="M236.843,236.846L104.067,428.009l-2.61,3.111l0,0l194.682-0.344
	c11.099-19.319,19.805-44.071,26.14-71.908L236.843,236.846z"/>
<g>
</g>
<g>
</g>
<g>
</g>
<g>
</g>
<g>
</g>
<g>
</g>
<g>
</g>
<g>
</g>
<g>
</g>
<g>
</g>
<g>
</g>
<g>
</g>
<g>
</g>
<g>
</g>
<g>
</g>
</svg>
