<svg xmlns="http://www.w3.org/2000/svg" viewBox="0 0 512 512" xmlns:v="https://vecta.io/nano"><path d="M512 256c0 141.384-114.616 256-256 256S0 397.384 0 256c11.13 0 256-33.39 256-33.39L512 256z" fill="#d80027"/><path d="M0,256C0,114.616,114.616,0,256,0s256,114.616,256,256" fill="#0052b4"/><path d="M189.217 178.087c0-18.44-14.95-33.39-33.39-33.39a33.26 33.26 0 0 0-22.261 8.509v-19.64h11.13v-22.26h-11.13v-11.13h-22.26v11.13h-11.13v22.26h11.13v19.64a33.26 33.26 0 0 0-22.261-8.509c-18.44 0-33.39 14.95-33.39 33.39 0 9.887 4.3 18.767 11.13 24.882v19.64h111.304v-19.64c6.83-6.115 11.13-14.995 11.13-24.882z" fill="#ffda44"/></svg>