<svg xmlns="http://www.w3.org/2000/svg" viewBox="0 0 511.999 511.999" xmlns:v="https://vecta.io/nano"><path d="M.001 44.522H0L.001 256z" fill="#ff9811"/><circle cx="255.999" cy="255.999" r="255.999" fill="#ffda44"/><path d="M200.35 44.522h-88.635c-3.928 2.685-7.772 5.48-11.54 8.373L77.914 256l22.26 203.104a256.18 256.18 0 0 0 11.539 8.373h88.635V44.522z" fill="#ff9811"/><path d="M.001 256c0 82.745 39.268 156.307 100.174 203.104V52.896C39.27 99.694.001 173.256.001 256z" fill="#6da544"/><path d="M411.826 156.064v6.405l.238.036z" fill="#ffda44"/><path d="M491.595 322.782h-48.233l-20.405 22.26v44.522h-44.522v-22.26h22.26v-44.522H300.522v27.826h-22.26v-53.03c-6.83-6.114-11.13-14.995-11.13-24.882V128c0-18.44 14.95-33.39 33.39-33.39v205.913h44.522l15.276-12.73c-2.668-6.355-4.146-13.334-4.146-20.66v-33.39h-33.39v-66.782h66.782c0-11.13 16.696-22.26 16.696-22.26s16.696 11.13 16.696 22.26v66.783h53.312c-5.584-9.76-8.79-21.34-8.79-33.39 0-19.64 8.48-37.3 21.978-49.52-19.456-43.115-50.502-79.877-89.17-106.31H233.74v422.956h166.548c47.02-32.14 82.768-79.552 100.112-135.1l-8.805-9.606z" fill="#a2001d"/></svg>