<svg xmlns="http://www.w3.org/2000/svg" viewBox="0 0 512 512" xmlns:v="https://vecta.io/nano"><g fill="#f0f0f0"><circle cx="256" cy="256" r="256"/><path d="M58.516 93.092h394.968c-14.588-17.665-31.508-33.33-50.277-46.545H108.793a257.35 257.35 0 0 0-50.277 46.545zM0 256c0 7.847.373 15.605 1.064 23.273h509.872c.7-7.668 1.064-15.426 1.064-23.273s-.373-15.605-1.064-23.272H1.064C.373 240.395 0 248.153 0 256zm27.916 116.363h456.168a254.3 254.3 0 0 0 18.276-46.544H9.64a254.27 254.27 0 0 0 18.276 46.544zm80.877 93.092h294.413c18.77-13.215 35.7-28.88 50.277-46.545H58.516c14.6 17.663 31.508 33.33 50.277 46.545zM9.64 186.182h492.72c-4.6-16.228-10.74-31.8-18.277-46.545H27.916C20.38 154.382 14.23 169.954 9.64 186.182z"/></g><path d="M122.435 46.545h280.772C361.567 17.227 310.797 0 256 0c-33.4 0-91.925 17.227-133.565 46.545zm122.435 93.092h239.214c-8.513-16.653-18.795-32.252-30.6-46.545H244.87v46.545zm0 93.09h266.066c-1.44-15.982-4.334-31.546-8.575-46.545H244.87v46.545zM9.64 325.82h492.72c4.242-14.998 7.136-30.563 8.576-46.545H1.064c1.44 15.982 4.334 31.546 8.576 46.545zm48.876 93.088h394.968a256.41 256.41 0 0 0 30.6-46.545H27.916c8.513 16.653 18.795 32.252 30.6 46.545zM256 512c54.797 0 105.567-17.227 147.207-46.545H108.793C150.433 494.773 201.203 512 256 512z" fill="#d80027"/><path d="M9.64 186.182c-4.242 15-7.135 30.563-8.575 46.545H256V0C138.82 0 40.03 78.732 9.64 186.182z" fill="#0052b4"/><path d="M152.388 66.783l16.575 51.015h53.646L179.21 149.33l16.574 51.018-43.397-31.53-43.4 31.53 16.578-51.018-43.398-31.532h53.643z" fill="#f0f0f0"/></svg>