<svg xmlns="http://www.w3.org/2000/svg" viewBox="0 0 512 512" xmlns:v="https://vecta.io/nano"><circle cx="256" cy="256" r="256" fill="#d80027"/><path d="M407.288 210.1H291.714L256 100.174 220.286 210.1H104.712l93.5 67.932-35.715 109.92L256 320.008l93.502 67.934-35.715-109.92 93.5-67.933zm-182.906 59.43l12.077-37.17h39.08l12.078 37.17L256 292.49l-31.618-22.972zm43.926-59.43h-24.615L256 172.2l12.308 37.88zm38.245 45.672l-7.607-23.41h39.83l-32.222 23.41zm-93.5-23.41l-7.607 23.41-32.223-23.41h39.83zm-8.212 97.3l12.308-37.88 19.915 14.468-32.223 23.41zm70.095-23.4l19.915-14.468 12.308 37.88-32.223-23.41z" fill="#ffda44"/></svg>