<svg xmlns="http://www.w3.org/2000/svg" viewBox="0 0 512 512" xmlns:v="https://vecta.io/nano"><path d="M367.304 25.402C333.648 9.128 295.9 0 256 0s-77.648 9.128-111.304 25.402L122.435 256l22.26 230.598C178.352 502.872 216.1 512 256 512s77.648-9.128 111.304-25.402L389.565 256l-22.26-230.598z" fill="#ffda44"/><path d="M144.696 25.41C59.066 66.818 0 154.507 0 256s59.066 189.182 144.696 230.59V25.41z" fill="#0052b4"/><path d="M367.304 25.41V486.59C452.934 445.182 512 357.493 512 256S452.934 66.818 367.304 25.41z" fill="#d80027"/><path d="M345.043 201.42h-61.217c0-15.368-12.458-27.826-27.826-27.826s-27.826 12.458-27.826 27.826h-61.217c0 15.13 13.18 27.396 28.3 27.396h-.912c0 15.132 12.266 27.4 27.398 27.4 0 13.397 9.622 24.53 22.33 26.91l-21.6 48.742c10.345 4.205 21.65 6.542 33.507 6.542s23.162-2.337 33.506-6.542l-21.59-48.742c12.708-2.38 22.33-13.512 22.33-26.91 15.132 0 27.398-12.267 27.398-27.4h-.913c15.13 0 28.31-12.266 28.31-27.396z" fill="#ff9811"/><path d="M256 239.304L219.826 256v33.39L256 311.652l36.174-22.26V256z" fill="#0052b4"/><path d="M219.826 222.61h72.348V256h-72.348z" fill="#d80027"/></svg>