<svg xmlns="http://www.w3.org/2000/svg" viewBox="0 0 512 512" xmlns:v="https://vecta.io/nano"><circle cx="256" cy="256" r="256" fill="#ffda44"/><path d="M512 256c0-87.86-44.27-165.375-111.713-211.478H111.713C44.27 90.625 0 168.14 0 256s44.27 165.375 111.713 211.478h288.574C467.73 421.375 512 343.863 512 256z" fill="#a2001d"/><path d="M200.348 189.217h111.304v-44.52l-22.26 11.13-33.4-33.4-33.4 33.4-22.26-11.13zM356.174 256h-55.63c2.182-3.774 3.45-8.14 3.45-12.813a25.69 25.69 0 0 0-25.686-25.686c-9.8 0-18.313 5.492-22.644 13.562-4.33-8.07-12.843-13.562-22.644-13.562-14.185 0-25.686 11.5-25.686 25.686 0 4.673 1.27 9.04 3.45 12.813h-54.96c0 17.023 14.827 30.822 31.85 30.822h-1.026c0 13.963 9.287 25.753 22.02 29.54l-25.017 25.02 23.6 23.6 33.493-33.493a25.54 25.54 0 0 0 4.072 1.129l-20.238 45.695c9.698 3.944 20.297 6.133 31.412 6.133a83.19 83.19 0 0 0 31.412-6.133l-20.238-45.695c1.402-.263 2.76-.648 4.07-1.13l33.493 33.493 23.6-23.6-25.018-25.018c12.732-3.8 22.02-15.577 22.02-29.54h-1.027c17.024-.001 31.852-13.8 31.852-30.823z" fill="#ffda44"/><path d="M256 272.696l-36.174 16.695v33.392L256 345.043l36.174-22.26V289.39z" fill="#6da544"/><path d="M219.826 256h72.348v44.522h-72.348z" fill="#0052b4"/></svg>