<svg xmlns="http://www.w3.org/2000/svg" viewBox="0 0 512 512" xmlns:v="https://vecta.io/nano"><circle cx="256" cy="256" r="256" fill="#ffda44"/><g fill="#d80027"><path d="M294.932 509.057c41.636-6.352 79.962-22.748 112.456-46.618L256 256l38.932 253.057z"/><path d="M217.067 2.943C175.432 9.295 137.106 25.69 104.6 49.56L256 256 217.067 2.943z"/><path d="M104.6 462.44c32.494 23.87 70.82 40.265 112.455 46.62L256 256 104.6 462.44z"/><path d="M49.56 104.6C25.7 137.106 9.296 175.43 2.943 217.067L256 256 49.56 104.6z"/><path d="M2.943,294.932c6.352,41.636,22.748,79.962,46.618,112.456L256,256L2.943,294.932z"/><path d="M509.057 217.067c-6.353-41.635-22.748-79.96-46.618-112.456L256 256l253.057-38.933z"/><path d="M407.388 49.56C374.893 25.7 336.568 9.295 294.932 2.943L256 256 407.388 49.56z"/><path d="M462.44 407.39c23.87-32.495 40.264-70.822 46.618-112.456L256 256l206.44 151.39z"/><circle cx="256" cy="256" r="89.043"/></g><circle cx="256" cy="256" r="66.783" fill="#ffda44"/></svg>