<svg xmlns="http://www.w3.org/2000/svg" viewBox="0 0 512 512" xmlns:v="https://vecta.io/nano"><path d="M256 512c31.314 0 61.31-5.632 89.043-15.923L356.174 256l-11.13-240.077C317.31 5.633 287.314 0 256 0s-61.31 5.633-89.043 15.923L155.826 256l11.13 240.077C194.69 506.368 224.686 512 256 512z" fill="#0052b4"/><path d="M0 256c0 110.07 69.472 203.906 166.957 240.077V15.923C69.472 52.094 0 145.93 0 256zM345.043 15.923v480.155C442.528 459.906 512 366.07 512 256S442.528 52.094 345.043 15.923z" fill="#a2001d"/><g fill="#ffda44"><path d="M122.435 256h22.26v89.043h-22.26zM33.4 256h22.26v89.043H33.4z"/><circle cx="89.043" cy="289.391" r="22.261"/><circle cx="89.043" cy="211.478" r="11.13"/><path d="M66.783 322.783h44.522v22.26H66.783zm0-89.043h44.522V256H66.783zm22.26-100.175l7.884 24.26h25.508L101.8 172.82l7.878 24.26-20.635-14.994L68.4 197.08l7.878-24.26-20.635-14.994H81.16z"/></g></svg>