<svg xmlns="http://www.w3.org/2000/svg" viewBox="0 0 512 512" xmlns:v="https://vecta.io/nano"><circle cx="256" cy="256" r="256" fill="#496e2d"/><path d="M300.522 245.325c-6.284 0-12.25 1.253-17.8 3.247 3.035-6.764 5.07-14.3 5.07-22.327 0-31.8-31.8-55.652-31.8-55.652s-31.8 23.85-31.8 55.652c0 8.036 2.035 15.563 5.07 22.327-5.54-1.992-11.507-3.247-17.8-3.247-31.8 0-55.652 31.8-55.652 31.8s23.85 31.802 55.652 31.802c18.645 0 34.547-10.928 44.522-19.974 9.975 9.045 25.877 19.974 44.522 19.974 31.8 0 55.652-31.802 55.652-31.802s-23.853-31.8-55.654-31.8z" fill="#f0f0f0"/><path d="M256 100.174l6.57 20.216h21.257l-17.195 12.496 6.564 20.216L256 140.606l-17.195 12.496 6.564-20.216-17.195-12.496h21.257zm-80.833 35.36l12.638 11.378 14.727-8.502-6.916 15.535 12.637 11.38-16.912-1.778-6.916 15.535-3.538-16.633-16.9-1.778 14.726-8.504zm-59.173 59.174l16.634 3.535 8.503-14.727 1.778 16.9 16.632 3.538-15.534 6.917 1.778 16.9-11.38-12.635-15.534 6.916 8.503-14.728zm220.84-59.174l-12.637 11.378-14.727-8.502 6.915 15.535-12.636 11.38 16.912-1.778 6.916 15.535 3.538-16.633 16.9-1.778-14.726-8.504zm59.174 59.174l-16.634 3.535-8.502-14.727-1.78 16.9-16.632 3.538 15.534 6.917-1.778 16.9 11.38-12.635 15.534 6.916-8.503-14.728z" fill="#ffda44"/><path d="M256 397.972a110.77 110.77 0 0 0 67.223-22.61H188.778c18.678 14.18 41.96 22.6 67.222 22.6zM153.967 331.2a111.29 111.29 0 0 0 13.275 22.61H344.76c5.262-6.95 9.742-14.523 13.275-22.6H153.967z" fill="#f0f0f0"/></svg>