<svg xmlns="http://www.w3.org/2000/svg" viewBox="0 0 512 512" xmlns:v="https://vecta.io/nano"><circle cx="256" cy="256" r="256" fill="#338af3"/><path d="M247.93 417.2c-6.9-.334-12.61-4.82-14.848-10.908h0c-3.95 5.153-10.74 7.747-17.43 6.022h0c-6.7-1.725-11.386-7.268-12.355-13.702h0c-4.92 4.25-12.088 5.408-18.287 2.37h0c-6.21-3.05-9.683-9.43-9.327-15.918h0c-5.665 3.183-12.922 2.872-18.387-1.358h0c-5.454-4.23-7.58-11.164-5.933-17.453h0c-6.19 1.98-13.223.223-17.73-5.02h0c-4.508-5.23-5.2-12.455-2.326-18.276h0c-6.456.69-13-2.45-16.362-8.48h0c-3.373-6.033-2.593-13.256 1.402-18.39h0c-6.467-.623-12.255-5.02-14.325-11.61h0c-2.08-6.59.145-13.512 5.098-17.73h0c-6.21-1.916-10.975-7.392-11.676-14.258h0c-.7-6.867 2.86-13.178 8.548-16.317h0c-5.688-3.117-9.272-9.427-8.593-16.284h.01c.68-6.88 5.443-12.365 11.642-14.303h0c-4.953-4.207-7.2-11.12-5.142-17.71h0c2.06-6.6 7.835-11.008 14.303-11.654h0c-3.996-5.12-4.797-12.345-1.447-18.387h0c3.35-6.033 9.895-9.183 16.362-8.504h0c-2.894-5.82-2.215-13.045 2.282-18.298h0c4.486-5.242 11.52-7.012 17.72-5.053h0c-1.67-6.278.445-13.223 5.9-17.463h0c5.443-4.242 12.7-4.565 18.365-1.404h0c-.367-6.488 3.094-12.867 9.294-15.928h0c6.19-3.05 13.368-1.914 18.298 2.337h0c.946-6.432 5.632-11.997 12.32-13.735h0c6.678-1.736 13.468.835 17.43 5.977h0c2.237-6.088 7.936-10.585 14.837-10.93h0c6.9-.355 13.01 3.517 15.86 9.34h0c3.406-5.52 9.884-8.793 16.707-7.758h0c6.834 1.024 12.077 6.054 13.702 12.344h0c4.452-4.743 11.464-6.623 17.942-4.242h0c6.49 2.393 10.607 8.38 10.92 14.88h0c5.31-3.74 12.566-4.174 18.432-.523h0c5.866 3.64 8.682 10.33 7.68 16.75h0c5.955-2.593 13.145-1.558 18.154 3.183h0c5.01 4.753 6.433 11.865 4.163 17.953h0c6.355-1.347 13.2 1.102 17.152 6.767h0c3.962 5.654 3.93 12.91.5 18.42h0a16.72 16.72 0 0 1 15.438 10.073h0c2.738 6.344 1.235 13.457-3.25 18.165h0c6.378 1.27 11.687 6.222 13.09 12.99h0c1.39 6.767-1.514 13.412-6.845 17.12h0c5.966 2.528 10.173 8.437 10.184 15.338h0v.368c0 6.9-4.185 12.822-10.15 15.37h0c5.343 3.685 8.27 10.33 6.88 17.096h0c-1.38 6.767-6.678 11.732-13.056 13.023h0c4.497 4.697 6.022 11.798 3.295 18.154h0c-2.727 6.344-8.927 10.14-15.427 10.106h0c3.45 5.5 3.506 12.767-.445 18.432h0c-3.95 5.667-10.774 8.137-17.13 6.8h0c2.282 6.077.868 13.2-4.13 17.965h0c-5.01 4.754-12.188 5.8-18.143 3.228h0c1.013 6.41-1.792 13.112-7.647 16.774h0c-5.855 3.662-13.112 3.238-18.432-.5h0c-.3 6.5-4.397 12.5-10.874 14.904h0-.01c-6.478 2.393-13.5.524-17.953-4.206h0c-1.603 6.3-6.834 11.34-13.668 12.388h0c-6.823 1.035-13.312-2.215-16.73-7.736h0c-2.716 5.6-8.46 9.405-15.004 9.405h0c-.28.004-.557-.007-.836-.02z" fill="#f3f3f3"/><circle cx="256" cy="256" r="111.304" fill="#338af3"/><path d="M280.363 218.22c5.468-4.056 9.028-10.54 9.028-17.87v-11.13c0-12.295-9.966-22.26-22.26-22.26h-22.26c-12.295 0-22.26 9.966-22.26 22.26v11.13c0 7.332 3.56 13.815 9.028 17.87L211.48 422.956s11.13 11.132 44.522 11.132 44.522-11.132 44.522-11.132l-20.16-204.737z" fill="#bdbcc1"/><path d="M256 166.957l19.338 59.518h62.585l-50.63 36.788 19.337 59.52L256 285.998l-50.632 36.785 19.34-59.52-50.63-36.788h62.583z" fill="#f0f0f0"/></svg>