<svg xmlns="http://www.w3.org/2000/svg" viewBox="0 0 512 512" xmlns:v="https://vecta.io/nano"><circle cx="256" cy="256" r="256" fill="#f0f0f0"/><path d="M509.806 222.608c-7.062-53.986-31.312-106.152-72.787-147.627S343.377 9.255 289.4 2.193l.001 220.415h220.414zM222.608 2.193C168.622 9.255 116.455 33.505 74.98 74.98S9.255 168.623 2.193 222.6H222.61l-.001-220.416zM2.193 289.392C9.255 343.378 33.506 395.546 74.98 437.02s93.64 65.724 147.63 72.8l-.001-220.415-220.415-.002zm287.2 220.414c53.986-7.062 106.152-31.312 147.627-72.787s65.725-93.64 72.787-147.627H289.392v220.414z" fill="#0052b4"/><path d="M343.4 162.438a6.18 6.18 0 0 1 6.172-6.171h13.224c20.904 0 37.9-17.006 37.9-37.9s-17.006-37.9-37.9-37.9h-12.558c-4.1-3.08-9.598-4.978-15.664-4.978-12.653 0-22.9 8.205-22.9 18.327 0 10.024 10.06 18.156 22.545 18.314l-.006.073h28.593a6.18 6.18 0 0 1 6.172 6.172 6.18 6.18 0 0 1-6.172 6.171H349.56c-20.904 0-37.9 17.006-37.9 37.9s17.004 37.9 37.9 37.9h51.134v-31.738H349.56c-3.405.001-6.172-2.766-6.172-6.17zm-200.348 0a6.18 6.18 0 0 1 6.172-6.171h13.224c20.904 0 37.9-17.006 37.9-37.9s-17.006-37.9-37.9-37.9H149.88c-4.1-3.08-9.598-4.978-15.664-4.978-12.653 0-22.9 8.205-22.9 18.327 0 10.024 10.06 18.156 22.545 18.314l-.006.073h28.594a6.18 6.18 0 0 1 6.172 6.172 6.18 6.18 0 0 1-6.172 6.171h-13.224c-20.904 0-37.9 17.006-37.9 37.9s17.004 37.9 37.9 37.9h51.133v-31.738h-51.134c-3.405.001-6.172-2.766-6.172-6.17zM343.4 398.62a6.18 6.18 0 0 1 6.172-6.171h13.224c20.904 0 37.9-17.006 37.9-37.9s-17.006-37.9-37.9-37.9h-12.558c-4.1-3.08-9.598-4.978-15.664-4.978-12.654 0-22.9 8.206-22.9 18.327 0 10.024 10.06 18.156 22.545 18.314l-.006.073h28.593a6.18 6.18 0 0 1 6.172 6.172 6.18 6.18 0 0 1-6.172 6.171H349.56c-20.904 0-37.9 17.006-37.9 37.9s17.004 37.9 37.9 37.9h51.135V404.8H349.56a6.18 6.18 0 0 1-6.172-6.171zm-200.348 0a6.18 6.18 0 0 1 6.172-6.171h13.224c20.904 0 37.9-17.006 37.9-37.9s-17.006-37.9-37.9-37.9H149.88c-4.1-3.08-9.598-4.978-15.664-4.978-12.654 0-22.9 8.206-22.9 18.327 0 10.024 10.06 18.156 22.545 18.314l-.006.073h28.594a6.18 6.18 0 0 1 6.172 6.172 6.18 6.18 0 0 1-6.172 6.171h-13.224c-20.904 0-37.9 17.006-37.9 37.9s17.004 37.9 37.9 37.9h51.134V404.8h-51.134a6.18 6.18 0 0 1-6.172-6.171z" fill="#f0f0f0"/></svg>