<svg xmlns="http://www.w3.org/2000/svg" viewBox="0 0 512 512" xmlns:v="https://vecta.io/nano"><path d="M512 256c0 141.384-114.616 256-256 256S0 397.384 0 256C0 256.06 256 .028 256 0c141.384 0 256 114.616 256 256z" fill="#0052b4"/><g fill="#f0f0f0"><path d="M256 0h-.043.043zm-.685 256H256v-.685l-.685.685z"/><path d="M256 133.565L255.957 0C114.59.024 0 114.63 0 256h133.565v-75.21l75.21 75.21h46.54l.685-.685v-46.537l-75.213-75.213H256z"/></g><path d="M129.515 33.4C89.476 56.2 56.2 89.476 33.4 129.515V256h66.783V100.174H256V33.4H129.515zM256 224.52l-90.955-90.953-31.48.002L256 256v-31.48z" fill="#d80027"/><path d="M289.39 133.565V256c0 59.64 77.913 77.914 77.913 77.914S445.217 315.64 445.217 256V133.565H289.39z" fill="#338af3"/><path d="M289.39 256c0 59.64 77.913 77.914 77.913 77.914S445.217 315.64 445.217 256H289.39z" fill="#a2001d"/><path d="M400.696 189.22h-22.262v-22.262h-22.26v22.262h-22.26v22.26h22.26v66.782h22.26V211.48h22.262z"/></svg>