<svg xmlns="http://www.w3.org/2000/svg" viewBox="0 0 512 512" xmlns:v="https://vecta.io/nano"><path d="M0 256c0 31.314 5.633 61.3 15.923 89.043L256 356.174l240.077-11.13C506.368 317.3 512 287.314 512 256s-5.632-61.3-15.923-89.043L256 155.826l-240.077 11.13C5.633 194.7 0 224.686 0 256z" fill="#d80027"/><path d="M256 0C145.93 0 52.094 69.472 15.923 166.957h480.155C459.906 69.472 366.07 0 256 0z"/><path d="M496.077 345.043H15.923C52.094 442.527 145.93 512 256 512s203.906-69.473 240.077-166.957z" fill="#496e2d"/><path d="M332.515 122.435L301.25 107.73l16.65-30.28-33.95 6.495-4.302-34.298L256 74.872l-23.647-25.225-4.303 34.298-33.95-6.495 16.65 30.28-31.265 14.706z" fill="#d80027"/></svg>