<svg xmlns="http://www.w3.org/2000/svg" viewBox="0 0 512 512" xmlns:v="https://vecta.io/nano"><circle cx="256" cy="256" r="256" fill="#f0f0f0"/><path d="M512 256c0-101.494-59.065-189.2-144.696-230.598v461.195C452.935 445.2 512 357.494 512 256z" fill="#d80027"/><path d="M0 256c0 101.494 59.065 189.2 144.696 230.598V25.402C59.065 66.8 0 154.506 0 256zm189.217 0c0 36.883 29.9 66.783 66.783 66.783s66.783-29.9 66.783-66.783v-22.26H189.217V256z" fill="#6da544"/><path d="M345.043 211.478H278.26c0-12.294-9.967-22.26-22.26-22.26s-22.26 9.967-22.26 22.26h-66.783c0 12.295 10.71 22.26 23.002 22.26h-.74c0 12.295 9.966 22.26 22.26 22.26 0 12.295 9.966 22.26 22.26 22.26h44.522c12.295 0 22.26-9.966 22.26-22.26 12.295 0 22.26-9.966 22.26-22.26h-.742c12.295 0 23.003-9.966 23.003-22.26z" fill="#ff9811"/></svg>