<svg xmlns="http://www.w3.org/2000/svg" viewBox="0 0 512 512" xmlns:v="https://vecta.io/nano"><circle cx="256" cy="256" r="256" fill="#f0f0f0"/><path d="M244.87 256H512a256.28 256.28 0 0 0-8.819-66.783H244.87V256zm0-133.565h229.556c-15.67-25.572-35.706-48.175-59.07-66.783H244.87v66.783zM256 512c60.25 0 115.626-20.824 159.357-55.652H96.643C140.374 491.176 195.75 512 256 512zM37.574 389.565h436.852a254.54 254.54 0 0 0 28.755-66.783H8.82a254.46 254.46 0 0 0 28.755 66.783z" fill="#d80027"/><path d="M256 256V0C114.616 0 0 114.616 0 256h256z" fill="#0052b4"/><path d="M170.234 219.13c-34.962 0-63.304-28.343-63.304-63.304s28.343-63.304 63.304-63.304a63.02 63.02 0 0 1 30.113 7.609c-14.048-13.737-33.26-22.217-54.46-22.217-43.03 0-77.913 34.883-77.913 77.913s34.884 77.913 77.913 77.913c21.2 0 40.413-8.48 54.46-22.217-8.955 4.85-19.2 7.607-30.113 7.607zm17.84-107.826l11.24 23.502 25.38-5.864-11.366 23.44 20.412 16.187-25.414 5.73.07 26.05-20.323-16.298-20.324 16.298.07-26.05-25.414-5.73 20.412-16.187-11.367-23.44 25.383 5.864z" fill="#ffda44"/></svg>