<svg xmlns="http://www.w3.org/2000/svg" viewBox="0 0 512 512" xmlns:v="https://vecta.io/nano"><circle cx="256" cy="256" r="256" fill="#f0f0f0"/><path d="M138.37 356.174L74.99 437.01C121.313 483.34 185.306 512 256 512c105.83 0 196.644-64.23 235.63-155.826H138.37z" fill="#ffda44"/><path d="M492.03 156.753C453.26 64.662 362.188 0 256 0 185.306 0 121.313 28.66 74.99 74.99l64.1 81.764h352.93z" fill="#496e2d"/><path d="M55.652 188.3v134.492h447.53C508.924 301.49 512 279.107 512 256c0-23.442-3.158-46.142-9.06-67.7H55.652z"/><path d="M74.98 74.98c-99.974 99.974-99.974 262.065 0 362.04L256 256 74.98 74.98z" fill="#a2001d"/><path d="M103.6 189.217l16.575 51.016h53.646l-43.398 31.532 16.574 51.018-43.397-31.53-43.4 31.53 16.578-51.018-43.398-31.532h53.642z" fill="#ffda44"/><path d="M55.107 256h97.024v44.522H55.107z" fill="#f0f0f0"/><path d="M170.5 204.96l-15.74-15.742-51.148 51.148-51.148-51.148-15.74 15.742 51.193 51.102-51.193 51.194 15.74 15.528 51.148-51.056 51.148 51.056 15.74-15.528-51.193-51.194z"/></svg>