<svg xmlns="http://www.w3.org/2000/svg" viewBox="0 0 512 512" xmlns:v="https://vecta.io/nano"><circle cx="256" cy="256" r="256" fill="#f0f0f0"/><path d="M74.98 437.02c10.74 10.74 22.197 20.316 34.216 28.748l356.57-356.57c-8.43-12.02-18.008-23.477-28.748-34.216s-22.197-20.315-34.216-28.747L46.234 402.805a257.57 257.57 0 0 0 28.747 34.215z" fill="#a2001d"/><path d="M74.98 74.98c-80.764 80.764-96.268 202.056-46.545 298.398l344.942-344.94C277.036-21.286 155.743-5.78 74.98 74.98z" fill="#0052b4"/><path d="M437.02 437.02c80.762-80.762 96.266-202.055 46.545-298.398L138.622 483.564c96.34 49.723 217.634 34.22 298.397-46.544z" fill="#496e2d"/><path d="M211.478 144.696l-28.686 13.493 15.276 27.782-31.15-5.958-3.948 31.465-21.696-23.143-21.697 23.143-3.946-31.465-31.15 5.957 15.275-27.782-28.685-13.492 28.686-13.494-15.276-27.78 31.15 5.958 3.948-31.467 21.696 23.144 21.697-23.144 3.947 31.467 31.15-5.958-15.274 27.78z" fill="#ffda44"/></svg>