<svg xmlns="http://www.w3.org/2000/svg" viewBox="0 0 512 512" xmlns:v="https://vecta.io/nano"><path d="M367.304 25.402C333.648 9.128 295.89 0 256 0s-77.648 9.128-111.304 25.402L122.435 256l22.26 230.598C178.352 502.872 216.11 512 256 512s77.648-9.128 111.304-25.402L389.565 256l-22.26-230.598z" fill="#f0f0f0"/><path d="M144.696 25.4C59.065 66.817 0 154.506 0 256s59.065 189.183 144.696 230.6V25.4zm222.608 0V486.6C452.935 445.183 512 357.493 512 256S452.935 66.817 367.304 25.4zm-44.52 308.503L256 122.435l-66.783 211.478h50.087v55.652h33.392v-55.652z" fill="#6da544"/></svg>