<svg xmlns="http://www.w3.org/2000/svg" viewBox="0 0 512 512" xmlns:v="https://vecta.io/nano"><circle cx="256" cy="256" r="256" fill="#f0f0f0"/><path d="M256 0C154.506 0 66.8 59.065 25.402 144.696h461.195C445.2 59.065 357.493 0 256 0zm0 512c101.493 0 189.2-59.065 230.598-144.696H25.402C66.8 452.935 154.506 512 256 512z" fill="#338af3"/><path d="M256 178.087c-43.03 0-77.913 34.883-77.913 77.913S212.97 333.913 256 333.913 333.913 299.03 333.913 256 299.03 178.087 256 178.087zm0 122.435c-24.588 0-44.522-19.932-44.522-44.522S231.41 211.478 256 211.478 300.522 231.4 300.522 256 280.588 300.522 256 300.522z" fill="#ffda44"/><path d="M294.558 267.13L256 256l-38.558 11.13-12.852 22.26h102.82z" fill="#0052b4"/><path d="M256 200.348l-25.705 44.522L256 256l25.705-11.13z" fill="#338af3"/><path d="M217.442 267.13h77.116l-12.853-22.26h-51.4z" fill="#6da544"/></svg>