<svg xmlns="http://www.w3.org/2000/svg" viewBox="0 0 512 512" xmlns:v="https://vecta.io/nano"><circle cx="256" cy="256" r="256" fill="#f0f0f0"/><path d="M8.82 322.783c14.812 54.96 47.457 102.593 91.355 136.322V322.783H8.82zm224.92 188.243A259.29 259.29 0 0 0 256 512c118.28 0 217.805-80.22 247.18-189.217H233.74v188.243zm269.44-321.81C473.805 80.22 374.28 0 256 0a259.29 259.29 0 0 0-22.261.974v188.243h269.44zM100.174 52.895C56.276 86.625 23.63 134.258 8.82 189.217h91.355V52.895z" fill="#d80027"/><path d="M509.833 222.61H200.348V6.085c-23.658 5.246-46.087 13.75-66.783 25.042v191.48H2.167A258.2 258.2 0 0 0 0 256c0 11.317.742 22.46 2.167 33.39h131.398v191.48c20.696 11.292 43.125 19.797 66.783 25.042V289.392h309.485C511.256 278.46 512 267.317 512 256a258.53 258.53 0 0 0-2.167-33.391z" fill="#0052b4"/></svg>