<svg xmlns="http://www.w3.org/2000/svg" viewBox="0 0 512 512" xmlns:v="https://vecta.io/nano"><circle cx="256" cy="256" r="256" fill="#f0f0f0"/><g fill="#0052b4"><path d="M510.497 283.826l-.006-.008-.001.008z"/><path d="M510.5 283.826L229.746 1.33a255.17 255.17 0 0 0-37.109 6.574C81.898 36.1 0 256 0 256s358.398 239.835 399.285 212.164a256.89 256.89 0 0 0 23.493-17.953L256.395 283.826H510.5z"/></g><path d="M445.217 256L196.245 7.03C83.688 33.946 0 135.192 0 256c0 141.384 114.616 256 256 256 53.63 0 103.397-16.502 144.53-44.69L189.217 256h256z" fill="#d80027"/><path d="M243.472 377.993l-31.265-14.706 16.65-30.28-33.95 6.495-4.302-34.298-23.647 25.225-23.647-25.225-4.303 34.298-33.95-6.496 16.65 30.28-31.266 14.706 31.266 14.705-16.65 30.28 33.95-6.494 4.3 34.296 23.648-25.225 23.647 25.225 4.302-34.296 33.95 6.495-16.65-30.28zm-20.862-236l-22.74-10.695 12.1-22.023-24.693 4.724-3.13-24.946-17.2 18.347-17.2-18.347-3.13 24.946-24.693-4.724 12.1 22.023-22.74 10.695 55.653 11.132zm11.13 0c0 36.883-29.9 66.783-66.783 66.783s-66.783-29.9-66.783-66.783" fill="#f0f0f0"/></svg>