<svg xmlns="http://www.w3.org/2000/svg" viewBox="0 0 512 512" xmlns:v="https://vecta.io/nano"><circle cx="256" cy="256" r="256" fill="#0052b4"/><circle cx="256" cy="256" r="256" fill="#ffda44"/><path d="M256 0C122.116 0 12.258 102.78.975 233.74h510.05C499.742 102.78 389.884 0 256 0zm0 512c133.884 0 243.742-102.78 255.026-233.74H.975C12.258 409.22 122.116 512 256 512z" fill="#0052b4"/><path d="M211.48 345.043l-28.686 13.494 15.275 27.78-31.15-5.96-3.947 31.467-21.697-23.143-21.696 23.143-3.947-31.467-31.15 5.958 15.276-27.78-28.686-13.493L99.76 331.55l-15.277-27.78 31.15 5.958 3.95-31.467 21.695 23.143 21.698-23.143 3.946 31.467 31.15-5.958-15.275 27.78z" fill="#f0f0f0"/></svg>