<svg xmlns="http://www.w3.org/2000/svg" viewBox="0 0 512 512" xmlns:v="https://vecta.io/nano"><path d="M256 0h-.043.043z" fill="#f0f0f0"/><path d="M512 256c0 141.384-114.616 256-256 256S0 397.384 0 256C0 256.06 256 .028 256 0c141.384 0 256 114.616 256 256z" fill="#ffda44"/><path d="M256 122.435v86.343l-89.043-86.343zM133.565 256h75.2l-75.2-100.174-11.13 77.913z" fill="#0052b4"/><g fill="#f0f0f0"><path d="M255.315 256H256v-.685l-.685.685z"/><path d="M256 133.565L255.957 0C114.59.024 0 114.63 0 256h133.565v-75.21l75.21 75.21h46.54l.685-.685v-46.537l-75.213-75.213H256z"/></g><path d="M256 224.52l-90.955-90.953-31.48.002L256 256v-31.48zM129.515 33.4C119.645 39 110.19 45.273 101.2 52.1h10.504L83.94 72.285l10.602 32.637-27.762-20.17-2.954 2.147a256.93 256.93 0 0 0-30.436 42.616V256h66.783V100.174H256V33.4H129.515z" fill="#d80027"/><path d="M109.36 46.152c-2.76 1.933-5.483 3.92-8.164 5.96L83.94 72.285l-20.14 14.63c-6.286 7.14-12.18 14.632-17.65 22.445a47.12 47.12 0 0 0 20.63 4.727c26.126 0 47.304-21.178 47.304-47.304a47.08 47.08 0 0 0-4.725-20.631z" fill="#0052b4"/><path d="M63.803 86.915l2.98-2.164 27.762 20.17L83.94 72.285 111.7 52.1h-10.506a257.61 257.61 0 0 0-37.392 34.804zm113.14-42.393l5.526 17.005h17.88l-14.465 10.5 5.523 17.005-14.464-10.5-14.465 10.5L168 72.038l-14.465-10.5h17.88zM66.783 155.826l5.526 17.005h17.88l-14.464 10.512 5.523 17.005-14.465-10.5-14.466 10.5 5.523-17.005-14.464-10.512h17.88z" fill="#ffda44"/></svg>