<svg xmlns="http://www.w3.org/2000/svg" viewBox="0 0 512 512" xmlns:v="https://vecta.io/nano"><path d="M512 256c0 141.384-114.616 256-256 256S0 397.384 0 256C0 256.06 256 .028 256 0c141.384 0 256 114.616 256 256z" fill="#0052b4"/><g fill="#f0f0f0"><path d="M256 0h-.043.043zm-.685 256H256v-.685l-.685.685z"/><path d="M256 133.565L255.957 0C114.592.024 0 114.63 0 256h133.565v-75.21L208.777 256h46.54l.685-.685v-46.537l-75.213-75.213H256z"/></g><path d="M129.515 33.4a257.39 257.39 0 0 0-96.125 96.125V256h66.783V100.174H256V33.4H129.515zM256 224.52l-90.953-90.953-31.48.002L256 256v-31.48zm187.33-34.56l5.525 17.006h17.88l-14.466 10.5 5.526 17.005-14.466-10.5-14.467 10.5 5.526-17.005-14.467-10.5h17.88zM379.4 312.393l8.3 25.5h26.82l-21.7 15.764 8.3 25.5-21.7-15.765-21.7 15.765 8.3-25.5-21.7-15.764h26.82zm2.415-200.347l6.908 21.26h22.35L393 146.44l6.908 21.258-18.083-13.14-18.082 13.14 6.907-21.258-18.082-13.135h22.35zm-61.503 77.17l8.288 25.5h26.822l-21.7 15.764 8.3 25.5-21.7-15.765-21.7 15.765 8.3-25.5-21.7-15.764h26.82z" fill="#d80027"/></svg>