<svg xmlns="http://www.w3.org/2000/svg" viewBox="0 0 512 512" xmlns:v="https://vecta.io/nano"><circle cx="256" cy="256" r="256" fill="#f0f0f0"/><g fill="#d80027"><path d="M0 256c0 97.035 54 181.455 133.565 224.873V31.127C54 74.545 0 158.965 0 256z"/><path d="M496.078 345.043C506.368 317.3 512 287.314 512 256s-5.632-61.31-15.922-89.043H15.924C5.633 194.69 0 224.686 0 256s5.633 61.3 15.924 89.043L256 367.304l240.078-22.26z"/></g><path d="M256,512c110.072,0,203.906-69.472,240.078-166.957H15.924C52.094,442.528,145.93,512,256,512z" fill="#6da544"/><path d="M0 256c0 118.28 80.22 217.805 189.217 247.18V8.82C80.22 38.195 0 137.72 0 256z" fill="#d80027"/><path d="M156.617 112.654l-23.61-23.61-15.74 15.742-15.74-15.742-23.61 23.61 15.74 15.74-15.743 15.742 23.61 23.61 15.74-15.742 15.74 15.742 23.61-23.61-15.74-15.742z" fill="#f0f0f0"/></svg>