<svg xmlns="http://www.w3.org/2000/svg" viewBox="0 0 512 512" xmlns:v="https://vecta.io/nano"><path d="M437.02 437.02c-99.974 99.974-262.064 99.974-362.04 0s-99.974-262.065.001-362.04S321.304-9.254 421.278 90.72 536.993 337.045 437.02 437.02z"/><path d="M74.98 74.98c99.974-99.974 262.063-99.972 362.04.001s99.974 262.064 0 362.04" fill="#a2001d"/><path d="M195.642 345.044l4.144 12.755h13.4l-10.85 7.882 4.145 12.755-10.85-7.883-10.85 7.883 4.144-12.755-10.85-7.882h13.4zM161.4 222.6l6.9 21.258h22.35l-18.083 13.137 6.907 21.258-18.083-13.14-18.082 13.14 6.908-21.258-18.084-13.137h22.352zm0 155.826l6.907 21.258h22.352l-18.085 13.136 6.9 21.258-18.083-13.14-18.082 13.14 6.906-21.258-18.082-13.136h22.35zm65.35-100.174l6.9 21.258H256l-18.083 13.136 6.907 21.258-18.083-13.14-18.082 13.14 6.908-21.258-18.083-13.136h22.35zm-130.7 0l6.9 21.258h22.35l-18.082 13.136 6.906 21.258-18.082-13.14-18.083 13.14 6.9-21.258-18.084-13.136h22.35z" fill="#f0f0f0"/><path d="M428.55 189.56c-11.44-11.44-26.307-18.2-42.282-19.36l47.82-37.193c-19.045-19.045-44.57-27.646-69.48-25.827a66.46 66.46 0 0 0-17.094-29.265l-18.89 37.778c-1.24-2.258-2.808-4.383-4.722-6.296-10.868-10.867-28.486-10.867-39.352 0s-10.868 28.485 0 39.352a27.84 27.84 0 0 0 6.297 4.722l-37.778 18.89a66.45 66.45 0 0 0 29.28 17.099c-1.825 24.908 6.767 50.43 25.813 69.476l41.78-53.718c3.143-3.095 7.294-4.804 11.7-4.804 4.46 0 8.652 1.736 11.805 4.89a16.58 16.58 0 0 1 4.891 11.805c0 4.46-1.737 8.652-4.89 11.806l15.742 15.742c7.357-7.358 11.4-17.14 11.4-27.547 0-8.514-2.716-16.608-7.73-23.3a44.23 44.23 0 0 1 19.931 11.494c17.36 17.36 17.36 45.605 0 62.963l15.742 15.742c12.613-12.614 19.56-29.384 19.56-47.223s-6.95-34.61-19.564-47.225z" fill="#ffda44"/></svg>