<svg xmlns="http://www.w3.org/2000/svg" viewBox="0 0 512 512" xmlns:v="https://vecta.io/nano"><circle cx="256" cy="256" r="256" fill="#f0f0f0"/><path d="M256 0v256L74.98 437.02C121.307 483.346 185.307 512 256 512c141.384 0 256-114.616 256-256S256 0 256 0z" fill="#d80027"/><path d="M256 0C185.307 0 121.307 28.654 74.98 74.98L256 256h256C512 114.616 397.384 0 256 0z" fill="#0052b4"/><path d="M175.3 256l-31.264-14.706 16.65-30.28-33.95 6.495-4.302-34.297-23.648 25.224-23.647-25.224-4.303 34.297-33.95-6.496 16.65 30.28L22.26 256l31.265 14.706-16.65 30.28 33.952-6.494 4.3 34.296 23.648-25.224 23.648 25.224 4.302-34.296 33.948 6.495-16.648-30.28zM68.273 100.174l10.404 14.543 17.045-5.4-10.618 14.388 10.404 14.543-16.966-5.65-10.617 14.387.133-17.88-16.965-5.652 17.048-5.4zm0 264.84l10.404 14.543 17.045-5.4-10.618 14.4L95.508 403.1l-16.966-5.65-10.617 14.387.133-17.88-16.965-5.652 17.048-5.4zm148.393-132.42l-10.403 14.543-17.046-5.4 10.618 14.4-10.404 14.544 16.966-5.652 10.618 14.387-.134-17.88 16.965-5.652-17.047-5.4z" fill="#ffda44"/></svg>