<svg xmlns="http://www.w3.org/2000/svg" viewBox="0 0 512 512" xmlns:v="https://vecta.io/nano"><g fill="#f0f0f0"><circle cx="256" cy="256" r="256"/><path d="M0 256c0 97.035 53.99 181.454 133.565 224.873V31.127C53.99 74.546 0 158.965 0 256z"/></g><path d="M256 0c-44.35 0-86.064 11.283-122.435 31.127v449.745C169.936 500.717 211.65 512 256 512c141.384 0 256-114.616 256-256S397.384 0 256 0z" fill="#496e2d"/><path d="M365.453 298.337c-32.387 23.4-77.613 16.117-101.013-16.27s-16.117-77.613 16.27-101.013c10.098-7.296 21.444-11.6 32.987-13.108-22.207-3.32-45.682 1.683-65.32 15.872-39.86 28.802-48.827 84.463-20.026 124.325s84.463 48.827 124.325 20.023c19.64-14.2 31.76-34.902 35.578-57.03-5.046 10.486-12.703 19.904-22.802 27.2zm-1.387-131.377l18.244 19.66 24.336-11.272-13.063 23.424 18.243 19.663-26.316-5.185-13.062 23.426-3.2-26.63-26.316-5.185 24.337-11.272z" fill="#f0f0f0"/></svg>