<svg xmlns="http://www.w3.org/2000/svg" viewBox="0 0 512 512" xmlns:v="https://vecta.io/nano"><path d="M0 256c0 110.07 69.472 203.905 166.955 240.076L189.217 256 166.955 15.923C69.472 52.095 0 145.93 0 256z" fill="#6da544"/><path d="M512 256C512 114.616 397.384 0 256 0c-31.314 0-61.31 5.633-89.045 15.923v480.154C194.69 506.368 224.686 512 256 512c141.384 0 256-114.616 256-256z" fill="#d80027"/><circle cx="166.957" cy="256" r="89.043" fill="#ffda44"/><path d="M116.87 211.478v55.652c0 27.662 22.424 50.087 50.087 50.087s50.087-22.424 50.087-50.087v-55.652H116.87z" fill="#d80027"/><path d="M166.957 283.826a16.72 16.72 0 0 1-16.696-16.696v-22.26h33.39v22.26c0 9.205-7.5 16.695-16.695 16.695z" fill="#f0f0f0"/></svg>