<svg xmlns="http://www.w3.org/2000/svg" viewBox="0 0 512 512" xmlns:v="https://vecta.io/nano"><circle cx="256" cy="256" r="256" fill="#f0f0f0"/><path d="M256 0C154.506 0 66.8 59.065 25.402 144.696h461.195C445.2 59.065 357.493 0 256 0z" fill="#d80027"/><path d="M256 512c101.493 0 189.2-59.065 230.598-144.696H25.402C66.8 452.935 154.506 512 256 512z" fill="#0052b4"/><path d="M318.963 181.907l-23.61 23.61c10.07 10.07 16.3 23.984 16.3 39.352 0 30.736-24.917 55.652-55.652 55.652s-55.652-24.917-55.652-55.652c0-15.368 6.23-29.28 16.3-39.352l-23.61-23.61c-16.115 16.112-26.08 38.373-26.08 62.963 0 49.178 39.866 89.043 89.043 89.043s89.043-39.866 89.043-89.043c-.001-24.6-9.967-46.85-26.08-62.963z" fill="#6da544"/><path d="M256 211.478l8.29 25.5h26.82l-21.7 15.764 8.29 25.51-21.7-15.765-21.7 15.765 8.29-25.51-21.7-15.764h26.82z" fill="#ffda44"/></svg>