<svg xmlns="http://www.w3.org/2000/svg" viewBox="0 0 512 512" xmlns:v="https://vecta.io/nano"><path d="M345.043 15.922C317.31 5.633 287.314 0 256 0s-61.3 5.633-89.043 15.922L144.696 256l22.26 240.077C194.69 506.368 224.685 512 256 512s61.3-5.632 89.043-15.924L367.303 256l-22.26-240.078z" fill="#ffda44"/><path d="M512 256c0-110.07-69.472-203.907-166.957-240.077V496.08C442.528 459.905 512 366.072 512 256z" fill="#d80027"/><path d="M0 256c0 110.073 69.472 203.906 166.955 240.08l.001-480.154C69.472 52.094 0 145.928 0 256z" fill="#0052b4"/></svg>