<svg xmlns="http://www.w3.org/2000/svg" viewBox="0 0 512 512" xmlns:v="https://vecta.io/nano"><circle cx="256" cy="256" r="256" fill="#6da544"/><path d="M144.696 306.087c0 18.44 14.95 33.4 33.4 33.4H278.26c0 15.368 12.458 27.826 27.826 27.826h33.4c15.368 0 27.826-12.458 27.826-27.826v-33.4H144.696zm225.39-161.39v77.913c0 12.275-9.986 22.26-22.26 22.26v33.4c30.687 0 55.652-24.966 55.652-55.652v-77.913h-33.4zM130.783 222.6c0 12.275-9.986 22.26-22.26 22.26v33.4c30.687 0 55.652-24.966 55.652-55.652v-77.913h-33.4v77.913zM320 144.696h33.4v77.913H320zm-50.087 44.52c0 3.07-2.497 5.565-5.565 5.565s-5.565-2.497-5.565-5.565v-44.522h-33.4v44.522c0 3.07-2.497 5.565-5.565 5.565s-5.565-2.497-5.565-5.565v-44.522H180.87v44.522c0 21.48 17.476 38.957 38.957 38.957a38.72 38.72 0 0 0 22.261-7.016c6.315 4.415 13.988 7.016 22.26 7.016 1.666 0 3.304-.117 4.915-.322-2.366 9.75-11.146 17.017-21.6 17.017v33.4c30.687 0 55.652-24.966 55.652-55.652v-77.913h-33.4v44.522zM180.87 244.87h50.087v33.4H180.87z" fill="#f0f0f0"/></svg>