<svg xmlns="http://www.w3.org/2000/svg" viewBox="0 0 512 512" xmlns:v="https://vecta.io/nano"><path d="M25.402 144.696C9.128 178.352 0 216.11 0 256s9.128 77.648 25.402 111.304L256 389.565l230.598-22.26C502.872 333.648 512 295.89 512 256s-9.128-77.648-25.402-111.304L256 122.435l-230.598 22.26z" fill="#f0f0f0"/><path d="M25.41 367.304C66.817 452.935 154.506 512 256 512s189.183-59.065 230.59-144.696H25.41z"/><path d="M25.41 144.696H486.59C445.183 59.065 357.494 0 256 0S66.817 59.065 25.41 144.696z" fill="#d80027"/><path d="M74.98 74.98c-99.974 99.974-99.974 262.065 0 362.04L256 256 74.98 74.98z" fill="#496e2d"/></svg>