<svg xmlns="http://www.w3.org/2000/svg" viewBox="0 0 512 512" xmlns:v="https://vecta.io/nano"><circle cx="256" cy="256" r="256" fill="#f0f0f0"/><path d="M0 256C0 114.616 114.616 0 256 0s256 114.616 256 256" fill="#d80027"/><path d="M155.826 133.564c0-37.298 26.213-68.456 61.217-76.1a78.2 78.2 0 0 0-16.696-1.81c-43.03 0-77.913 34.882-77.913 77.913s34.882 77.913 77.913 77.913c5.733 0 11.315-.637 16.696-1.812-35.004-7.645-61.217-38.803-61.217-76.102zM256 61.217l5.526 17.005h17.88l-14.467 10.5 5.526 17.005L256 95.23l-14.466 10.5 5.526-17.005-14.466-10.5h17.88zm-43.375 33.39l5.525 17.006h17.88l-14.466 10.5 5.526 17.005-14.466-10.5-14.468 10.5 5.527-17.005-14.467-10.5h17.88zm86.75 0l5.527 17.006h17.88l-14.467 10.5 5.527 17.005-14.467-10.5-14.466 10.5 5.526-17.005-14.466-10.5h17.88zm-16.696 50.087l5.526 17.006h17.88l-14.466 10.5 5.526 17.005-14.466-10.5-14.466 10.5 5.526-17.005-14.466-10.5h17.88zm-53.36 0l5.525 17.006h17.882l-14.467 10.5 5.527 17.005-14.467-10.5-14.467 10.5 5.526-17.005-14.466-10.5h17.88z" fill="#f0f0f0"/></svg>