<svg xmlns="http://www.w3.org/2000/svg" viewBox="0 0 512 512" xmlns:v="https://vecta.io/nano"><circle cx="256" cy="256" r="256" fill="#f0f0f0"/><path d="M496.077 166.957H222.61v-66.783H89.043v66.783h-73.12C5.633 194.69 0 224.686 0 256s5.633 61.3 15.923 89.043L256 367.304l240.077-22.26C506.367 317.3 512 287.314 512 256s-5.633-61.31-15.923-89.043z" fill="#0052b4"/><path d="M256 512c110.07 0 203.906-69.472 240.077-166.957H15.923C52.094 442.528 145.93 512 256 512z" fill="#d80027"/><path d="M89.043 166.957v22.26c0 51.12 66.783 66.784 66.783 66.784s66.783-15.663 66.783-66.784v-22.26l-22.26 22.26-44.522-33.39-44.522 33.39-22.26-22.26z" fill="#f0f0f0"/></svg>