<svg xmlns="http://www.w3.org/2000/svg" viewBox="0 0 512 512" xmlns:v="https://vecta.io/nano"><circle cx="256" cy="256" r="256" fill="#f0f0f0"/><path d="M256 512c141.384 0 256-114.616 256-256 0-31.314-5.632-61.31-15.923-89.043H15.923C5.633 194.69 0 224.686 0 256c0 141.384 114.616 256 256 256z" fill="#0052b4"/><path d="M256 512c110.07 0 203.906-69.472 240.077-166.957H15.923C52.094 442.528 145.93 512 256 512z" fill="#d80027"/><path d="M66.198 144.696v127.706c0 72.644 94.9 94.903 94.9 94.903s94.9-22.26 94.9-94.903V144.696h-189.8z" fill="#f0f0f0"/><path d="M88.46 144.696v127.706c0 8.528 1.894 16.582 5.646 24.133h133.987c3.752-7.55 5.646-15.605 5.646-24.133V144.696H88.46z" fill="#d80027"/><path d="M205.62 233.74h-33.4v-22.26h22.26v-22.26h-22.26v-22.26h-22.26v22.26h-22.26v22.26h22.26v22.26h-33.392V256h33.392v22.26h22.26V256h33.4z" fill="#f0f0f0"/><path d="M124.47 327.6c14.345 9.015 29.083 14.25 36.628 16.577 7.545-2.327 22.283-7.562 36.628-16.577 14.466-9.092 24.607-19.5 30.365-31.075-6.35-4.493-14.1-7.143-22.47-7.143-3.048 0-6.01.36-8.856 1.024-6.033-13.708-19.728-23.285-35.665-23.285s-29.633 9.577-35.665 23.285c-2.847-.663-5.81-1.024-8.856-1.024-8.37 0-16.12 2.65-22.47 7.143 5.755 11.584 15.896 21.982 30.363 31.075z" fill="#0052b4"/></svg>