<svg xmlns="http://www.w3.org/2000/svg" viewBox="0 0 473.68 473.68" xmlns:v="https://vecta.io/nano"><circle cx="236.85" cy="236.849" r="236.83" fill="#fff"/><path d="M460.143 157.87H314.218c6.335 50.593 6.376 106.335.12 156.995h146.116c8.526-24.438 13.22-50.682 13.22-78.026.004-27.702-4.794-54.265-13.53-78.97z" fill="#e4e4e4"/><path d="M314.218 157.87H460.14l-.075-.206C429.752 72.196 351.785 9.315 258.105.968c36.256 19.876 46.842 82.836 56.113 156.9z" fill="#24ac4b"/><path d="M258.113 472.693c93.848-8.362 171.927-71.46 202.12-157.156l.228-.673H314.34c-9.196 74.47-19.827 137.875-56.228 157.83z" fill="#338bc1"/><path d="M0 236.838a236.39 236.39 0 0 0 13.219 78.026h313.316c6.253-50.66 6.21-106.402-.123-156.995H13.534C4.798 182.573 0 209.136 0 236.838z" fill="#f3f4f5"/><path d="M13.608 157.668l-.075.206h312.88c-9.27-74.07-32.052-137.03-68.303-156.9-7.012-.62-14.102-.972-21.274-.972C133.806 0 46.187 65.798 13.608 157.668z" fill="#2db24a"/><path d="M326.536 314.864H13.22l.228.673c32.452 92.102 120.2 158.135 223.387 158.135 7.173 0 14.263-.352 21.274-.98 36.406-19.953 59.228-83.358 68.428-157.828z" fill="#3d91cf"/></svg>