<svg xmlns="http://www.w3.org/2000/svg" viewBox="0 0 473.68 473.68" xmlns:v="https://vecta.io/nano"><path d="M315.8 13.535L288.16 90.16c25.51 84.2 25.51 209.162 0 293.358l27.64 76.624c91.975-32.524 157.88-120.2 157.88-223.3S407.774 46.055 315.8 13.535z" fill="#d32027"/><path d="M315.8 90.16V13.535C291.1 4.8 264.534.002 236.838.002c36.52 0-14.116 123.772 78.962 90.157zm-78.962 383.518c27.695 0 54.26-4.798 78.96-13.534V383.52c-92.143-9.194-78.96 90.158-78.96 90.158z" fill="#f8d12e"/><path d="M0 236.837C0 340.29 66.355 428.198 158.805 460.46V13.22C66.355 45.483 0 133.384 0 236.837z" fill="#14b36f"/><path d="M315.8 90.16v293.358c25.515-84.196 25.515-209.16 0-293.358z" fill="#e73b36"/><path d="M315.8 383.52V90.16C299.675 36.937 273.36.002 236.84.002c-27.35 0-53.592 4.69-78.034 13.22V460.46a236.54 236.54 0 0 0 78.034 13.219c36.52 0 62.835-36.935 78.96-90.157z" fill="#ffdc4d"/><path d="M238.364 174.965l15.314 47.13h49.557l-40.092 29.124 15.313 47.13-40.092-29.128-40.088 29.128 15.3-47.13-40.088-29.124h49.556z" fill="#14b36f"/></svg>