<svg xmlns="http://www.w3.org/2000/svg" viewBox="0 0 512 512" xmlns:v="https://vecta.io/nano"><circle cx="256" cy="256" r="256" fill="#f0f0f0"/><path d="M496.076 166.957H15.922C5.633 194.69 0 224.686 0 256s5.633 61.31 15.922 89.043h480.155C506.368 317.31 512 287.314 512 256s-5.632-61.31-15.924-89.043z" fill="#a2001d"/><path d="M256.74 512c87.682 0 165.058-44.092 211.196-111.304h-422.4C91.684 467.908 169.058 512 256.74 512zm0-511.998c87.682 0 165.058 44.092 211.196 111.304h-422.4C91.684 44.094 169.058.002 256.74.002z" fill="#6da544"/><path d="M256 166.957l22.1 68.02h71.525l-57.864 42.044 22.103 68.022L256 303.004l-57.865 42.04 22.104-68.022-57.865-42.044H233.9z" fill="#ffda44"/></svg>