<svg xmlns="http://www.w3.org/2000/svg" viewBox="0 0 512 512" xmlns:v="https://vecta.io/nano"><circle cx="256" cy="256" r="256" fill="#f0f0f0"/><path d="M492.03 156.753C453.26 64.662 362.188 0 256 0 185.306 0 121.313 28.66 74.99 74.99l64.1 81.764h352.93z"/><path d="M139.826 354.32L74.99 437.01C121.313 483.34 185.306 512 256 512c106.546 0 197.878-65.094 236.424-157.68H139.826z" fill="#496e2d"/><path d="M55.652 188.3v134.492h447.53C508.924 301.49 512 279.107 512 256c0-23.442-3.158-46.142-9.06-67.7H55.652z" fill="#a2001d"/><path d="M74.98 74.98c-99.974 99.974-99.974 262.065 0 362.04L256 256 74.98 74.98z" fill="#0052b4"/><path d="M83.386 192.352l31.245 43.6 51.128-16.245-31.81 43.193 31.245 43.603-50.908-16.907-31.812 43.192.35-53.643-50.9-16.91 51.124-16.244z" fill="#ffda44"/></svg>