<?xml version="1.0" encoding="iso-8859-1"?>
<!-- Generator: Adobe Illustrator 19.0.0, SVG Export Plug-In . SVG Version: 6.00 Build 0)  -->
<svg version="1.1" id="Capa_1" xmlns="http://www.w3.org/2000/svg" xmlns:xlink="http://www.w3.org/1999/xlink" x="0px" y="0px"
	 viewBox="0 0 473.778 473.778" style="enable-background:new 0 0 473.778 473.778;" xml:space="preserve">
<g>
	<path style="fill:#2AAADB;" d="M460.244,157.923c-0.03-0.075-0.052-0.138-0.075-0.206c-0.052-0.138-0.108-0.269-0.153-0.408
		c0.075,0.206,0.138,0.408,0.213,0.613L460.244,157.923L460.244,157.923z"/>
	<path style="fill:#2AAADB;" d="M449.908,133.302c0.191,0.393,0.393,0.782,0.583,1.174
		C450.3,134.083,450.098,133.694,449.908,133.302z"/>
	<path style="fill:#2AAADB;" d="M457.103,149.565c0.108,0.277,0.213,0.546,0.314,0.819
		C457.312,150.115,457.211,149.846,457.103,149.565z"/>
	<path style="fill:#2AAADB;" d="M445.708,125.105c0.415,0.782,0.841,1.556,1.257,2.345
		C446.546,126.66,446.123,125.886,445.708,125.105z"/>
</g>
<g>
	<path style="fill:#FFFFFF;" d="M446.965,127.449c1.01,1.937,1.986,3.885,2.943,5.849
		C448.95,131.335,447.971,129.386,446.965,127.449z"/>
	<path style="fill:#FFFFFF;" d="M444.036,121.993h-0.037c0.568,1.028,1.148,2.068,1.709,3.111
		C445.143,124.069,444.605,123.025,444.036,121.993z"/>
	<path style="fill:#FFFFFF;" d="M450.491,134.476c2.375,4.936,4.581,9.97,6.612,15.089
		C455.065,144.446,452.866,139.416,450.491,134.476z"/>
	<path style="fill:#FFFFFF;" d="M457.417,150.384c0.897,2.292,1.769,4.6,2.599,6.926
		C459.182,154.988,458.322,152.677,457.417,150.384z"/>
</g>
<g>
	<path style="fill:#54B848;" d="M463.531,305.899c-0.262,0.868-0.535,1.746-0.804,2.614
		C462.996,307.646,463.266,306.771,463.531,305.899z"/>
	<path style="fill:#54B848;" d="M450.491,134.476c1.133,2.352,2.221,4.734,3.272,7.128c-2.061-4.674-4.267-9.27-6.612-13.777
		c0.942,1.81,1.862,3.639,2.752,5.471C450.098,133.694,450.3,134.083,450.491,134.476z"/>
	<path style="fill:#54B848;" d="M466.482,295.369c-0.075,0.299-0.138,0.598-0.213,0.89
		C466.339,295.967,466.407,295.668,466.482,295.369z"/>
	<path style="fill:#54B848;" d="M445.768,348.651c-0.254,0.475-0.497,0.965-0.759,1.44
		C445.271,349.615,445.51,349.133,445.768,348.651z"/>
	<path style="fill:#54B848;" d="M469.144,283.585c-0.161,0.819-0.337,1.63-0.512,2.446
		C468.811,285.216,468.983,284.404,469.144,283.585z"/>
	<path style="fill:#54B848;" d="M450.895,338.527c-0.408,0.849-0.826,1.687-1.242,2.535
		C450.068,340.214,450.484,339.373,450.895,338.527z"/>
	<path style="fill:#54B848;" d="M455.779,327.503c-0.329,0.789-0.643,1.586-0.98,2.367
		C455.136,329.089,455.45,328.292,455.779,327.503z"/>
	<path style="fill:#54B848;" d="M459.608,317.724c-0.254,0.696-0.527,1.372-0.782,2.061
		C459.081,319.096,459.35,318.42,459.608,317.724z"/>
	<path style="fill:#54B848;" d="M470.554,198.087c0.314,1.892,0.598,3.784,0.86,5.684
		C471.156,201.871,470.868,199.979,470.554,198.087z"/>
	<path style="fill:#54B848;" d="M468.475,187.044c0.46,2.124,0.856,4.274,1.257,6.421
		C469.335,191.318,468.927,189.168,468.475,187.044z"/>
	<path style="fill:#54B848;" d="M472.147,209.496c0.198,1.672,0.389,3.351,0.546,5.033
		C472.536,212.839,472.338,211.168,472.147,209.496z"/>
	<path style="fill:#54B848;" d="M453.954,142.023c0.965,2.206,1.885,4.435,2.782,6.675
		C455.839,146.454,454.919,144.229,453.954,142.023z"/>
	<path style="fill:#54B848;" d="M471.212,271.63c-0.093,0.651-0.183,1.309-0.277,1.963
		C471.029,272.939,471.119,272.28,471.212,271.63z"/>
	<path style="fill:#54B848;" d="M472.592,260.557c-0.06,0.606-0.138,1.197-0.206,1.795
		C472.454,261.753,472.536,261.163,472.592,260.557z"/>
	<path style="fill:#54B848;" d="M473.501,247.767c-0.037,0.782-0.067,1.563-0.108,2.352
		C473.434,249.33,473.463,248.549,473.501,247.767z"/>
	<path style="fill:#54B848;" d="M473.228,221.545c0.086,1.35,0.198,2.696,0.262,4.046
		C473.426,224.241,473.31,222.899,473.228,221.545z"/>
	<path style="fill:#54B848;" d="M460.229,157.923c3.033,8.56,5.557,17.363,7.603,26.345c-2.584-11.402-5.991-22.482-10.153-33.181
		c0.804,2.061,1.593,4.132,2.337,6.223C460.091,157.512,460.154,157.718,460.229,157.923z"/>
</g>
<g>
	<path style="fill:#3CB44A;" d="M324.272,350.109c-14.476,70.563-43.574,123.62-87.338,123.62
		c89.795,0,167.901-49.972,208.068-123.62h-0.093H324.272L324.272,350.109z"/>
	<path style="fill:#3CB44A;" d="M323.928,121.993h120.067c0.568,1.028,1.148,2.068,1.709,3.111c0.393,0.729,0.789,1.462,1.174,2.206
		C407.332,51.689,328.187,0.049,236.934,0.049C280.347,0.049,309.336,52.257,323.928,121.993z"/>
</g>
<g>
	<path style="fill:#54B848;" d="M19.064,329.87c-0.337-0.782-0.651-1.578-0.98-2.367C18.414,328.292,18.728,329.089,19.064,329.87z"
		/>
	<path style="fill:#54B848;" d="M15.041,319.785c-0.254-0.688-0.527-1.365-0.774-2.061C14.513,318.42,14.783,319.096,15.041,319.785
		z"/>
	<path style="fill:#54B848;" d="M11.148,308.513c-0.277-0.868-0.542-1.746-0.811-2.614
		C10.606,306.771,10.871,307.646,11.148,308.513z"/>
	<path style="fill:#54B848;" d="M24.221,341.067c-0.415-0.849-0.841-1.694-1.249-2.55C23.38,339.373,23.799,340.221,24.221,341.067z
		"/>
	<path style="fill:#54B848;" d="M7.606,296.259c-0.079-0.292-0.146-0.591-0.221-0.89C7.457,295.668,7.524,295.967,7.606,296.259z"/>
	<path style="fill:#54B848;" d="M324.272,350.109H28.866c40.163,73.644,118.272,123.62,208.068,123.62
		C280.698,473.729,309.796,420.675,324.272,350.109z"/>
	<path style="fill:#54B848;" d="M28.858,350.094c-0.262-0.482-0.505-0.98-0.767-1.462C28.354,349.118,28.597,349.615,28.858,350.094
		z"/>
	<path style="fill:#54B848;" d="M17.655,147.363c0.696-1.702,1.41-3.396,2.139-5.075C19.064,143.971,18.35,145.661,17.655,147.363z"
		/>
	<path style="fill:#54B848;" d="M21.342,138.859c1.335-2.928,2.726-5.83,4.177-8.691C24.068,133.033,22.681,135.931,21.342,138.859z
		"/>
	<path style="fill:#54B848;" d="M6.997,180.092c0.277-1.126,0.542-2.259,0.834-3.373C7.539,177.833,7.277,178.966,6.997,180.092z"/>
	<path style="fill:#54B848;" d="M26.966,127.333c0.935-1.791,1.885-3.579,2.865-5.34h294.101
		C309.336,52.257,280.347,0.049,236.934,0.049C145.669,0.049,66.516,51.696,26.966,127.333z"/>
	<path style="fill:#54B848;" d="M5.232,286.035c-0.176-0.819-0.344-1.63-0.512-2.446C4.888,284.404,5.063,285.216,5.232,286.035z"/>
	<path style="fill:#54B848;" d="M4.704,190.278c0.221-1.088,0.46-2.161,0.688-3.242C5.164,188.117,4.925,189.19,4.704,190.278z"/>
	<path style="fill:#54B848;" d="M10.205,168.338c0.438-1.447,0.898-2.883,1.365-4.323C11.103,165.451,10.643,166.891,10.205,168.338
		z"/>
	<path style="fill:#54B848;" d="M13.354,158.75c0.819-2.345,1.672-4.674,2.565-6.982C15.026,154.075,14.169,156.405,13.354,158.75z"
		/>
	<path style="fill:#54B848;" d="M0.366,226.063c0.037-0.841,0.075-1.679,0.123-2.521C0.445,224.38,0.404,225.221,0.366,226.063z"/>
	<path style="fill:#54B848;" d="M2.603,202.57c0.131-0.935,0.262-1.877,0.408-2.805C2.865,200.701,2.734,201.636,2.603,202.57z"/>
	<path style="fill:#54B848;" d="M1.477,262.355c-0.067-0.598-0.138-1.189-0.206-1.795C1.339,261.163,1.41,261.753,1.477,262.355z"/>
	<path style="fill:#54B848;" d="M0.482,250.119c-0.045-0.789-0.079-1.571-0.116-2.352C0.404,248.549,0.441,249.33,0.482,250.119z"/>
	<path style="fill:#54B848;" d="M1.279,213.168c0.067-0.636,0.146-1.257,0.213-1.892C1.425,211.912,1.339,212.533,1.279,213.168z"/>
	<path style="fill:#54B848;" d="M2.936,273.593c-0.101-0.658-0.191-1.316-0.284-1.963C2.749,272.28,2.835,272.939,2.936,273.593z"/>
</g>
<g>
	<path style="fill:#FDCE07;" d="M453.763,141.607c0.06,0.138,0.123,0.277,0.191,0.415
		C453.887,141.884,453.823,141.746,453.763,141.607z"/>
	<path style="fill:#FDCE07;" d="M470.935,273.593c-0.527,3.351-1.126,6.683-1.791,9.992
		C469.81,280.279,470.408,276.947,470.935,273.593z"/>
	<path style="fill:#FDCE07;" d="M454.803,329.87c-1.242,2.913-2.55,5.8-3.908,8.653C452.252,335.67,453.558,332.787,454.803,329.87z
		"/>
	<path style="fill:#FDCE07;" d="M458.827,319.785c-0.972,2.599-1.986,5.172-3.044,7.719
		C456.837,324.956,457.854,322.384,458.827,319.785z"/>
	<path style="fill:#FDCE07;" d="M466.268,296.259c-0.841,3.25-1.769,6.451-2.737,9.641
		C464.5,302.709,465.427,299.508,466.268,296.259z"/>
	<path style="fill:#FDCE07;" d="M446.965,127.449c-0.03-0.052-0.052-0.093-0.079-0.138c0.093,0.168,0.176,0.344,0.269,0.52
		C447.088,127.7,447.028,127.576,446.965,127.449z"/>
	<path style="fill:#FDCE07;" d="M468.636,286.035c-0.658,3.134-1.365,6.245-2.154,9.334
		C467.271,292.28,467.977,289.168,468.636,286.035z"/>
	<path style="fill:#FDCE07;" d="M462.727,308.513c-0.987,3.096-2.016,6.17-3.119,9.211
		C460.711,314.687,461.74,311.61,462.727,308.513z"/>
	<path style="fill:#FDCE07;" d="M449.653,341.059c-1.249,2.558-2.543,5.09-3.885,7.588
		C447.11,346.152,448.404,343.617,449.653,341.059z"/>
	<path style="fill:#FDCE07;" d="M472.39,262.355c-0.329,3.111-0.722,6.2-1.174,9.274
		C471.665,268.556,472.061,265.467,472.39,262.355z"/>
	<path style="fill:#FDCE07;" d="M457.417,150.384c-0.101-0.269-0.206-0.542-0.314-0.819c-0.116-0.292-0.247-0.576-0.366-0.868
		c0.322,0.789,0.636,1.586,0.942,2.39C457.593,150.852,457.51,150.62,457.417,150.384z"/>
	<path style="fill:#FDCE07;" d="M467.832,184.269c0.213,0.927,0.445,1.847,0.643,2.775
		C468.277,186.116,468.045,185.196,467.832,184.269z"/>
	<path style="fill:#FDCE07;" d="M472.697,214.53c0.213,2.33,0.381,4.675,0.535,7.019
		C473.075,219.204,472.914,216.859,472.697,214.53z"/>
	<path style="fill:#FDCE07;" d="M473.493,225.595c0.176,3.747,0.284,7.509,0.284,11.297
		C473.778,233.101,473.665,229.339,473.493,225.595z"/>
	<path style="fill:#FDCE07;" d="M469.731,193.465c0.284,1.533,0.568,3.074,0.826,4.622
		C470.3,196.538,470.016,194.998,469.731,193.465z"/>
	<path style="fill:#FDCE07;" d="M473.389,250.119c-0.198,3.5-0.452,6.982-0.797,10.437
		C472.936,257.101,473.19,253.62,473.389,250.119z"/>
	<polygon style="fill:#FDCE07;" points="445.005,350.09 444.998,350.109 444.998,350.109 	"/>
	<path style="fill:#FDCE07;" d="M473.778,236.893c0,3.646-0.116,7.266-0.277,10.875
		C473.658,244.159,473.778,240.539,473.778,236.893z"/>
	<path style="fill:#FDCE07;" d="M471.418,203.771c0.269,1.907,0.512,3.814,0.729,5.725
		C471.93,207.582,471.687,205.674,471.418,203.771z"/>
</g>
<path style="fill:#EDC11B;" d="M445.768,348.651c1.343-2.498,2.636-5.034,3.885-7.588c0.415-0.849,0.834-1.687,1.242-2.535
	c1.357-2.857,2.666-5.74,3.908-8.653c0.337-0.782,0.651-1.578,0.98-2.367c1.058-2.55,2.076-5.12,3.044-7.719
	c0.254-0.688,0.527-1.365,0.782-2.061c1.103-3.04,2.132-6.114,3.119-9.211c0.269-0.868,0.542-1.746,0.804-2.614
	c0.972-3.194,1.9-6.391,2.737-9.641c0.075-0.292,0.138-0.591,0.213-0.89c0.789-3.089,1.496-6.2,2.154-9.334
	c0.176-0.819,0.352-1.63,0.512-2.446c0.666-3.31,1.264-6.638,1.791-9.992c0.093-0.658,0.183-1.316,0.277-1.963
	c0.452-3.074,0.849-6.163,1.174-9.274c0.067-0.598,0.146-1.189,0.206-1.795c0.344-3.455,0.598-6.937,0.797-10.437
	c0.045-0.789,0.075-1.571,0.108-2.352c0.161-3.609,0.277-7.232,0.277-10.875c0-3.792-0.108-7.554-0.284-11.297
	c-0.067-1.35-0.176-2.696-0.262-4.046c-0.153-2.345-0.322-4.689-0.535-7.019c-0.161-1.679-0.352-3.358-0.546-5.033
	c-0.221-1.915-0.46-3.818-0.729-5.725c-0.262-1.9-0.546-3.792-0.86-5.684c-0.254-1.548-0.542-3.089-0.826-4.622
	c-0.4-2.147-0.797-4.293-1.257-6.421c-0.198-0.927-0.43-1.847-0.643-2.775c-2.046-8.983-4.574-17.786-7.603-26.345
	c-0.075-0.206-0.138-0.408-0.213-0.613c-0.744-2.09-1.533-4.162-2.337-6.223c-0.307-0.804-0.621-1.601-0.942-2.39
	c-0.897-2.244-1.817-4.469-2.782-6.675c-0.067-0.138-0.131-0.277-0.191-0.415c-1.051-2.397-2.139-4.775-3.272-7.128
	c-0.191-0.393-0.393-0.782-0.583-1.174c-0.89-1.832-1.81-3.661-2.752-5.471c-0.094-0.176-0.176-0.352-0.269-0.52
	c-0.389-0.744-0.782-1.477-1.174-2.206c-0.561-1.043-1.141-2.083-1.709-3.111H323.928c14.667,70.058,14.775,157.777,0.344,228.116
	h120.632h0.094c0-0.007,0.007-0.015,0.007-0.022C445.271,349.615,445.51,349.125,445.768,348.651z"/>
<g>
	<path style="fill:#FDCE07;" d="M5.393,187.036c0.505-2.33,1.036-4.645,1.608-6.944C6.428,182.392,5.897,184.706,5.393,187.036z"/>
	<path style="fill:#FDCE07;" d="M7.831,176.715c0.737-2.812,1.541-5.602,2.375-8.377C9.371,171.113,8.567,173.903,7.831,176.715z"/>
	<path style="fill:#FDCE07;" d="M1.271,260.557c-0.344-3.455-0.598-6.937-0.789-10.437C0.673,253.62,0.927,257.101,1.271,260.557z"
		/>
	<path style="fill:#FDCE07;" d="M2.651,271.63c-0.452-3.074-0.849-6.163-1.174-9.274C1.806,265.467,2.199,268.556,2.651,271.63z"/>
	<path style="fill:#FDCE07;" d="M0.366,247.767c-0.161-3.609-0.269-7.232-0.269-10.875C0.097,240.539,0.206,244.159,0.366,247.767z"
		/>
	<path style="fill:#FDCE07;" d="M4.719,283.585c-0.658-3.31-1.264-6.638-1.784-9.992C3.455,276.947,4.061,280.279,4.719,283.585z"/>
	<path style="fill:#FDCE07;" d="M7.386,295.369c-0.782-3.089-1.488-6.2-2.154-9.334C5.897,289.168,6.604,292.28,7.386,295.369z"/>
	<path style="fill:#FDCE07;" d="M0.49,223.542c0.191-3.478,0.445-6.937,0.789-10.37C0.935,216.601,0.681,220.064,0.49,223.542z"/>
	<path style="fill:#FDCE07;" d="M1.492,211.276c0.314-2.921,0.688-5.823,1.111-8.706C2.176,205.457,1.806,208.363,1.492,211.276z"/>
	<path style="fill:#FDCE07;" d="M3.01,199.766c0.505-3.186,1.066-6.346,1.694-9.487C4.076,193.42,3.515,196.583,3.01,199.766z"/>
	<path style="fill:#FDCE07;" d="M10.336,305.899c-0.965-3.194-1.9-6.391-2.73-9.641C8.437,299.508,9.371,302.709,10.336,305.899z"/>
	<path style="fill:#FDCE07;" d="M0.097,236.893c0-3.631,0.108-7.24,0.269-10.83C0.206,229.653,0.097,233.261,0.097,236.893z"/>
	<path style="fill:#FDCE07;" d="M14.267,317.724c-1.111-3.04-2.139-6.114-3.119-9.211C12.128,311.61,13.156,314.687,14.267,317.724z
		"/>
	<polygon style="fill:#FDCE07;" points="28.866,350.109 28.866,350.109 28.858,350.094 	"/>
	<path style="fill:#FDCE07;" d="M25.523,130.168c0.475-0.95,0.957-1.9,1.447-2.835C26.476,128.276,25.998,129.218,25.523,130.168z"
		/>
	<path style="fill:#FDCE07;" d="M15.916,151.764c0.568-1.477,1.141-2.943,1.739-4.405C17.056,148.821,16.488,150.291,15.916,151.764
		z"/>
	<path style="fill:#FDCE07;" d="M19.794,142.284c0.505-1.148,1.028-2.285,1.548-3.425C20.826,139.999,20.299,141.14,19.794,142.284z
		"/>
	<path style="fill:#FDCE07;" d="M11.57,164.015c0.568-1.769,1.17-3.511,1.784-5.265C12.741,160.5,12.139,162.254,11.57,164.015z"/>
	<path style="fill:#FDCE07;" d="M18.085,327.503c-1.058-2.55-2.075-5.12-3.044-7.719C16.013,322.384,17.026,324.956,18.085,327.503z
		"/>
	<path style="fill:#FDCE07;" d="M22.972,338.52c-1.357-2.857-2.666-5.733-3.908-8.65C20.314,332.787,21.615,335.663,22.972,338.52z"
		/>
	<path style="fill:#FDCE07;" d="M28.092,348.636c-1.335-2.498-2.621-5.019-3.87-7.565C25.47,343.617,26.757,346.137,28.092,348.636z
		"/>
	<path style="fill:#FDCE07;" d="M26.966,127.333c-0.49,0.935-0.972,1.885-1.447,2.835c-1.455,2.865-2.842,5.763-4.177,8.691
		c-0.52,1.141-1.043,2.277-1.548,3.425c-0.729,1.679-1.447,3.373-2.139,5.075c-0.598,1.462-1.17,2.928-1.739,4.405
		c-0.89,2.307-1.746,4.637-2.565,6.982c-0.613,1.754-1.212,3.5-1.784,5.265c-0.467,1.44-0.927,2.88-1.365,4.323
		c-0.834,2.775-1.638,5.565-2.375,8.377c-0.292,1.118-0.553,2.251-0.834,3.373c-0.568,2.3-1.103,4.615-1.608,6.944
		c-0.228,1.081-0.467,2.154-0.688,3.242c-0.628,3.141-1.189,6.305-1.694,9.487c-0.146,0.927-0.277,1.87-0.408,2.805
		c-0.423,2.883-0.797,5.785-1.111,8.706c-0.067,0.636-0.146,1.257-0.213,1.892c-0.344,3.433-0.598,6.896-0.789,10.37
		c-0.052,0.841-0.086,1.679-0.123,2.521c-0.161,3.594-0.269,7.202-0.269,10.83c0,3.646,0.108,7.266,0.269,10.875
		c0.037,0.782,0.075,1.563,0.116,2.352c0.191,3.5,0.445,6.982,0.789,10.437c0.067,0.606,0.138,1.197,0.206,1.795
		c0.329,3.111,0.722,6.2,1.174,9.274c0.093,0.651,0.183,1.309,0.284,1.963c0.52,3.351,1.126,6.683,1.784,9.992
		c0.168,0.819,0.337,1.63,0.512,2.446c0.666,3.134,1.372,6.245,2.154,9.334c0.075,0.299,0.138,0.598,0.221,0.89
		c0.834,3.25,1.769,6.451,2.73,9.641c0.269,0.868,0.535,1.746,0.811,2.614c0.98,3.096,2.008,6.17,3.119,9.211
		c0.247,0.696,0.52,1.372,0.774,2.061c0.972,2.599,1.986,5.172,3.044,7.719c0.329,0.789,0.643,1.586,0.98,2.367
		c1.242,2.913,2.55,5.793,3.908,8.65c0.408,0.856,0.834,1.702,1.249,2.55c1.249,2.55,2.535,5.067,3.87,7.565
		c0.262,0.482,0.505,0.98,0.767,1.462c0,0.007,0.007,0.007,0.007,0.015h295.406c14.431-70.338,14.323-158.058-0.344-228.116H29.831
		C28.851,123.755,27.901,125.546,26.966,127.333z"/>
</g>
<path style="fill:#3757A6;" d="M28.208,125.217H28.2C10.209,158.611,0,196.815,0,237.412c0,40.246,10.063,78.139,27.785,111.328
	l135.086-111.29v-0.037L28.208,125.217z"/>
<g>
	<polygon style="fill:#151515;" points="235.427,177.343 247.573,214.747 286.913,214.747 255.089,237.865 267.243,275.268 
		235.427,252.15 203.606,275.268 215.76,237.865 183.943,214.747 223.273,214.747 	"/>
	<polygon style="fill:#151515;" points="373.47,177.343 385.624,214.747 424.957,214.747 393.141,237.865 405.294,275.268 
		373.47,252.15 341.65,275.268 353.811,237.865 321.987,214.747 361.324,214.747 	"/>
</g>
<g>
</g>
<g>
</g>
<g>
</g>
<g>
</g>
<g>
</g>
<g>
</g>
<g>
</g>
<g>
</g>
<g>
</g>
<g>
</g>
<g>
</g>
<g>
</g>
<g>
</g>
<g>
</g>
<g>
</g>
</svg>
