<svg xmlns="http://www.w3.org/2000/svg" viewBox="0 0 473.778 473.778" xmlns:v="https://vecta.io/nano"><path d="M460.244 157.923l-.075-.206-.153-.408.213.613.015.001zm-10.336-24.62l.583 1.174-.583-1.174zm7.195 16.263l.314.82-.314-.82zm-11.395-24.46l1.257 2.345-1.257-2.345z" fill="#2aaadb"/><path d="M446.965 127.45l2.943 5.85-2.943-5.85zm-2.93-5.457H444l1.7 3.1-1.672-3.1zm6.454 12.483a233.25 233.25 0 0 1 6.612 15.09 237.82 237.82 0 0 0-6.612-15.089zm6.927 15.908l2.6 6.926-2.6-6.926z" fill="#fff"/><path d="M463.53 305.9l-.804 2.614.804-2.614zM450.5 134.476l3.272 7.128a237.17 237.17 0 0 0-6.612-13.777l3.34 6.65zm15.992 160.894l-.213.9.213-.9zm-20.714 53.28l-.76 1.44.76-1.44zm23.376-65.065l-.512 2.446.512-2.446zm-18.25 54.942l-1.242 2.535 1.242-2.535zm4.885-11.024l-.98 2.367.98-2.367zm3.828-9.78l-.782 2.06.782-2.06zm10.946-119.637l.86 5.684-.86-5.684zm-2.08-11.043l1.257 6.42-1.257-6.42zm3.672 22.452l.546 5.033-.546-5.033zm-18.193-67.473l2.782 6.675-2.782-6.675zm17.258 129.607l-.277 1.963.277-1.963zm1.38-11.073l-.206 1.795.206-1.795zm.908-12.8l-.108 2.352.108-2.352zm-.272-26.222l.262 4.046-.262-4.046zm-12.998-63.622c3.033 8.56 5.557 17.363 7.603 26.345a234.39 234.39 0 0 0-10.153-33.181l2.337 6.223c.075.202.138.408.213.613z" fill="#54b848"/><path d="M324.272 350.1c-14.476 70.563-43.574 123.62-87.338 123.62 89.795 0 167.9-49.972 208.068-123.62h-120.73zm-.344-228.117h120.067l1.7 3.1 1.174 2.206C407.332 51.7 328.187.05 236.934.05c43.413 0 72.402 52.208 86.994 121.944z" fill="#3cb44a"/><g fill="#54b848"><path d="M19.064 329.87l-.98-2.367.98 2.367zm-4.024-10.085l-.774-2.06.774 2.06zm-3.892-11.272l-.8-2.614.8 2.614zm13.072 32.554l-1.25-2.55 1.25 2.55zM7.606 296.26l-.22-.9.22.9zm316.666 53.85H28.866c40.163 73.644 118.272 123.62 208.068 123.62 43.764 0 72.862-53.054 87.338-123.62z"/><path d="M28.858 350.094l-.767-1.462.767 1.462zm-11.203-202.73l2.14-5.075-2.14 5.075zm3.687-8.503l4.177-8.7-4.177 8.7zM6.997 180.092l.834-3.373-.834 3.373zm19.97-52.76l2.865-5.34h294.1C309.336 52.257 280.347.05 236.934.05 145.67.05 66.516 51.696 26.966 127.333zM5.232 286.035l-.512-2.446.512 2.446zm-.528-95.757l.688-3.242-.688 3.242zm5.5-21.94l1.365-4.323-1.365 4.323zm3.15-9.588l2.565-6.982-2.565 6.982zM.366 226.063l.123-2.52-.123 2.52zm2.237-23.493l.408-2.805-.408 2.805zm-1.126 59.785l-.206-1.795.206 1.795zM.482 250.12l-.116-2.352.116 2.352zm.798-36.952l.213-1.892-.213 1.892zm1.656 60.425l-.284-1.963.284 1.963z"/></g><path d="M453.763 141.607l.2.415-.2-.415zm17.172 131.986a239.82 239.82 0 0 1-1.791 9.992 236.45 236.45 0 0 0 1.791-9.992zm-16.132 56.277l-3.908 8.653 3.908-8.653zm4.024-10.085l-3.044 7.72 3.044-7.72zm7.44-23.525c-.84 3.25-1.77 6.45-2.737 9.64.97-3.2 1.896-6.392 2.737-9.64zm-19.303-168.8l-.08-.138.27.52-.2-.382zm21.67 158.585l-2.154 9.334 2.154-9.334zm-5.91 22.478l-3.12 9.2 3.12-9.2zm-13.074 32.547l-3.885 7.588 3.885-7.588zm22.747-78.705l-1.174 9.274 1.174-9.274zm-14.983-111.97l-.314-.82-.366-.868.942 2.4-.262-.703zm10.415 33.886l.643 2.775-.643-2.775zm4.865 30.26l.535 7.02-.535-7.02zm.796 11.065c.176 3.747.284 7.5.284 11.297.001-3.8-.112-7.553-.284-11.297zm-3.763-32.13l.826 4.622-.826-4.622zm3.66 56.655c-.198 3.5-.452 6.982-.797 10.437.344-3.455.598-6.936.797-10.437zm-28.385 99.98l-.007.02zm28.773-113.207c0 3.646-.116 7.266-.277 10.875.157-3.6.277-7.23.277-10.875zm-2.36-33.123l.73 5.725-.73-5.725z" fill="#fdce07"/><path d="M445.768 348.65l3.885-7.588 1.242-2.535 3.908-8.653.98-2.367 3.044-7.72.782-2.06 3.12-9.21.804-2.614c.972-3.194 1.9-6.39 2.737-9.64.075-.292.138-.59.213-.9.79-3.09 1.496-6.2 2.154-9.334l.512-2.446a237.6 237.6 0 0 0 1.791-9.992l.277-1.963a222.99 222.99 0 0 0 1.174-9.274l.206-1.795c.344-3.455.598-6.937.797-10.437l.108-2.352c.16-3.61.277-7.232.277-10.875 0-3.792-.108-7.554-.284-11.297l-.262-4.046-.535-7.02-.546-5.033-.73-5.725-.86-5.684-.826-4.622-1.257-6.42c-.198-.927-.43-1.847-.643-2.775-2.046-8.983-4.574-17.786-7.603-26.345l-.213-.613c-.744-2.1-1.533-4.162-2.337-6.223l-.942-2.4-2.782-6.675a10.94 10.94 0 0 1-.191-.415c-1.05-2.397-2.14-4.775-3.272-7.128l-.583-1.174-2.752-5.47-.27-.52-1.174-2.206-1.71-3.11h-120.08c14.667 70.058 14.775 157.777.344 228.116h120.726c0-.007.007-.015.007-.022.266-.5.505-.98.763-1.454z" fill="#edc11b"/><g fill="#fdce07"><path d="M5.393 187.036L7 180.092l-1.608 6.944zm2.437-10.32l2.375-8.377-2.375 8.377zm-6.56 83.842c-.344-3.455-.598-6.937-.8-10.437.2 3.5.445 6.98.8 10.437zm1.38 11.073l-1.174-9.274 1.174 9.274zM.366 247.767c-.16-3.6-.27-7.232-.27-10.875 0 3.647.1 7.267.27 10.875zm4.354 35.818c-.658-3.3-1.264-6.638-1.784-9.992.52 3.354 1.126 6.686 1.784 9.992zm2.666 11.785l-2.154-9.334 2.154 9.334zM.5 223.542a228.26 228.26 0 0 1 .79-10.37c-.344 3.43-.598 6.892-.8 10.37z"/><path d="M1.492 211.276l1.1-8.706-1.1 8.706zM3 199.766l1.694-9.487L3 199.766zM10.336 305.9c-.965-3.194-1.9-6.4-2.73-9.64.83 3.25 1.765 6.45 2.73 9.64zM.097 236.893c0-3.63.108-7.24.27-10.83-.16 3.6-.27 7.198-.27 10.83zm14.17 80.83l-3.12-9.2 3.12 9.2zm14.6 32.386h0l-.008-.015zm-3.343-219.942l1.447-2.835-1.447 2.835zm-9.607 21.596l1.74-4.405-1.74 4.405zm3.878-9.48l1.548-3.425-1.548 3.425zm-8.224 21.73l1.784-5.265-1.784 5.265zm6.515 163.488l-3.044-7.72 3.044 7.72zm4.887 11.017l-3.908-8.65 3.908 8.65zm5.12 10.116l-3.87-7.565 3.87 7.565z"/><path d="M26.966 127.333l-1.447 2.835-4.177 8.69-1.548 3.425-2.14 5.075-1.74 4.405-2.565 6.982-1.784 5.265-1.365 4.323-2.375 8.377-.834 3.373-1.608 6.944-.688 3.242-1.694 9.487-.408 2.805-1.11 8.706-.213 1.892c-.344 3.433-.598 6.896-.79 10.37l-.123 2.52c-.16 3.594-.27 7.202-.27 10.83 0 3.646.108 7.266.27 10.875l.116 2.352c.19 3.5.445 6.982.79 10.437l.206 1.795c.33 3.11.722 6.2 1.174 9.274l.284 1.963a239.78 239.78 0 0 0 1.784 9.992l.512 2.446c.666 3.134 1.372 6.245 2.154 9.334.075.3.138.598.22.9.834 3.25 1.77 6.45 2.73 9.64l.81 2.614c.98 3.096 2.008 6.17 3.12 9.21.247.696.52 1.372.774 2.06.972 2.6 1.986 5.172 3.044 7.72l.98 2.367c1.242 2.913 2.55 5.793 3.908 8.65l1.25 2.55c1.25 2.55 2.535 5.067 3.87 7.565.262.482.505.98.767 1.462l295.413.015c14.43-70.338 14.323-158.058-.344-228.116H29.83l-2.865 5.355z"/></g><path d="M28.208 125.217H28.2C10.21 158.61 0 196.815 0 237.412c0 40.246 10.063 78.14 27.785 111.328L162.87 237.413 28.208 125.217z" fill="#3757a6"/><path d="M235.427 177.343l12.146 37.404h39.34l-31.824 23.118 12.154 37.403-31.816-23.118-31.82 23.118 12.154-37.403-31.817-23.118h39.33zm138.043 0l12.154 37.404h39.333l-31.816 23.118 12.153 37.403-31.824-23.118-31.82 23.118 12.16-37.403-31.824-23.118h39.337z" fill="#151515"/></svg>