<svg xmlns="http://www.w3.org/2000/svg" viewBox="0 0 512 512" xmlns:v="https://vecta.io/nano"><path d="M256 0c-31.314 0-61.31 5.633-89.043 15.923L155.826 256l11.13 240.077C194.69 506.368 224.686 512 256 512s61.31-5.632 89.043-15.923L356.174 256l-11.13-240.077C317.31 5.633 287.314 0 256 0z" fill="#ffda44"/><path d="M512 256c0-110.07-69.472-203.906-166.957-240.077v480.155C442.528 459.906 512 366.07 512 256z" fill="#d80027"/><path d="M166.957 496.077V15.923C69.472 52.094 0 145.93 0 256s69.472 203.906 166.957 240.077z" fill="#0052b4"/></svg>