<svg xmlns="http://www.w3.org/2000/svg" viewBox="0 0 512 512" xmlns:v="https://vecta.io/nano"><path d="M25.402 144.696C9.128 178.352 0 216.1 0 256s9.128 77.648 25.402 111.304L256 389.565l230.598-22.26C502.872 333.648 512 295.9 512 256s-9.128-77.648-25.402-111.304L256 122.435l-230.598 22.26z" fill="#f0f0f0"/><path d="M25.41 367.304C66.818 452.934 154.507 512 256 512s189.183-59.066 230.59-144.696H25.41z" fill="#6da544"/><path d="M25.41 144.696H486.59C445.183 59.066 357.493 0 256 0S66.818 59.066 25.41 144.696z" fill="#d80027"/><path d="M211.478 322.783h89.044V284.94l-17.8 8.904L256 267.13l-26.713 26.713-17.8-8.904zm-50.946-44.523l4.145 12.754h13.4l-10.85 7.883 4.145 12.754-10.85-7.882-10.85 7.882 4.145-12.754-10.85-7.883h13.4zm12.848-44.52l4.145 12.754h13.4l-10.85 7.883 4.144 12.754-10.85-7.882-10.85 7.882 4.145-12.754-10.85-7.883h13.4zm36.733-33.392l4.145 12.754h13.4l-10.848 7.883 4.143 12.754-10.85-7.882-10.85 7.882 4.144-12.754-10.85-7.883h13.4zm141.355 77.912l-4.145 12.754h-13.4l10.85 7.883-4.145 12.754 10.85-7.882 10.85 7.882-4.144-12.754 10.85-7.883h-13.4zm-12.848-44.52l-4.145 12.754h-13.4l10.85 7.883-4.145 12.754 10.85-7.882 10.85 7.882-4.145-12.754 10.85-7.883h-13.4zm-36.733-33.392l-4.145 12.754h-13.4l10.848 7.883-4.144 12.754 10.85-7.882 10.85 7.882-4.144-12.754 10.85-7.883h-13.4zM256 183.65l4.145 12.754h13.4l-10.85 7.883 4.145 12.754-10.84-7.88-10.85 7.882 4.145-12.754-10.85-7.883h13.4z" fill="#ffda44"/></svg>