<svg xmlns="http://www.w3.org/2000/svg" viewBox="0 0 512 512" xmlns:v="https://vecta.io/nano"><circle cx="256" cy="256" r="256" fill="#ffda44"/><path d="M411.826 122.435c-2.296 11.035-3.34 22.788-3.34 34.504 0 67.534 40.26 125.985 97.954 152.298A257.02 257.02 0 0 0 512 256C512 114.616 397.384 0 256 0S0 114.616 0 256s114.616 256 256 256c87.682 0 165.058-44.092 211.196-111.304h-322.5v-33.39h341.902c3.5-7.236 6.66-14.665 9.48-22.26H144.696l267.13-222.61z" fill="#0052b4"/><path d="M188.072 133.565l5.526 17.006h17.88l-14.465 10.5 5.526 17.005-14.467-10.5-14.465 10.5 5.525-17.005-14.467-10.5h17.88zM115.438 256l6.908 21.26h22.35l-18.083 13.135 6.908 21.258-18.083-13.138-18.082 13.138 6.907-21.258L86.18 277.26h22.35zm0-178.087l6.908 21.26h22.35l-18.083 13.135 6.908 21.258-18.083-13.138-18.082 13.138 6.907-21.258L86.18 99.172h22.35zM59.786 178.087l6.908 21.26h22.35L70.96 212.48l6.908 21.258L59.786 220.6l-18.082 13.14 6.907-21.258-18.082-13.135h22.35z" fill="#f0f0f0"/></svg>