<svg xmlns="http://www.w3.org/2000/svg" viewBox="0 0 512 512" xmlns:v="https://vecta.io/nano"><path d="M256 0a256.87 256.87 0 0 0-55.65 6.085L189.218 256l11.13 249.915A256.9 256.9 0 0 0 255.999 512c141.385 0 256-114.616 256-256S397.384 0 256 0zM66.783 83.57C25.3 129.067.001 189.577.001 256s25.3 126.93 66.783 172.43L77.914 256 66.783 83.57z" fill="#496e2d"/><path d="M374.42 193.1c12.595-35.106-1.555-73.287-31.922-92.303a78.2 78.2 0 0 1 16.326 3.932c40.503 14.532 61.557 59.144 47.025 99.646s-59.144 61.557-99.647 47.025a78.06 78.06 0 0 1-15.103-7.344c35.53 4.627 70.726-15.85 83.32-50.956zM304.564 91.173l-10.945 14.142-16.83-6.04 10.066 14.778-10.943 14.14 17.165-5.006 10.068 14.776.54-17.872 17.166-5.007-16.83-6.037zm29.552 46.08l-10.945 14.14-16.83-6.04 10.067 14.778-10.944 14.14 17.165-5.008 10.068 14.78.542-17.873 17.165-5.008-16.83-6.038zm-81.656-29.297l-10.945 14.14-16.83-6.037 10.067 14.777-10.944 14.14 17.164-5.007 10.068 14.777.542-17.872 17.165-5.007-16.83-6.04zm-1.2 52.782l-10.944 14.14-16.83-6.038 10.068 14.778-10.946 14.14 17.167-5.006 10.067 14.776.54-17.872 17.166-5.007-16.83-6.04zm50.226 18.02l-10.945 14.14-16.83-6.038 10.068 14.778-10.946 14.14L290 210.77l10.067 14.778.54-17.874 17.166-5.006-16.83-6.038z" fill="#f0f0f0"/><path d="M66.783 83.57v344.857c34.88 38.254 81.2 65.88 133.565 77.485V6.085C147.992 17.69 101.664 45.316 66.783 83.57z" fill="#d80027"/><path d="M117.753 134.785l-22.36-16.658V94.57l22.36-16.657h31.625l22.36 16.657v23.557l-22.36 16.658z" fill="#f0f0f0"/><path d="M133.566 77.913h-15.813L95.392 94.57v11.517h38.174zm0 56.872h15.812l22.36-16.658V106.1h-38.173z" fill="#ff9811"/><path d="M117.753 434.085l-22.36-16.658V393.87l22.36-16.658h31.625l22.36 16.658v23.556l-22.36 16.658z" fill="#f0f0f0"/><path d="M133.566 377.213h-15.813l-22.36 16.658v11.517h38.174zm0 56.872h15.812l22.36-16.658V405.4h-38.173z" fill="#ff9811"/><path d="M117.753 284.435l-22.36-16.658V244.22l22.36-16.658h31.625l22.36 16.658v23.556l-22.36 16.658zm54.77 36.65h-9.74v-9.74h-17.115l-12.102-12.102-12.1 12.102H104.35v9.74H94.6v19.478h9.74v9.74h17.114l12.103 12.103 12.1-12.103h17.115v-9.74h9.74zm0-149.65h-9.74v-9.74h-17.115l-12.102-12.102-12.1 12.102H104.35v9.74H94.6v19.478h9.74v9.74h17.114l12.103 12.104 12.1-12.104h17.115v-9.74h9.74z" fill="#496e2d"/><g fill="#d80027"><path d="M122.434 244.868h22.26v22.26h-22.26z"/><circle cx="133.564" cy="181.169" r="11.13"/><circle cx="133.564" cy="330.828" r="11.13"/></g></svg>