<svg xmlns="http://www.w3.org/2000/svg" viewBox="0 0 512 512" xmlns:v="https://vecta.io/nano"><circle cx="256" cy="256" r="256" fill="#d80027"/><circle cx="256" cy="256" r="122.435" fill="#f0f0f0"/><path d="M271.083 209.186l21.004 28.945 34.017-11.03-21.037 28.92 21.002 28.944-34.006-11.072-21.037 28.92.022-35.76-34.005-11.072 34.018-11.03zm12.743 119.162c-39.956 0-72.348-32.392-72.348-72.348s32.392-72.348 72.348-72.348c12.458 0 24.18 3.15 34.415 8.696-16.055-15.7-38-25.392-62.24-25.392-49.176 0-89.043 39.866-89.043 89.043s39.867 89.043 89.043 89.043c24.23 0 46.187-9.7 62.24-25.392-10.234 5.548-21.957 8.698-34.415 8.698z" fill="#d80027"/></svg>