<svg xmlns="http://www.w3.org/2000/svg" viewBox="0 0 512 512" xmlns:v="https://vecta.io/nano"><path d="M138.616 28.426c-22.918 11.83-44.43 27.334-63.643 46.546s-34.718 40.726-46.546 63.644l164.607 180.35 180.35 164.607c22.92-11.83 44.432-27.334 63.644-46.545s34.717-40.726 46.546-63.644l-164.607-180.35-180.35-164.607z" fill="#f0f0f0"/><path d="M437.027 437.027a257.55 257.55 0 0 0 28.749-34.217L109.19 46.224c-12.02 8.43-23.478 18.01-34.217 28.748S54.657 97.17 46.225 109.2L402.8 465.774a257.52 257.52 0 0 0 34.217-28.747z"/><path d="M74.972 437.027c80.767 80.767 202.064 96.27 298.4 46.545L28.427 138.616C-21.298 234.962-5.8 356.26 74.972 437.027zM437.027 74.973c-80.767-80.766-202.064-96.27-298.4-46.547l344.955 344.958c49.726-96.346 34.222-217.645-46.545-298.4z" fill="#d80027"/></svg>