<svg xmlns="http://www.w3.org/2000/svg" xmlns:xlink="http://www.w3.org/1999/xlink" viewBox="0 0 512 512" xmlns:v="https://vecta.io/nano"><path d="M512 256c0 141.384-114.616 256-256 256S0 397.384 0 256C0 256.06 256 .028 256 0c141.383 0 256 114.616 256 256z" fill="#338af3"/><path d="M122.435 256h86.342l-75.212-89.043-11.13 33.4zM256 208.778l-89.044-86.343H256z" fill="#0052b4"/><g fill="#f0f0f0"><path d="M256 0h-.043.043zm-.685 256H256v-.685l-.685.685z"/><path d="M256 133.565L255.958 0C114.592.024 0 114.63 0 256h133.566v-75.21l75.21 75.21h46.54l.685-.685v-46.537l-75.214-75.213H256z"/></g><path d="M129.515 33.4a257.39 257.39 0 0 0-96.125 96.125V256h66.783V100.174H256V33.4H129.515zM256 224.52l-90.955-90.953-31.48.002L256 256v-31.48z" fill="#d80027"/><g fill="#ffda44"><path d="M279.406 422.957l5.526 17.006h17.88l-14.465 10.5 5.526 17.005-14.468-10.5-14.465 10.5 5.526-17.005-14.467-10.5h17.88zM421.8 311.652l5.525 17.006h17.88l-14.465 10.5 5.527 17.005-14.468-10.5-14.465 10.5 5.526-17.005-14.468-10.5h17.88zm35.683-166.956l5.526 17.006h17.88l-14.465 10.5 5.525 17.005-14.467-10.5-14.465 10.5 5.526-17.005-14.467-10.5h17.88zm8.84 122.434l5.525 17.007h17.88l-14.465 10.5 5.526 17.005-14.467-10.5-14.465 10.5 5.526-17.005-14.468-10.5h17.88zM305.046 382.96l15.935 8.12 12.643-12.643-2.796 17.66 15.93 8.118-17.66 2.785-2.797 17.66-8.116-15.933-17.662 2.8 12.643-12.643z"/><use xlink:href="#B"/><path d="M360.698 358.984l15.935 8.12 12.643-12.643-2.796 17.66 15.93 8.118-17.662 2.798-2.797 17.66-8.116-15.934-17.662 2.8 12.643-12.643z"/><use xlink:href="#B" x="55.652" y="-100.174"/><path d="M414.635 214.29l15.935 8.118 12.643-12.643-2.797 17.66 15.932 8.117-17.662 2.798L435.89 256l-8.116-15.932-17.662 2.798 12.643-12.643z"/></g><defs ><path id="B" d="M305.046 316.177l15.935 8.118 12.643-12.643-2.796 17.66 15.93 8.117-17.662 2.798-2.797 17.66-8.116-15.932-17.662 2.798 12.643-12.643z"/></defs></svg>