<svg xmlns="http://www.w3.org/2000/svg" viewBox="0 0 512 512" xmlns:v="https://vecta.io/nano"><path d="M512 256c0 141.384-114.616 256-256 256S0 397.384 0 256L256 0c141.384 0 256 114.616 256 256z" fill="#d80027"/><path d="M256 256V0C114.616 0 0 114.616 0 256h256z" fill="#0052b4"/><path d="M222.61 149.82l-31.265 14.708 16.648 30.28-33.95-6.496-4.303 34.297-23.646-25.224-23.648 25.224-4.3-34.297-33.95 6.494 16.648-30.28L69.58 149.82l31.265-14.705-16.65-30.28 33.95 6.495 4.303-34.296 23.647 25.224 23.647-25.224 4.302 34.296 33.95-6.495-16.65 30.28z" fill="#f0f0f0"/><circle cx="146.098" cy="149.816" r="47.653" fill="#0052b4"/><path d="M146.094 175.213c-14 0-25.39-11.39-25.39-25.392s11.39-25.392 25.39-25.392 25.392 11.39 25.392 25.392-11.393 25.392-25.392 25.392z" fill="#f0f0f0"/></svg>