<svg xmlns="http://www.w3.org/2000/svg" viewBox="0 0 512 512" xmlns:v="https://vecta.io/nano"><circle cx="256" cy="256" r="256" fill="#ffda44"/><path d="M74.98 437.02c10.74 10.74 22.197 20.316 34.216 28.748l356.57-356.57c-8.43-12.02-18.008-23.477-28.747-34.216a257.59 257.59 0 0 0-34.216-28.747l-356.57 356.57c8.43 12.016 18.008 23.475 28.746 34.215z"/><path d="M74.98 74.98c-80.762 80.764-96.267 202.055-46.544 298.398l344.942-344.94C277.035-21.286 155.743-5.78 74.98 74.98z" fill="#6da544"/><path d="M437.02 437.02c80.762-80.762 96.266-202.055 46.545-298.398L138.622 483.564c96.34 49.723 217.634 34.218 298.397-46.544z" fill="#338af3"/></svg>