<svg xmlns="http://www.w3.org/2000/svg" viewBox="0 0 512 512" xmlns:v="https://vecta.io/nano"><path d="M446.793 426.666C487.336 381.374 512 321.572 512 256s-24.665-125.375-65.208-170.667L256 66.783 65.208 85.333C24.665 130.625 0 190.428 0 256s24.664 125.374 65.207 170.666L256 445.217l190.793-18.55z" fill="#ffda44"/><path d="M65.208,85.333h381.585C399.918,32.966,331.813,0,256,0S112.082,32.966,65.208,85.333z"/><path d="M0 256l256 22.26L512 256c0-29.924-5.15-58.642-14.588-85.334H14.588C5.15 197.358 0 226.076 0 256z" fill="#d80027"/><path d="M14.588 341.333h482.826C506.85 314.64 512 285.924 512 256H0c0 29.924 5.15 58.64 14.588 85.333z"/><path d="M446.793 426.666H65.207C112.08 479.034 180.186 512 256 512s143.92-32.966 190.793-85.334z" fill="#d80027"/><path d="M341.426 256c0 47.183-38.243 85.426-85.426 85.426S170.574 303.183 170.574 256s38.243-85.426 85.426-85.426 85.426 38.243 85.426 85.426z" fill="#f0f0f0"/><path d="M287.295 260.356L256 246.795l7.712-25.966c.285-1.215.437-2.482.437-3.784 0-4.61-1.87-8.785-4.89-11.805l7.87-7.87a27.74 27.74 0 0 0-19.676-8.15c-7.684 0-14.64 3.114-19.676 8.15l7.87 7.87a16.64 16.64 0 0 0-4.89 11.805 16.68 16.68 0 0 0 .72 4.846l-11.85 11.848h21.536s-8.904 13.374-13.765 24.357.067 24.39 11.3 29.383l6.496 2.887L256 300.522v11.13l-11.13 11.13h22.26v-22.26l10.157-10.157h21.008l.303-.627c4.99-11.233-.07-24.39-11.304-29.38z"/></svg>