<svg xmlns="http://www.w3.org/2000/svg" viewBox="0 0 512 512" xmlns:v="https://vecta.io/nano"><circle cx="256" cy="256" r="256" fill="#f0f0f0"/><path d="M244.87 256H512a256.28 256.28 0 0 0-8.819-66.783H244.87V256zm0-133.565h229.556a257.35 257.35 0 0 0-59.07-66.783H244.87v66.783zM256 512c60.25 0 115.626-20.824 159.356-55.652H96.644C140.374 491.176 195.75 512 256 512zM37.574 389.565h436.852c12.58-20.53 22.338-42.97 28.755-66.783H8.82c6.417 23.814 16.174 46.254 28.755 66.783z" fill="#d80027"/><path d="M118.584 39.978h23.33l-21.7 15.765 8.29 25.51-21.7-15.765-21.7 15.765 7.16-22.037c-19.106 15.915-35.852 34.56-49.652 55.337h7.475l-13.813 10.035a255.58 255.58 0 0 0-6.194 10.938l6.596 20.3-12.306-8.94c-3.06 6.48-5.857 13.108-8.372 19.873l7.267 22.368h26.822l-21.7 15.765 8.29 25.51-21.7-15.765L1.98 224.08A258.47 258.47 0 0 0 0 256h256V0c-50.572 0-97.715 14.67-137.416 39.978zm9.918 190.422l-21.7-15.765-21.7 15.765 8.29-25.51-21.7-15.765h26.822l8.288-25.51 8.288 25.51h26.822l-21.7 15.765 8.29 25.51zm-8.29-100.083l8.29 25.51-21.7-15.765-21.7 15.765 8.29-25.51-21.7-15.765h26.822l8.288-25.51 8.288 25.51h26.822l-21.7 15.765zM220.328 230.4l-21.7-15.765-21.7 15.765 8.29-25.51-21.7-15.765h26.822l8.288-25.51 8.288 25.51h26.822l-21.7 15.765 8.29 25.51zm-8.29-100.083l8.29 25.51-21.7-15.765-21.7 15.765 8.29-25.51-21.7-15.765h26.822l8.288-25.51 8.288 25.51h26.822l-21.7 15.765zm0-74.574l8.29 25.51-21.7-15.765-21.7 15.765 8.29-25.51-21.7-15.765h26.822l8.288-25.51 8.288 25.51h26.822l-21.7 15.765z" fill="#0052b4"/></svg>