<svg xmlns="http://www.w3.org/2000/svg" viewBox="0 0 512 512" xmlns:v="https://vecta.io/nano"><circle cx="256" cy="256" r="256" fill="#f0f0f0"/><path d="M96.643 456.348h318.713c23.363-18.608 43.4-41.2 59.07-66.783H37.574c15.67 25.572 35.707 48.175 59.07 66.783zM256 0v55.652h159.357C371.627 20.824 316.25 0 256 0zm0 189.217h247.18a254.56 254.56 0 0 0-28.755-66.783H256v66.783zM0 256a256.28 256.28 0 0 0 8.819 66.783h494.363C508.92 301.5 512 279.107 512 256H0z" fill="#338af3"/><path d="M222.61 149.82l-31.266 14.707 16.65 30.28-33.95-6.494-4.302 34.295-23.646-25.224-23.648 25.224-4.3-34.295-33.95 6.492 16.648-30.28L69.58 149.82l31.265-14.705-16.65-30.28 33.95 6.494 4.303-34.295 23.647 25.224 23.647-25.224 4.3 34.295 33.95-6.494-16.65 30.28z" fill="#ffda44"/></svg>