<svg xmlns="http://www.w3.org/2000/svg" viewBox="0 0 512 512" xmlns:v="https://vecta.io/nano"><path d="M12.088 178.088C4.246 202.656-.001 228.83 0 255.998s4.247 53.345 12.09 77.913L256 345.043l243.91-11.13c7.84-24.57 12.1-50.745 12.1-77.913s-4.248-53.344-12.1-77.913L256 166.957l-243.912 11.13z" fill="#f0f0f0"/><path d="M499.9 178.088L256 166.958l-243.912 11.13a255.47 255.47 0 0 0-6.002 22.261H505.9a254 254 0 0 0-6-22.26zM6.088 311.65c1.675 7.55 3.676 14.976 6 22.26l.024.001 243.886 11.13 243.9-11.13a255.11 255.11 0 0 0 6.001-22.261H6.088z" fill="#d80027"/><path d="M256 512c114.216 0 210.946-74.803 243.91-178.087H12.09C45.054 437.195 141.786 512 256 512z" fill="#6da544"/><path d="M256 .001C141.785.002 45.055 74.805 12.088 178.088l487.82.001C466.946 74.804 370.215 0 256 .001z" fill="#338af3"/><path d="M116.986 105.74c0-23.977 16.85-44.007 39.354-48.92-3.458-.756-7.047-1.165-10.733-1.165-27.662 0-50.087 22.424-50.087 50.087s22.423 50.087 50.087 50.087c3.686 0 7.274-.4 10.733-1.165-22.502-4.916-39.354-24.946-39.354-48.923zm68.958 22.767l3.4 10.435h10.972l-8.876 6.45 3.4 10.435-8.876-6.45-8.878 6.45 3.4-10.435-8.877-6.45h10.972zm35.02 0l3.4 10.435h10.972l-8.877 6.45 3.4 10.435-8.877-6.45-8.877 6.45 3.4-10.435-8.876-6.45h10.97zm35.02 0l3.4 10.435h10.973l-8.877 6.45 3.4 10.435-8.876-6.45-8.878 6.45 3.392-10.435-8.878-6.45h10.973zm35.02 0l3.4 10.435h10.97l-8.876 6.45 3.4 10.435-8.877-6.45-8.878 6.45 3.392-10.435-8.878-6.45h10.972zm35.02 0l3.4 10.435h10.972l-8.876 6.45 3.4 10.435-8.878-6.45-8.877 6.45 3.4-10.435-8.876-6.45h10.97zM220.964 92.08l3.4 10.434h10.972l-8.877 6.45 3.4 10.434-8.877-6.45-8.877 6.45 3.4-10.434-8.876-6.45h10.97zm35.02 0l3.4 10.434h10.973l-8.877 6.45 3.4 10.434-8.876-6.45-8.878 6.45 3.392-10.434-8.878-6.45h10.973zm35.02 0l3.4 10.434h10.97l-8.876 6.45 3.4 10.434-8.877-6.45-8.878 6.45 3.392-10.434-8.878-6.45h10.972zm35.02 0l3.4 10.434h10.972l-8.876 6.45 3.4 10.434-8.878-6.45-8.877 6.45 3.4-10.434-8.876-6.45h10.97zm-70.04-36.428l3.4 10.436h10.973l-8.877 6.45 3.4 10.436-8.876-6.45-8.878 6.45 3.392-10.436-8.878-6.45h10.973zm35.02 0l3.4 10.436h10.97l-8.876 6.45 3.4 10.436-8.877-6.45-8.878 6.45 3.392-10.436-8.878-6.45h10.972zm35.02 0l3.4 10.436h10.972l-8.876 6.45 3.4 10.436-8.878-6.45-8.877 6.45 3.4-10.436-8.876-6.45h10.97z" fill="#f0f0f0"/></svg>