<svg xmlns="http://www.w3.org/2000/svg" viewBox="0 0 473.681 473.681" xmlns:v="https://vecta.io/nano"><path d="M.002 236.842c0 84.226 44.015 158.143 110.258 200.127V36.7C44.017 78.692.002 152.6.002 236.842z" fill="#2174ba"/><path d="M363.42 36.7v400.265C429.668 394.98 473.68 321.068 473.68 236.838c0-84.237-44.01-158.146-110.258-200.138z" fill="#1c8c44"/><path d="M227.29.206l1.615-.06-1.615.06z" fill="#fbd015"/><path d="M236.837 0c54.284 0 86 81.583 95.243 177.024l2.636 43.817c3.08 123.507-29.528 252.836-97.88 252.836 46.57 0 89.963-13.496 126.585-36.708V36.7C326.8 13.49 283.405 0 236.837 0z" fill="#f3c715"/><path d="M228.905 473.53l-1.615-.06 1.615.06z" fill="#fbd015"/><path d="M345.707 201.28l-13.63-24.255c1.39 14.367 2.27 29.05 2.636 43.817l10.995-19.562z" fill="#1c8c44"/><path d="M228.905.146L236.837 0l-7.932.146zm7.932 473.53c-2.655 0-5.295-.06-7.932-.146l7.932.146z" fill="#1a9647"/><path d="M334.716 220.84l-39.557 70.41-50.54-89.97 50.54-89.978 36.92 65.72C322.847 81.583 291.12 0 236.837 0c-2.655 0-5.295.06-7.932.146l-1.615.06c-42.945 1.71-82.925 14.88-117.03 36.498V436.97c34.105 21.618 74.085 34.797 117.03 36.506l1.615.06c2.636.086 5.277.146 7.932.146 68.348-.004 100.96-129.334 97.88-252.84z" fill="#ffd52b"/><path d="M244.62 201.28l50.54 89.97 39.557-70.4c-.366-14.768-1.245-29.45-2.636-43.817l-36.92-65.72-50.54 89.975zm-65.3-89.975l-50.548 89.974 50.548 89.97 50.536-89.97zm58.338 98.6l-50.544 89.963 50.544 89.974 50.54-89.974z" fill="#1a9647"/></svg>