<?xml version="1.0" encoding="iso-8859-1"?>
<!-- Generator: Adobe Illustrator 19.0.0, SVG Export Plug-In . SVG Version: 6.00 Build 0)  -->
<svg version="1.1" id="Capa_1" xmlns="http://www.w3.org/2000/svg" xmlns:xlink="http://www.w3.org/1999/xlink" x="0px" y="0px"
	 viewBox="0 0 473.681 473.681" style="enable-background:new 0 0 473.681 473.681;" xml:space="preserve">
<path style="fill:#2174BA;" d="M0.002,236.842c0,84.226,44.015,158.143,110.258,200.127V36.7
	C44.017,78.692,0.002,152.601,0.002,236.842z"/>
<path style="fill:#1C8C44;" d="M363.421,36.7v400.265c66.247-41.984,110.258-115.897,110.258-200.127
	C473.679,152.601,429.668,78.692,363.421,36.7z"/>
<path style="fill:#FBD015;" d="M227.289,0.206c0.538-0.022,1.077-0.045,1.615-0.06C228.363,0.161,227.828,0.183,227.289,0.206z"/>
<path style="fill:#F3C715;" d="M236.837,0c54.284,0,86.01,81.583,95.243,177.024l2.636,43.817
	c3.081,123.507-29.528,252.836-97.88,252.836c46.569,0,89.963-13.496,126.585-36.708V36.7C326.8,13.489,283.405,0,236.837,0z"/>
<path style="fill:#FBD015;" d="M228.905,473.531c-0.538-0.015-1.073-0.037-1.615-0.06
	C227.832,473.494,228.366,473.516,228.905,473.531z"/>
<path style="fill:#1C8C44;" d="M345.707,201.279l-13.631-24.255c1.391,14.367,2.27,29.049,2.636,43.817L345.707,201.279z"/>
<g>
	<path style="fill:#1A9647;" d="M228.905,0.146C231.541,0.06,234.182,0,236.837,0C234.208,0,231.564,0.06,228.905,0.146z"/>
	<path style="fill:#1A9647;" d="M236.837,473.677c-2.655,0-5.295-0.06-7.932-0.146C231.564,473.617,234.208,473.677,236.837,473.677
		z"/>
</g>
<path style="fill:#FFD52B;" d="M334.716,220.841l-39.557,70.409l-50.54-89.97l50.54-89.978l36.921,65.719
	C322.847,81.583,291.12,0,236.837,0c-2.655,0-5.295,0.06-7.932,0.146c-0.538,0.015-1.077,0.037-1.615,0.06
	c-42.945,1.709-82.925,14.88-117.03,36.498v400.265c34.105,21.618,74.085,34.797,117.03,36.506c0.542,0.022,1.077,0.045,1.615,0.06
	c2.636,0.086,5.277,0.146,7.932,0.146C305.185,473.677,337.798,344.347,334.716,220.841z"/>
<g>
	<path style="fill:#1A9647;" d="M244.619,201.279l50.54,89.97l39.557-70.409c-0.366-14.768-1.245-29.449-2.636-43.817
		l-36.921-65.719L244.619,201.279z"/>
	<polygon style="fill:#1A9647;" points="179.311,111.305 128.763,201.279 179.311,291.249 229.847,201.279 	"/>
	<polygon style="fill:#1A9647;" points="237.648,209.906 187.104,299.869 237.648,389.843 288.188,299.869 	"/>
</g>
<g>
</g>
<g>
</g>
<g>
</g>
<g>
</g>
<g>
</g>
<g>
</g>
<g>
</g>
<g>
</g>
<g>
</g>
<g>
</g>
<g>
</g>
<g>
</g>
<g>
</g>
<g>
</g>
<g>
</g>
</svg>
