<svg xmlns="http://www.w3.org/2000/svg" viewBox="0 0 512 512" xmlns:v="https://vecta.io/nano"><path d="M486.598 367.304C502.873 333.648 512 295.89 512 256s-9.127-77.648-25.402-111.304L256 122.435l-230.598 22.26C9.127 178.352 0 216.11 0 256s9.127 77.648 25.402 111.304L256 389.565l230.598-22.26z" fill="#0052b4"/><path d="M256 512c101.493 0 189.2-59.065 230.598-144.696H25.402C66.8 452.935 154.506 512 256 512z" fill="#d80027"/><path d="M443.367 306.252l-13.52 10.566 5.868 16.12-14.227-9.593-13.522 10.564 4.728-16.495-14.225-9.596 17.15-.598 4.732-16.495 5.87 16.124zm-34.627-59.97l-9.1 14.553 11.03 13.142-16.65-4.146-9.094 14.55-1.2-17.117-16.65-4.153L383 256.68l-1.196-17.118 11.03 13.147zm-53.046-44.512l-3.566 16.785 14.86 8.58-17.065 1.8-3.568 16.78-6.98-15.674-17.067 1.8 12.754-11.482-6.98-15.674 14.86 8.578zm-65.072-23.683l2.4 16.993 16.897 2.978-15.422 7.526 2.4 16.992-11.92-12.344-15.426 7.522 8.058-15.153-11.92-12.342 16.9 2.98zm-69.245 0l8.057 15.15 16.896-2.98-11.917 12.347 8.053 15.152-15.422-7.524-11.922 12.34 2.4-17-15.423-7.522 16.9-2.982zm-65.072 23.683l12.754 11.483 14.857-8.578-6.977 15.68 12.75 11.48-17.065-1.795-6.982 15.674-3.563-16.783-17.066-1.792 14.86-8.582zm-53.047 44.512l15.913 6.428 11.026-13.144-1.193 17.12 15.908 6.43-16.65 4.15-1.2 17.115-9.1-14.55-16.65 4.15 11.03-13.145zm-34.624 59.97l17.152.598 5.866-16.122 4.735 16.496 17.147.6-14.226 9.596 4.728 16.494-13.52-10.564-14.227 9.593 5.87-16.124z" fill="#f0f0f0"/><path d="M486.598 144.696C445.2 59.065 357.493 0 256 0S66.8 59.065 25.402 144.696h461.196z" fill="#ffda44"/></svg>