<svg xmlns="http://www.w3.org/2000/svg" viewBox="0 0 512.001 512.001" xmlns:v="https://vecta.io/nano"><path d="M512 256a258.35 258.35 0 0 0-2.167-33.391H222.606L74.98 74.98c-99.974 99.974-99.974 262.064 0 362.04l147.63-147.628h287.224C511.256 278.462 512 267.318 512 256z"/><path d="M511.927 261.823l-.036 1.484.036-1.484zm-.247 6.997l-.083 1.464.083-1.464zm-.344 5.58l-.16 2.155.16-2.155zm-.856-46.3l.273 2.57-.273-2.57zm1.117 13.618l.083 1.464-.083-1.464zm.303 6.978l.036 1.484-.036-1.484zm-.723-13.25l.16 2.155-.16-2.155z" fill="#f0f0f0"/><path d="M509.833 222.61l.322 2.638C494.96 98.365 386.975.001 256 .001c-70.694 0-134.695 28.655-181.022 74.984L222.602 222.6h287.23z" fill="#d80027"/><path d="M509.833 289.392h-287.23L74.978 437.017C121.305 483.345 185.306 512 256 512c130.975 0 238.962-98.364 254.155-225.247l-.322 2.638z" fill="#6da544"/><path d="M510.753 281.333l-.273 2.57.273-2.57z" fill="#f0f0f0"/><path d="M511.336 237.602l.26 4.116-.26-4.116zm-1.18-12.355l.326 2.852-.326-2.852zm.598 5.42l.424 4.78-.424-4.78zM512 256l-.073 5.82L512 256z"/><path d="M511.597 270.283l-.26 4.116.26-4.116zm-.42 6.27l-.424 4.78.424-4.78zm-.697 7.348l-.326 2.852.326-2.852zm1.447-33.722L512 256l-.073-5.82zm-.247-6.998l.2 5.513-.2-5.513zm.22 20.125l-.2 5.513.2-5.513z"/><path d="M511.756 244.778H213.2L59.844 91.444c-4.957 5.228-10.33 12.528-13.653 17.727l146.66 146.736L46.068 402.692c2.906 5.17 9.237 12.822 13.682 17.8L213.204 267.04h298.588c.16-3.692.2-7.4.2-11.13-.001-4.998-.14-8.683-.245-11.13zm-449.57 65.795V289.13c21.398 0 38.805-17.4 38.805-38.805 0-15.14-12.317-27.455-27.455-27.455a18.73 18.73 0 0 0-18.704 18.705c0 6.595 5.365 11.96 11.96 11.96a6.77 6.77 0 0 0 6.76-6.763h21.442c0 15.553-12.652 28.205-28.202 28.205-18.42.001-33.402-14.985-33.402-33.4 0-22.137 18-40.146 40.145-40.146 26.962 0 48.898 21.936 48.898 48.897-.001 33.217-27.028 60.245-60.25 60.245z" fill="#ffda44"/></svg>