<svg xmlns="http://www.w3.org/2000/svg" viewBox="0 0 512 512" xmlns:v="https://vecta.io/nano"><circle cx="256" cy="256" r="256" fill="#f0f0f0"/><path d="M74.98 437.02c-99.974-99.975-99.974-262.065 0-362.04C74.973 74.99 222.61 256 222.61 256L74.98 437.02z"/><path d="M222.61 256L33.953 128.513c-5.85 10.167-11.007 20.78-15.44 31.763L114.023 256l-95.506 95.73a254.82 254.82 0 0 0 15.426 31.741L222.61 256z" fill="#ffda44"/><path d="M509.833 222.61h-287.23L74.978 74.984c-15.908 15.908-29.73 33.9-41.025 53.53L161.192 256 33.943 383.47c11.296 19.636 25.123 37.633 41.035 53.545L222.602 289.39h287.23a258.53 258.53 0 0 0 0-66.782z" fill="#6da544"/><path d="M100.138 459.077C143.307 492.26 197.344 512 256 512c118.28 0 217.805-80.22 247.18-189.217H236.433L100.138 459.077z" fill="#0052b4"/><path d="M503.18 189.217C473.805 80.22 374.28 0 256 0c-58.656 0-112.693 19.74-155.862 52.923l136.294 136.294h266.75z" fill="#d80027"/></svg>