<svg xmlns="http://www.w3.org/2000/svg" viewBox="0 0 512 512" xmlns:v="https://vecta.io/nano"><circle cx="256" cy="256" r="256" fill="#496e2d"/><path d="M356.174 256H256v256c29.924 0 58.64-5.15 85.333-14.586L356.174 256z" fill="#d80027"/><path d="M426.666 446.793C479.034 399.92 512 331.813 512 256H411.826l14.84 190.793z" fill="#ff9811"/><path d="M341.333 256v241.414c31.797-11.24 60.71-28.58 85.334-50.62V256h-85.334z"/><path d="M473.043 166.957H406.26c0-12.294-9.967-22.26-22.26-22.26s-22.26 9.967-22.26 22.26h-66.783c0 12.295 10.71 22.26 23.002 22.26h-.74c0 12.295 9.965 22.26 22.26 22.26 0 12.295 9.965 22.26 22.26 22.26h44.522c12.294 0 22.26-9.966 22.26-22.26 12.294 0 22.26-9.966 22.26-22.26h-.74c12.294-.001 23.002-9.967 23.002-22.26z" fill="#ff9811"/></svg>