<svg xmlns="http://www.w3.org/2000/svg" viewBox="0 0 512 512" xmlns:v="https://vecta.io/nano"><circle cx="256" cy="256" r="256" fill="#f0f0f0"/><path d="M487.497 146.603C474.5 119.13 456.74 94.346 435.3 73.3L256 55.652 76.7 73.302l-1.696 1.702 71.6 71.6L256 149.945l231.497-3.342zM75 437l2.838 2.813L256 456.348l178.16-16.536c21.66-21 39.63-45.785 52.818-73.302l-331.152-10.336L75 437z" fill="#ffda44"/><path d="M509.454 219.905l-297.976-8.427L256 256l-44.522 44.522 297.82-7.314C511.068 281.06 512 268.64 512 256a257.92 257.92 0 0 0-2.546-36.095z"/><path d="M256,0C186.172,0,122.886,27.97,76.7,73.302h358.6C389.114,27.97,325.828,0,256,0z" fill="#6da544"/><path d="M219.905 219.905h289.55c-3.653-25.88-11.17-50.513-21.957-73.302H146.603l73.302 73.302zM145.5 366.5h341.488a254.19 254.19 0 0 0 22.32-73.302H218.792L145.5 366.5z" fill="#d80027"/><path d="M256 512c69.255 0 132.075-27.512 178.16-72.19H77.84C123.925 484.488 186.745 512 256 512z" fill="#6da544"/><path d="M91.415 59.934A258.03 258.03 0 0 0 74.98 74.98L256 256 74.98 437.02c5.252 5.252 10.744 10.264 16.435 15.046L287.48 256 91.415 59.934z"/><path d="M102.925 189.217l16.575 51.016h53.645l-43.398 31.532 16.576 51.018-43.398-31.53-43.4 31.53 16.578-51.018-43.397-31.532H86.35z" fill="#d80027"/><path d="M148.52 260.174L105.32 244.87l-3.385-30.958c-1.466-7.723-8.253-13.564-16.403-13.564a16.7 16.7 0 0 0-16.696 16.696c0 1.53.223 3.002.608 4.4l-12.112 12.193H78.87C78.87 256 62.19 256 62.19 278.26l9.253 22.26h55.652l9.272-22.26a22.24 22.24 0 0 0 1.726-6.54c7.996-3.234 10.427-11.547 10.427-11.547z" fill="#ffda44"/></svg>